<mxfile host="app.diagrams.net" modified="2022-08-29T07:16:14.882Z" agent="5.0 (Windows NT 10.0; Win64; x64) AppleWebKit/537.36 (KHTML, like Gecko) Chrome/104.0.0.0 Safari/537.36" etag="6MWn_DB-nptUvocy6dGa" version="20.2.6" type="github">
  <diagram id="prtHgNgQTEPvFCAcTncT" name="Page-1">
    <mxGraphModel dx="782" dy="412" grid="0" gridSize="10" guides="1" tooltips="1" connect="1" arrows="1" fold="1" page="1" pageScale="1" pageWidth="827" pageHeight="1169" math="0" shadow="0">
      <root>
        <mxCell id="0" />
        <mxCell id="1" parent="0" />
        <mxCell id="3lCfdoBAfjzMcAbazPAc-4" value="" style="rounded=1;whiteSpace=wrap;html=1;fillColor=#d5e8d4;strokeColor=#82b366;" parent="1" vertex="1">
          <mxGeometry x="185" y="336" width="450" height="308" as="geometry" />
        </mxCell>
        <mxCell id="jz31EccxVryN575QA1fw-11" value="" style="rounded=1;whiteSpace=wrap;html=1;fillColor=#f5f5f5;fontColor=#333333;strokeColor=#666666;" parent="1" vertex="1">
          <mxGeometry x="207" y="551" width="420" height="66" as="geometry" />
        </mxCell>
        <mxCell id="3lCfdoBAfjzMcAbazPAc-52" value="" style="rounded=1;whiteSpace=wrap;html=1;fontSize=14;fillColor=#b1ddf0;strokeColor=#10739e;" parent="1" vertex="1">
          <mxGeometry x="662" y="335" width="104" height="308" as="geometry" />
        </mxCell>
        <mxCell id="3lCfdoBAfjzMcAbazPAc-51" value="" style="rounded=1;whiteSpace=wrap;html=1;fontSize=14;fillColor=#b1ddf0;strokeColor=#10739e;" parent="1" vertex="1">
          <mxGeometry x="54" y="333" width="104" height="308" as="geometry" />
        </mxCell>
        <mxCell id="3lCfdoBAfjzMcAbazPAc-11" value="embedding" style="rounded=1;whiteSpace=wrap;html=1;fillColor=#D4E1F5;strokeColor=#36393d;" parent="1" vertex="1">
          <mxGeometry x="228" y="567" width="66" height="40" as="geometry" />
        </mxCell>
        <mxCell id="3lCfdoBAfjzMcAbazPAc-17" value="" style="endArrow=classic;html=1;rounded=0;exitX=1;exitY=0.5;exitDx=0;exitDy=0;entryX=0;entryY=0.5;entryDx=0;entryDy=0;" parent="1" edge="1" target="8WZBJLw57oJNSU06zkzZ-9">
          <mxGeometry relative="1" as="geometry">
            <mxPoint x="115.63" y="439" as="sourcePoint" />
            <mxPoint x="228.63" y="442" as="targetPoint" />
            <Array as="points" />
          </mxGeometry>
        </mxCell>
        <mxCell id="3lCfdoBAfjzMcAbazPAc-22" value="" style="endArrow=classic;html=1;rounded=0;entryX=0;entryY=0.5;entryDx=0;entryDy=0;" parent="1" target="3lCfdoBAfjzMcAbazPAc-11" edge="1">
          <mxGeometry width="50" height="50" relative="1" as="geometry">
            <mxPoint x="112" y="585" as="sourcePoint" />
            <mxPoint x="440" y="540" as="targetPoint" />
          </mxGeometry>
        </mxCell>
        <mxCell id="3lCfdoBAfjzMcAbazPAc-23" value="" style="endArrow=classic;html=1;rounded=0;exitX=1;exitY=0.5;exitDx=0;exitDy=0;entryX=0;entryY=0.5;entryDx=0;entryDy=0;startArrow=none;" parent="1" target="3lCfdoBAfjzMcAbazPAc-14" edge="1">
          <mxGeometry width="50" height="50" relative="1" as="geometry">
            <mxPoint x="440" y="585" as="sourcePoint" />
            <mxPoint x="440" y="540" as="targetPoint" />
          </mxGeometry>
        </mxCell>
        <mxCell id="3lCfdoBAfjzMcAbazPAc-26" value="" style="endArrow=classic;html=1;rounded=0;startArrow=none;" parent="1" source="3lCfdoBAfjzMcAbazPAc-14" edge="1">
          <mxGeometry width="50" height="50" relative="1" as="geometry">
            <mxPoint x="400" y="585" as="sourcePoint" />
            <mxPoint x="670" y="585" as="targetPoint" />
          </mxGeometry>
        </mxCell>
        <mxCell id="3lCfdoBAfjzMcAbazPAc-30" value="" style="endArrow=classic;html=1;rounded=0;exitX=1;exitY=0.5;exitDx=0;exitDy=0;" parent="1" edge="1">
          <mxGeometry width="50" height="50" relative="1" as="geometry">
            <mxPoint x="611" y="442" as="sourcePoint" />
            <mxPoint x="666" y="442" as="targetPoint" />
          </mxGeometry>
        </mxCell>
        <mxCell id="3lCfdoBAfjzMcAbazPAc-35" value="" style="shape=image;verticalLabelPosition=bottom;labelBackgroundColor=default;verticalAlign=top;aspect=fixed;imageAspect=0;image=data:image/png,iVBORw0KGgoAAAANSUhEUgAAAGQAAAANCAYAAABfGcvGAAAHRElEQVRYhe2XyW8dxxGHv6rumff4+ChKJCWSsuQt8iZBQGLL91ycU4DkT80l1wABHDuHADEcI7EtW7AtRpZJPa5vma2rcuh5pGgkyCnxRTWYw3RPLV3rryVZcndw5wX9pOQgEM2deZWoGyPxIio/FUURBqUSq8Y4OG5okxGC5N3zuHj/Sv8uV/MDIP0D4H2ZieadpRzr3z4JUFlK+08JsNTlP/p+Tp6DyIW83oAf8Wn+4dL687KWVlycRy+d1TGzvC69LMnn+rc8vS7rZS73hAs+3Hp7pDc86zJ3yqjE2aLjbNFye3vEoBDcs5MxA5sBhsT18yO6O21qaW2BSqQMA4IqAG1lWIJiRfugQECoEpwlozVYURhHIahks5sK3HEBEUViAaKkDqxJaCGEQnv3KODMO5i1IOqsRhiGCxeKG3RT0AEeyhwUHOlavGtBHNEAscAlZKenjipVKFDGEaqKuGBtR3dyCCFQjMYwKBARxKG1ljpVCEIZBsRQnPtokVpm7YKoyqoOKWLM9rnD8QnSGlYqMhojRcREmFeJg8MFMRkUqqytFL2TcuZ4dwonf0aswq99AGGMCFTtgqPpd0zmTxgWY3bXX2VruI1hHD0+ojptuHV3i8GwwD278LB2/nrq/HOeeHMt8P7VwKgQzBPNk8+hnUMxRNduEK/eRELkdLrgh69PuHZ7zObOGBHHUcyMR1XiD4fO7tB492rklTJSCJgb3uzD4iMY3kGGd0ELcCOdPSEdPMoVdeMOYbiDhEhnHU8XexzO9hE3bm68xbVyEzGhOZhw9PvfUa5vom/8jNH9+4TBABAOjh9xcPaUGAp2xrfZGt5EVGmsY2/xPR8dfclmOebt1Vu8M7pNQcDqBfLhH5EEtqLw1l3kzh1UIiCEGNBlNQWBIEIQQQW0m6CLv6PVQ0L18Hy/TmdMqid0VlG3ZyyaYwQIKNPJjMnjU+hyXgYRRGAtKqXCSeoAKKMgIgRAjr4hffUh/vQhakYIARVoZh0H3x5TnTS5NfV2BXWuFoF/zI2RBjaLQBRBRQhi6OJLwuIRMv0YTacEMYIIzA+xr/+E7T8kaEA1EBSclq/2P0EDNFYxqye5osTxwwmzTz+h3f+B6vG3SOrObfnm2WcEhZQa5s1Jz5Or4ElzyBfT7zhojnlcPUPECQLStegXn+OrK8S6QT/7G3QNqoJo9pVe7rk9WQ3NHuINLgbTvyBe4UCXUq88cFw9Y1qfXPTbzukawzq7JO5KcHYGgc0ycC3CQKSfTo4lsJMJ1GdoiKARFwc3rAVvDJL1k8oJEtgohZEo2yNhs8zJtLRbFw8hlITpp2i7j/cTTKzGZkfQVoSgSN8NutQyrQ4YlmtUacZJ9Qwc1J0kDienYMbw5ksE1XM76nrBqLjKtD7jrDvDvM4+wOmA426BoNwabVy009xTkc1N/PoOWjeEynDSua+i4yCXA+I2x2yBFNfzt0Q0TUFXKENJqZFpu6AMQ0Qu1GkRaaqOo/0pxUgpBrHfSgzVWI/aV8cFGIjFAHntXShWsfkx2u1CLAiFItE52p+yvjNkbXNEjCEfS52t0hhqYJlTDpDqPGfCGj54Ge+OEGtxKSGOCLd+AaklTSfo6gYSS0Io2b36OrP5EThE0ewPFxgUrN69z8Zvfs1gZwfKEs+Tm621XSbzPcoYc2UQ8wAXYaxDfr7+Gr/deY+tciuHUAQRxVdW0cePMHe4cR1WBrgI2gOPiORZ488jG1EYvIIM38w9uJv0jndWylW2116l0O8JYYUbay/n5AQ2dlbp6gZLTuqcYpDlusNWCfeuBLYG/ZBFMBTdfRsVcA25OrwDL1lZG/DSm9eoF4muXSKTTCrwy83AdrkMRY+WpMSvvI/EDfAqoyG3fOArN4ivP0BQLEZwQ3AKjbxx/T0OTvdYKcdsjXcRCZgY5dY2G7/6gHJ7hzi60idutuO16/f4/vRbBGVzfAvViONElNdHN7hWjrlebDCIBdLXqRQD5MED/OgYWVvF37mHlDmQS2wme89mfnha8catdcqYneeecBKC9q52oAAJuBvmbYaDEtAQCARwSF3COkdUCFHQIH0ZZzEdGasWkqGgYWCGuOfAiSOqQMDN8NZxd6SXpT10S+50BlHIiCjj0IzWqBECrt7LLRACkmqSgEtAPYEGEO3j3NJZQgiohHM9boa55ZmqxXOI2UgGZi0mRtQAUqI45j0gdlA0z4cLNqgbOnNC6KAYgOYKm9Udewdz4qDMyicnNcNSc/z7pBNPOP2a1CwhJLmbI+4gDYL2uLtH3wmk0b41Oe6K9dkll3C+XdxHPO+4+EVP9T4jO0FceL6Ikwjq1sP/i/uTiwAJccVRRJqszwUXgA5cUTpMFHHDRHPLccelzV3WFZcEHvre35xXaE4x7a8dCiL9vBUu3906nrOuP5IjppAKvLOeDxZ1P5sXbevPjhumc/vx/esF/R9JBcYjRTpPnhIk++9ML+h/S1HgXxrfrlM1nhz3AAAAAElFTkSuQmCC;imageBorder=#99CCFF;" parent="1" vertex="1">
          <mxGeometry x="67" y="581.84" width="79.47" height="10.33" as="geometry" />
        </mxCell>
        <mxCell id="3lCfdoBAfjzMcAbazPAc-36" value="" style="shape=image;verticalLabelPosition=bottom;labelBackgroundColor=default;verticalAlign=top;aspect=fixed;imageAspect=0;image=data:image/png,iVBORw0KGgoAAAANSUhEUgAAAGQAAAANCAYAAABfGcvGAAAHRElEQVRYhe2XyW8dxxGHv6rumff4+ChKJCWSsuQt8iZBQGLL91ycU4DkT80l1wABHDuHADEcI7EtW7AtRpZJPa5vma2rcuh5pGgkyCnxRTWYw3RPLV3rryVZcndw5wX9pOQgEM2deZWoGyPxIio/FUURBqUSq8Y4OG5okxGC5N3zuHj/Sv8uV/MDIP0D4H2ZieadpRzr3z4JUFlK+08JsNTlP/p+Tp6DyIW83oAf8Wn+4dL687KWVlycRy+d1TGzvC69LMnn+rc8vS7rZS73hAs+3Hp7pDc86zJ3yqjE2aLjbNFye3vEoBDcs5MxA5sBhsT18yO6O21qaW2BSqQMA4IqAG1lWIJiRfugQECoEpwlozVYURhHIahks5sK3HEBEUViAaKkDqxJaCGEQnv3KODMO5i1IOqsRhiGCxeKG3RT0AEeyhwUHOlavGtBHNEAscAlZKenjipVKFDGEaqKuGBtR3dyCCFQjMYwKBARxKG1ljpVCEIZBsRQnPtokVpm7YKoyqoOKWLM9rnD8QnSGlYqMhojRcREmFeJg8MFMRkUqqytFL2TcuZ4dwonf0aswq99AGGMCFTtgqPpd0zmTxgWY3bXX2VruI1hHD0+ojptuHV3i8GwwD278LB2/nrq/HOeeHMt8P7VwKgQzBPNk8+hnUMxRNduEK/eRELkdLrgh69PuHZ7zObOGBHHUcyMR1XiD4fO7tB492rklTJSCJgb3uzD4iMY3kGGd0ELcCOdPSEdPMoVdeMOYbiDhEhnHU8XexzO9hE3bm68xbVyEzGhOZhw9PvfUa5vom/8jNH9+4TBABAOjh9xcPaUGAp2xrfZGt5EVGmsY2/xPR8dfclmOebt1Vu8M7pNQcDqBfLhH5EEtqLw1l3kzh1UIiCEGNBlNQWBIEIQQQW0m6CLv6PVQ0L18Hy/TmdMqid0VlG3ZyyaYwQIKNPJjMnjU+hyXgYRRGAtKqXCSeoAKKMgIgRAjr4hffUh/vQhakYIARVoZh0H3x5TnTS5NfV2BXWuFoF/zI2RBjaLQBRBRQhi6OJLwuIRMv0YTacEMYIIzA+xr/+E7T8kaEA1EBSclq/2P0EDNFYxqye5osTxwwmzTz+h3f+B6vG3SOrObfnm2WcEhZQa5s1Jz5Or4ElzyBfT7zhojnlcPUPECQLStegXn+OrK8S6QT/7G3QNqoJo9pVe7rk9WQ3NHuINLgbTvyBe4UCXUq88cFw9Y1qfXPTbzukawzq7JO5KcHYGgc0ycC3CQKSfTo4lsJMJ1GdoiKARFwc3rAVvDJL1k8oJEtgohZEo2yNhs8zJtLRbFw8hlITpp2i7j/cTTKzGZkfQVoSgSN8NutQyrQ4YlmtUacZJ9Qwc1J0kDienYMbw5ksE1XM76nrBqLjKtD7jrDvDvM4+wOmA426BoNwabVy009xTkc1N/PoOWjeEynDSua+i4yCXA+I2x2yBFNfzt0Q0TUFXKENJqZFpu6AMQ0Qu1GkRaaqOo/0pxUgpBrHfSgzVWI/aV8cFGIjFAHntXShWsfkx2u1CLAiFItE52p+yvjNkbXNEjCEfS52t0hhqYJlTDpDqPGfCGj54Ge+OEGtxKSGOCLd+AaklTSfo6gYSS0Io2b36OrP5EThE0ewPFxgUrN69z8Zvfs1gZwfKEs+Tm621XSbzPcoYc2UQ8wAXYaxDfr7+Gr/deY+tciuHUAQRxVdW0cePMHe4cR1WBrgI2gOPiORZ488jG1EYvIIM38w9uJv0jndWylW2116l0O8JYYUbay/n5AQ2dlbp6gZLTuqcYpDlusNWCfeuBLYG/ZBFMBTdfRsVcA25OrwDL1lZG/DSm9eoF4muXSKTTCrwy83AdrkMRY+WpMSvvI/EDfAqoyG3fOArN4ivP0BQLEZwQ3AKjbxx/T0OTvdYKcdsjXcRCZgY5dY2G7/6gHJ7hzi60idutuO16/f4/vRbBGVzfAvViONElNdHN7hWjrlebDCIBdLXqRQD5MED/OgYWVvF37mHlDmQS2wme89mfnha8catdcqYneeecBKC9q52oAAJuBvmbYaDEtAQCARwSF3COkdUCFHQIH0ZZzEdGasWkqGgYWCGuOfAiSOqQMDN8NZxd6SXpT10S+50BlHIiCjj0IzWqBECrt7LLRACkmqSgEtAPYEGEO3j3NJZQgiohHM9boa55ZmqxXOI2UgGZi0mRtQAUqI45j0gdlA0z4cLNqgbOnNC6KAYgOYKm9Udewdz4qDMyicnNcNSc/z7pBNPOP2a1CwhJLmbI+4gDYL2uLtH3wmk0b41Oe6K9dkll3C+XdxHPO+4+EVP9T4jO0FceL6Ikwjq1sP/i/uTiwAJccVRRJqszwUXgA5cUTpMFHHDRHPLccelzV3WFZcEHvre35xXaE4x7a8dCiL9vBUu3906nrOuP5IjppAKvLOeDxZ1P5sXbevPjhumc/vx/esF/R9JBcYjRTpPnhIk++9ML+h/S1HgXxrfrlM1nhz3AAAAAElFTkSuQmCC;imageBorder=#99CCFF;" parent="1" vertex="1">
          <mxGeometry x="674.25" y="581.67" width="70" height="9.1" as="geometry" />
        </mxCell>
        <mxCell id="3lCfdoBAfjzMcAbazPAc-14" value="Transition" style="rounded=1;whiteSpace=wrap;html=1;fillColor=#f9f7ed;strokeColor=#36393d;" parent="1" vertex="1">
          <mxGeometry x="555" y="567" width="65" height="37.55" as="geometry" />
        </mxCell>
        <mxCell id="3lCfdoBAfjzMcAbazPAc-44" value="" style="endArrow=none;html=1;rounded=0;exitX=1;exitY=0.5;exitDx=0;exitDy=0;entryX=0;entryY=0.5;entryDx=0;entryDy=0;startArrow=none;" parent="1" source="jz31EccxVryN575QA1fw-4" edge="1">
          <mxGeometry width="50" height="50" relative="1" as="geometry">
            <mxPoint x="298" y="587" as="sourcePoint" />
            <mxPoint x="373" y="585.78" as="targetPoint" />
          </mxGeometry>
        </mxCell>
        <mxCell id="3lCfdoBAfjzMcAbazPAc-46" value="&lt;font size=&quot;1&quot; style=&quot;&quot;&gt;&lt;b style=&quot;font-size: 19px;&quot;&gt;ProtSwim pipeline&lt;/b&gt;&lt;/font&gt;" style="text;html=1;align=center;verticalAlign=middle;resizable=0;points=[];autosize=1;strokeColor=none;fillColor=none;" parent="1" vertex="1">
          <mxGeometry x="307" y="680" width="183" height="35" as="geometry" />
        </mxCell>
        <mxCell id="3lCfdoBAfjzMcAbazPAc-47" value="masked &lt;br&gt;Distogram" style="text;html=1;align=center;verticalAlign=middle;resizable=0;points=[];autosize=1;strokeColor=none;fillColor=none;fontSize=14;" parent="1" vertex="1">
          <mxGeometry x="67" y="501.67" width="82" height="46" as="geometry" />
        </mxCell>
        <mxCell id="3lCfdoBAfjzMcAbazPAc-48" value="Sequence" style="text;html=1;align=center;verticalAlign=middle;resizable=0;points=[];autosize=1;strokeColor=none;fillColor=none;fontSize=14;" parent="1" vertex="1">
          <mxGeometry x="66.24" y="593" width="81" height="29" as="geometry" />
        </mxCell>
        <mxCell id="3lCfdoBAfjzMcAbazPAc-50" value="Sequence" style="text;html=1;align=center;verticalAlign=middle;resizable=0;points=[];autosize=1;strokeColor=none;fillColor=none;fontSize=14;" parent="1" vertex="1">
          <mxGeometry x="672.37" y="595" width="81" height="29" as="geometry" />
        </mxCell>
        <mxCell id="jz31EccxVryN575QA1fw-4" value="RowAttention&lt;br&gt;Nobias" style="rounded=1;whiteSpace=wrap;html=1;fillColor=#f8cecc;strokeColor=#b85450;" parent="1" vertex="1">
          <mxGeometry x="316" y="567" width="79" height="39" as="geometry" />
        </mxCell>
        <mxCell id="jz31EccxVryN575QA1fw-6" value="ColumnAttention&lt;br&gt;Nobias" style="rounded=1;whiteSpace=wrap;html=1;fillColor=#e1d5e7;strokeColor=#9673a6;" parent="1" vertex="1">
          <mxGeometry x="426" y="566" width="91" height="41" as="geometry" />
        </mxCell>
        <mxCell id="jz31EccxVryN575QA1fw-7" style="edgeStyle=orthogonalEdgeStyle;rounded=0;orthogonalLoop=1;jettySize=auto;html=1;exitX=0.5;exitY=1;exitDx=0;exitDy=0;" parent="1" source="jz31EccxVryN575QA1fw-4" target="jz31EccxVryN575QA1fw-4" edge="1">
          <mxGeometry relative="1" as="geometry" />
        </mxCell>
        <mxCell id="jz31EccxVryN575QA1fw-9" value="" style="endArrow=classic;html=1;rounded=0;exitX=1;exitY=0.5;exitDx=0;exitDy=0;entryX=0.013;entryY=0.513;entryDx=0;entryDy=0;entryPerimeter=0;" parent="1" source="3lCfdoBAfjzMcAbazPAc-11" target="jz31EccxVryN575QA1fw-4" edge="1">
          <mxGeometry width="50" height="50" relative="1" as="geometry">
            <mxPoint x="387" y="604" as="sourcePoint" />
            <mxPoint x="437" y="554" as="targetPoint" />
          </mxGeometry>
        </mxCell>
        <mxCell id="jz31EccxVryN575QA1fw-10" value="" style="endArrow=classic;html=1;rounded=0;exitX=1;exitY=0.5;exitDx=0;exitDy=0;entryX=0;entryY=0.5;entryDx=0;entryDy=0;" parent="1" source="jz31EccxVryN575QA1fw-4" target="jz31EccxVryN575QA1fw-6" edge="1">
          <mxGeometry width="50" height="50" relative="1" as="geometry">
            <mxPoint x="387" y="604" as="sourcePoint" />
            <mxPoint x="437" y="554" as="targetPoint" />
          </mxGeometry>
        </mxCell>
        <mxCell id="jz31EccxVryN575QA1fw-12" value="&lt;font style=&quot;font-size: 14px;&quot;&gt;&lt;b&gt;48 Blocks&lt;/b&gt;&lt;/font&gt;" style="text;html=1;align=center;verticalAlign=middle;resizable=0;points=[];autosize=1;strokeColor=none;fillColor=none;" parent="1" vertex="1">
          <mxGeometry x="364.5" y="620" width="83" height="29" as="geometry" />
        </mxCell>
        <mxCell id="jz31EccxVryN575QA1fw-20" value="&lt;b&gt;head&lt;/b&gt;" style="text;html=1;align=center;verticalAlign=middle;resizable=0;points=[];autosize=1;strokeColor=none;fillColor=none;fontSize=14;" parent="1" vertex="1">
          <mxGeometry x="686" y="491.6" width="51" height="29" as="geometry" />
        </mxCell>
        <mxCell id="jz31EccxVryN575QA1fw-22" value="" style="shape=image;verticalLabelPosition=bottom;labelBackgroundColor=default;verticalAlign=top;aspect=fixed;imageAspect=0;image=data:image/png,iVBORw0KGgoAAAANSUhEUgAAAfAAAABACAYAAADlESUnAAAVWUlEQVR4nO2dy44kSVaGLSI87pfKzLp0Zld10/SMQELMBngDkBALtix4AZ6CHYuRQLwELzKwZsuIixq1erq6qiurKiPjHh43Fkym2/kswyxdWUW3N/+3SpO7m9vNzTLst3NOzTl3cEIIIYSoFNm//dfXbjgcOeec2+3sWr7Z7U26Vqvd/n042Hsf+l8Asgvyq0WuJTMDv/zVVya9x+1Xs7VJ/+bV9Pbv1Xpjrm02to3a7cykm1kd77IvW6+39joKs14V1/uDlrnWaTdN+uy0a9I/vxiZ9N/+2c9N+h//5b9NerW1dYk1I9uMNGy1XVavmfTnp7YuX721be4NNffFadtcGy93Jn21tG1Ys69yf/UH5yZ90rfttljb/Pxx30C5M1Rsi29kg2+Iz7N/2000VKRcHEvdVsOk+U3m6M9BJ4te98vebNhyt/Du3Z5zhU3zecK6+EWfrWx/cuywzViWs74dW7/8lR3n7DN+k/ba0UvOOefq8WoGz7OPonMqnuW45vW/+4vfN+l/+Gdb7zX622fQtmNpvLB9wHHczGz6k4H9pn7npGPSL6f2+/br+nxk722gol+9X5h0D/3/13/0uUn/Peb3FeZojpcysB1qKGuZPkwsU9H+zpcz909/86cuGw5HbjT634l++/9kAW/1BibN/mzu7GBsdLwJ3dkFfF+3bdTAAt7AYKvhZQ23jV6v74v3Ndp2IWt0bDmzrl3AWc+bfr6hjeuHLSc2d5TUN5AlFvBu39altbB18W/v9O0H3qnbNmvVbJqT6mBo6z3AAl5v/TgX8BrKxUW0ygs48zNFbz5sAR/iH11+B/Wf6AJe9vs292IBb7n4At7CAt7BP029Ab7Zvb3u15X3cgHvrG3ZOuj/VL33P8EF/IZsuzvcfnwcjFdzu1jNvV+LU/xyvM5zk57k8Y/w66uVSb+e2nfxv6yfPS46eYpfJi+v7bs/O7GD5QkG1xxlb2d2gHCC6HaLiY8T8HJp65HnNs0O3u/tYJqNZybdxK/qfFXUbfx2bK4NTjAxoY3/lf/1/vnvmTQnXabjv8Djo+9wsGVh3r9+vYw+7zfbf17ae8sOfJaVZeH9TW+R5rOcr7mg7/Z2bIYTtn2ek4mfHxdBjj1+r5yfOfaY5iLaqB+8v+P3Mq/1xta7juscm8Svax+LCduoye0dd3xhci49qZqcSiy4d91f/t33X0xS457sEu/2x/Ysx+4byrVFRfcb2w7fYg5uYex+c2Xnoo43nkYdO/fnW/uuy7mdr5/27T+irBfLyvHj1/sBa/nN26NlYTvWghnk+L3E/6Zu6nD8338hhBBC/GjRAi6EEEJUEC3gQgghRAXJNrv97aGdMTTvpyN70GhzVegko5rVapt1+79AL4PO3LC6VnBwDJpJFzr0426hY3eQN09PP+pajaQHjfvd5PiJZ+dCHePly4l3zV6cXVsNmzLGemXf1UBZ1kt73V3ObbrT9262pzHfQ38nPRz+op5LjYxaUUxzS+k1CVky0Fh5gLLMYQ/C/uS7eAiGregfTOOBmtQBKuds//KQG+9n2fwkdeRW5MDbfeA3trWytdtH2jw4vIO8qZGzWVhvft+xLu40bZumvteU9n9w9z+sSVKaeIrY7WXHeVn4/fvpHIMh1SasxgZz8HcTq4mvcEbCT/9mjBPuGGs8s8QzLGG9XPS6PxYDzTrRv7Yk4TmU9Fg6fkN6bPnavTRwIYQQorJoARdCCCEqiBZwIYQQooJk9VrtVmuj1pC/t7rGi7PCUcirsVUOZ9QpYO9M2zwyhO0n7cZ7WaFrt2EHynedwpb6vGcdnKxgo35x1jPpV/D8c3JSPP/2cmquPX52YtINlG2xsFoQdY7lzNo4N57Y/Hw78dbwib0XevpgaOs5HNozDNRUqbHw+j6mTB7i2h/zIic4p/AO5y980ppn9FWBw5PQAYq93x97bAFqvdTuDwc7FluZrecqt1pgzFEMHa2wnrRB3+PdfejMfTgZomcu386cdttt2oHbogTfN+vFd9FO2H8f9fLQXj3e4bzK22mLW69FHLlE7HadC89I8GxI6nlTrmCcP0wUT+nzfjtkjXh/BW2INM+VfHFm5543s+O/FT97ZO/t4/vk2Y1OYiw+hLJnGkh5Tfxh79YvcCGEEKKCaAEXQgghKogWcCGEEKKCZIfD4VZroX/zEYJlvL4udO+LU2tjzO374cbqbdTUTtY27zGifFEDf+oFv1jTOT20omETwSpoVwi99U3D6vnTqdWtL98UduCttvWr/v7y2qSpidPOm7rW9NVrk3Yt265u8vb2z+3K6u/159a3OXn3PZ1j2yTjTbAP6xF1KaqP35EXuVowAAn1+eLvQAosKRVRh0r56fbTtG/luAxtjC3sb0bhism59PnNNHVk+p8vG7TBLwufZTlT8ixtbznW+Lh/loBNEviMSJzdYAYsOzX0XcRnQUwfvwvq62G9758f9fNU4JSyGurFqHX02mvMgTzjkNKl+Z3wrECv5flCx9kMthDjYpz17PwenuWxz4f+x4+f9UidO2A9UnD8+GUpMxb47M3f+gUuhBBCVBAt4EIIIUQF0QIuhBBCVJDs4ApFgDG96d+ctt4+5ydWu72Ev/G30FQoJax21j72GbVgD+rllC26sI+ew+6bttkN6Dk5bHX9mNz0fX7x2VNbtvf2+g4+hpl2G3jiXk5sejW7+2/n3P7b/7Dl/NkfmvQhoYGW0TFTdt1lScUTj+rvB+qzKZt0mw58pfNx/4aEj2/q0DX8Txz6P7CCaxt+vn1b7EB/57tQEdqF51s77qlr7yLiL4u9wrkTaqDUDkN/1Ta/do06dHED39Vh7PFt3L98itTYK0Pqswh8FpSIB53SvMN30SdBvJ7fXhdzdFn7Zfo/GC/tWPs1zt/w3JLPIo8HTvgOscafDOy7/jL6dJyH29rbdJmxxbGQ0sT9d938rV/gQgghRAXRAi6EEEJUEC3gQgghRAUxBngTaMX9Jnyje5rZaGtt96h5M5Y4dSpqLPRnTt+6vt4Hqc/VIKFMN1YjX0J3fvq0b9Kdlq1LE7rkblfYdlMzoe/zP/njz036NeJ7Z5nVPV6ObFla8OP+7vv3t39v0T8NlHN0OjLpXt/2QVli2nLKH/mHjG2c0pWSejoKx/jSHJv+3TuIg4xjvcB5icBfeWBnCvvYiNDZaTEOtr2XPsIdtOFUHPSY/scr9KO+RL2pvzfq8Vjz9K2+8eaWHuIisP8Yk70szI9+JH4oymqiZYlVk/NxKjZ1UDaM6yBGQKQuS+jjA8bFSPhpT/Gh2zFGmT4Mw33HDz34XXLzt36BCyGEEBVEC7gQQghRQbSACyGEEBXECFvU61p1q0X4tp3URGjnTc3rAnbi311Z+2fay17D1nvQLIqa1ez/HZPc6u/zjdWKWw1q2vZdPeh744ktm28XTm3o5MT6E343tvG9z1Dv66kta3+AmN3og+HJ8Pbv954e7pxz7Y59tlbScDRwIU2dKyKaBX7TU7GHS/hZJ0Gc8pKaN+/f7o7HwSbU2/iN8NH1Zhe9zneFWmEB44GHPrzjdsO8n+1Cv+x+2VK21dSw59DEU3bFMR0zfDVszNkuD3RREB26CV3yQXnzVSVsxu98HumULfejTjHv8RzAdGXn0GAuSFTsk6E9y0Od2/edfj6y9/ZxRmUITZy+0UM3DvTNcDzOAgnOOCXm1GCuQS+U7UPzbGSOvSmXfoELIYQQFUQLuBBCCFFBssOh2Lr5GtvaxN+SYTjQ1JYZt8w/TYQjLeMe8bxn88qxRZrv7fbeBCZvZzB5W6/t/bNJYQpWh3tZmpy1212Tfndlt9R7CIU3GS/s9YGty94zr9stbV7rpt36b3dtPbYJcwvuinH7qIwrVfYXt574rjLb4GVdX/J+mkDRfSmz981W2tjipilWF6Ze+damaWbGNuZWtA+3Hdmm3M4P+4CmQHgBw3R6Zanv4tvzdexb97HNucA3RGga5DdLsCXKNCpCqQGfRWX4mKaYKZYJd6apstBc6s3MSqCUTHxTzhZMa6cNO3amGEuH7v9dB3MZ4ueamptKKg+l0S9wIYQQooJoARdCCCEqiBZwIYQQooKYcKKvp1a3oKvGQatIM6QndeYcrlFpJkYt4PwRzMzGVjP3XTdSw6Q+e7mwGjeP8vd6VkN51LOmYGdnVseezQp3pzQD4r1ZFtfINzAz+sUvPjXp6dyWfTIpNPNG9sJc68NV6mBg68GyBjq0TQYaqn8/zUxS7gkZqTKl7zE/X1t6qItJ6tCEJjO+PkvJKjRJs+kV+pdtSr02x3jxXZJOl/YbowZO/Z1lIXR3eo0QkNneqzcqzryDeu3iIT43HBAMCevVLXTTGhcOw7wbd9/4W9iHZbRmjr3Spl4fWRONwXd9flrMHyuMy0to2DPo0MFYxNmQT0d2Lpqs7PMn3aKPzodxl89ThLE+69q82X1BWFXOLSXOVwXngmh6m+h/vtvPjutWao70TdRuxrB+gQshhBAVRAu4EEIIUUG0gAshhBAVxIjB/ZZdzzvZcbvTJnSpUctq2LSXpWtUamTUvD+FC9I3nu329cLmxfCCT3pWU3m3tLpyG3bBI2jgC2gu7/rFdbo6ZThR6is5QoC2oFt++93EpH/38xOT3ni2wMulLXe/b8vdRDtsNinbzoQNozuuQ1NGSnlxTWne9y3HXe9OwbLR3WmgJfsvQMF7uHe1iWu/GGqB3Tfr4tti08UvdUeWhfo69Xhe7+N531aX/cXQpsy7cTg+VzgX6tj8Tnw9MBZK2LnwbE4wHBJjMRZONKVD8tmUfwTq7bHbU245Hwrr8mpSuL9e44zDBOcvyB79zXMIHOeXM+tqe7r2XGNjbOTbuE35YlQunCiJ9QHHJcdeitS85s+jKRvy4OyPwokKIYQQPw20gAshhBAVRAu4EEIIUUGMyPblmdWdn0Ib7jSK26kzE2oH/Szuv5a2n2/gr/zZo+J91A6oQ1LT/KRu6zVEvV48sunvERLU161p591u084bZena+3fQimi7TZ3zy+ePimvQij553Dfp8xNrk856EPYRNbiYRJPSvFPSUcr21td/qCuVjJoa6Mx89xxnHgZemMUZ7FfnsIdlaFLqzCmdq4kzFP7zzLtRP65ZO5eUfgOW0LF9TZ12v4F9OzRT2omz3uHZgEi9cS99Zee7cjplEF6ydv+QkSkdOjXOnyPOgq8783meSWAb0jd+UBakWS2W9cmg8DHxbm515mmqTROj7XoVD6vrnzug5j2GX4bNjv3FsiCdCCd6x6mJo89+TPjtp/w4+EW7+Vu/wIUQQogKogVcCCGEqCBawIUQQogKYoRpxl3tNm266cXCptZ3tbIaCu1AGwm/r/RvTltvXx04h434K8Qan0FDoSZ+2qcGbnWq2cXApFueXeoaWv2TkS3L9cJqXLQpJ2voWsyv5ekkDU8Pd865YcfGFv8CZxhenMTPKfyQlPFvXtYXOu/fbON++anP+eOH13hWI+Xzm9cDf/O2C813QU2sXoMGCh2ZefNsCMtGbXHi+UZnCzO+N99FvZZ5U8+P+QTns4eDfZZ2w7yffrlTv1KittkJrZeaaQ/vvhjZDqbP8bk3np4N7b1t1PPf39gzLaG2H0/zjMur62Kuor/xh5Jv7XihHu/HJ6Cf9LczW5Yt4mq8niZEcMD+9dsl5QvjY0ri/IZS+P1387d+gQshhBAVRAu4EEIIUUG0gAshhBAVJHOHw60g9fLa6re0t9wMCy2C8aFJDrlutrG6xrOu1Wtpi0n/5r72SM374tTm9Xoc18QfI/4s9fom0o8Hx7Xkp32rWzHmcr9j9Z0lfKOPuvZd54ij6+uY663V8v14vs459xzPThNxsEnKZrkMqaxSOnbselo6iuvS1LGpz9pnbV6+jbhzoS02NbXQrjReNn/8hLoy7cLjAh2vs0847n3YJr2WrTdt56mv8jvYbKHH8pvz9N6UNsi867X4/SnP2R9w2AcaeBtlpQ2zb/t90oFv+8D+2bbZsB2Pe56Ctv4xyvpe6Lfj48WHZxp4hmG6pq+FeIeV+VWa+j4/NGZeO5RrVH8+UDxwIYQQosJoARdCCCEqiBZwIYQQooJkB1fs+n92YjXUETSZ03ah9w6bVvvtwY57kiOGK+wCc2hsb+bW9zl9rfu23NS0qXlf0E4c1788s3m/6PdMulW3/9d8c13YX1KHetKz7UC7T54rqNc6uG7rfda12lHvUVGW65XN+3HP3juETjlqwci4JA/RoRsJeSf1vN/MZeN/E/oB4PkKas2+nlurxf2ND6BDLnLav9IWNx7r2tf/qKcHmjbKwjjaMW3/rvyNfSzuZb2oQ9NXOvNmGx8Ck3Y/TrK9Rv11hbIk44MneMjZD8rvl/ApvkXe7+d27vK7/5uxzYvdx7MB46XNK2XTHItNnhgqd/RJ/F3UvGPfMH28X6/iNukL+oT/uLJ1KVJj14fzK/1X3McGXb/AhRBCiAqiBVwIIYSoIFrAhRBCiApiRNMn8BHey6y+d94r4k3TjnMO++bl9rgfdeec28C/Lff73y+tdvysXujWPeiO1MSpeVMTZ6xalmW+oU51f3s9ah69lq33GjaM1BJpX+/7p79a2HL1kXcL8aJTtvopysTkDmJuJ/SdMqTelYI+xZmmXbivNVN3bELcZ39yrFAbpo7Nuvl257RBZ970lc2yMl7BGmWZQEON1RtHUtx8ze8X9Uab8hNiO+y99/FZ2glT86Z9vDvY74Da8Ie0+07l1cnu/xuJ8SL6Hfssv//UtJTSxBkToMyz+8T3nGpzv+ys1z7xgdOXRtmp5UOer4nlnYLxwMNxnNbE9QtcCCGEqCBawIUQQogKks2m09vEcjbFVbsVNd8XJhI17BUssD232Fhzig32KrJEeNENtoNn+8Lciltq3HJzG2tONanb7fjV3NZzPrP3L2cLe7+3Rc9yLvYMF2jLssI2Jbdcc2wfrSKmX+sF3LLClG/RQChL7FtNJlYiWS9mtiw5TYG8vxO2GinzCW6hp7b3Y1tRZbe9ZtOJSTf3th1mCIUb20rewiSN2/GE29bhFjpcinpbrtza59ZxntEkzb57hpC8raDe999C3+W23gzRypcz7G5qC92XklJb6M3EtnR9Y78LjvMNvsGHmJGx/8gqs2XJ0Sf+46savv2mzTtHqGK+ejKx4zz4vmF+9ZAt9JSsWGYLvYZ1Jt/EXbyWrjfGk3VJavNK1ZvjtmyoY3NvYgs9ZlaWL+e/vedHZUUnhBBCiPuQjcfjUoe0hBBCCPHDcTgc3HQ6df8DYkQPFfYiomMAAAAASUVORK5CYII=;rotation=90;" parent="1" vertex="1">
          <mxGeometry x="496" y="428.78999999999996" width="190" height="24.51" as="geometry" />
        </mxCell>
        <mxCell id="jz31EccxVryN575QA1fw-47" value="" style="endArrow=classic;html=1;rounded=0;fontSize=12;exitX=1;exitY=0.5;exitDx=0;exitDy=0;" parent="1" edge="1" source="8WZBJLw57oJNSU06zkzZ-9">
          <mxGeometry width="50" height="50" relative="1" as="geometry">
            <mxPoint x="542" y="442" as="sourcePoint" />
            <mxPoint x="561" y="440" as="targetPoint" />
          </mxGeometry>
        </mxCell>
        <mxCell id="jz31EccxVryN575QA1fw-49" value="" style="shape=image;verticalLabelPosition=bottom;labelBackgroundColor=default;verticalAlign=top;aspect=fixed;imageAspect=0;image=data:image/png,iVBORw0KGgoAAAANSUhEUgAAAGwAAABsCAYAAACPZlfNAAAgAElEQVR4nO29eYxl133f+bnbu+++/dWr9+rV2lXVezW7m2ySTVKiTEqy5DCc2JZiO3YSQJZlYWDDBjKYwQQDOAgBY5L8MUBmkEngJAMMMGMpyqbIVihH8SJSGpEi2WQvZO/dtXRtr169fb/7/HHeq6qurr26ZQ8wX6BQ2333nnt+5/c7v/1I//uffOCrwRDzVZNv/Ol9lq9chkYRRp/i9dfPk4kHyVXaXLmep7hSwlqchkaJPUOSHv7d93f+/1bXHAS7Pfev+v0BtACxsxfJZBNcPBbl//z651DVYIiLEyOcaNv0J+Nce/kk33/7HrVSjXgiQcVyaHkBmm0Pu9FC8jxQAnt/6E4vthWxNl9zUGz1XEl6Mvfe+IzHgd79fagvLNNsuti2C4A6XzU50bZJGBpT/VHihorvH+XDm3luzpXI55t02ib1xUVwbZCVx/fiP01sN8l/laB2GcG11xeYrOA1qpQLCgDKfOpn3xgf7yOsKWQiQQxFQdXAiBg0LZdCoYmEhOmAEo7gyQFoVUDTwXV2H8ROE/WkxGHv3nsRvwe995OAoop7e+76cyQZrDZmvYY7+xbq8pXLXHv5JHFDJaDIJIwAJ/siRAMKEV3BtFwcx0VWZFr1FvXSqrhJ76b/X8KTlAqP496u8/BiUDTQw+LngOA+lUaR7799D98/SnPM5WRfhP6QjirJBBSZxUp77fPLyzL1YgyqK0+GYI9zQn8axPlpiFnPhYCx9qvK6FPUSjU+vJnHCKhEAwqqJNMXEhR9cTwOgCJJdDouy4oibuJYe3vgThO330k1okLOhxIgSciROJ5lohoGju1ArQi1VbDau9/rLxNGFEIJ1FQWRVMwGy1YmRbj3rzNuDbIEdRgABNQX3/9PPFEgptzJe7lakR0hYAiA5AMBRiKBim1BXHqdRMaFfC9J/9SW2p5MkgyyfEjyIrMiZMZyuUOU0f7mF2uceV9Ga+68vifvXEM212zV0VMkkALYgyN8uorJ/F9n8uf5FhZnXv0WscSC7C2iuMKGqiZeJCK5ZDPN1lermNaLouVNi+OxxmKBjmajAANbNejWqqLG/xl7F+SBK0qAOWPPwRF5br5FO1mm0gkQLVq4tVKe+f8g47hsNDDqIPjJNMJ0rEgd5aq5Bfy0K7tieBqrtKm5QXotE0URcFx1okhOKvB0WSEv3thiI7l8meNFs69y3vTEB8nfF9oUVqQyMlz6IbO1FQW03L5zOk0bcvjLV3lxjsK5O79dMe2V0T6UIeOcv65ScYGonxmMk5IV5ifH2Rx+f7agtwJSmf89TcezFeoPpjHdMBFwZOg7Uk8KHf4ZLnORF+QoahBf1xjxVdZWOmA2XqyRNu4mn0fQnHITBIdP8rEsQGygzGen+wjoCmcGwrzTDbOcMagEY6xeOPu4aTAmuH6eJULbfIs556d4NWnskz2G5zqixAJyhQcn4JlYFYrYHe2/rDv4uY/QnGP/Owb7WIJXBslHAEfLBvqHYfpBxVu3cqxikx/XOOpdJzhlE5OMVgq+1B5DPvFTugajgTD6JNTjJ0Y5diJNBPZGKlokGRY5dZijbottN6BiM5AMsgP3v5k+xc/zFh2suv2IM5Co5MMDicZT4d4UDIxdIhoKscyIaLpOFemG1DJbf3hHsGk+Jk3pHYNHBNPDmCVSzQaJqv5KrX5ecyFe8yWfFZ8leGUztlMgvGMgROPcffDT7ZWQGSF5MXP0lmc2ceMbIAeEpORHBK2SDzD8LFRMpkwyUiQvojOUrnF3eU6167MM59r0lYUhpJBxuMG7xY06jN3D/bsTe+BJO9MjI2E3I0Tk4NUayYV2+e9D+e5UzSRghoXsjFOpMIUAgFmLl3d+rM9gqnJqTckzxPqY6sCnQY0y4J7WlVByPIKCysdcorBeMbgdH+cM9kI3/zx4rphBxssdBk1PYyVe7D3ydmIgUmIZxg9ewpCcWKZFJOTfYR0DUmC2VydO3cLzN1foX33Gs3lBaZXHHK2zGgmzNc/c5RvvLMknNiHgRoAVRNfvrc7F2UmoFnZ9t+uZdFZnGF5qUpn5gb5xSKzNRk9GWI8GeRoJsR3v/vjrT+8RrCBZ9+QZOGnQtPFoHxfaFs97vE9MFsslX2ceIwz2Qh9RoAvvHyCV37mFMmTxwlNTNII9ONG00SOHKV+/ZJYBAeBY0GnQa3lYZZLtGpNCqUO6Wyc2QcVEokg0VgQ15eptwHPQYsniSYihCJBJvqCTEyN0RkYx0+N0X/qNFJqhA5BiPTtnZAb9zLfE9y+WaJs5qqdRLHZEnPSrIjF3anTatncLbi8O1elZPssmmFsX0MZOoofjAqG8D2wO7grH6I+dMOdDE6rDbNXefNfXOfN/3iUb/3jX2YsHiKhBxg6Y7B4JMY7A1FylTZnRxP8swdzsDq7t4nZjHZdfN+wWtuL8M6N98FzMV99DUmCpelFKC2A1cZecpkGFEXGdFyCmsK5iRSSJCHLEuVCHSrL+1NG9LDQTF0H/LZY0J4L/gZfX+/7QT0rxXkqxXkqQOXlLxIMBWlabVy361FyLDH33furO99tC7gOWG1W2yYJPUDc0Ch2TC7NN7h0I0+93sEIqBBNHpxgOz0b8DwPRZGRFAXftcUkmk3scpFyuZ+VSpt0LEjU0AgFVRzPx/d98fmeNNkJPQJ4btezEhc/Z4/B4q3tF7aqH+r1Vu9NQ70gOLGWX9fCJWltceyfYACtKu/O1hg6Y1DsmBzri2Ad86i2LHLlFudGYjz326/w+/8cmLl8qJfYCvmFPH6nDYU5sE3xR9sEs4nruBxJR0iGVGodl2bbplYzqZVqYDZBC+7+gB63hOKgh1EiMVw1QCKdoJJTH76ux2WygjowhlPLH4zbQnH6xo/QrPVjzt4U3L2RaF0cjGB2h/vLNRaPxLg038A65jESDvEbz49wNV/jaDKE5/ucfnqCmwclmKbD6BRMP/p5f/m+2CscS2hxIOS8ayPJEi3TIV/tcHeuzO2r02BbsHRLTORe/Iw9ItRWQSrgFmVwbSq2KVb/5uu6z3cae/NWbIVf/Z2/xVAiyAfTJS4pMqFoiOI9XSh+GyL8BySYya0by7wzEOXSjTzVlsVvPD/CQCRIst4i3zIxHZ+bb793oNv3nrEVsQDxEr1Y0abPtBtt5otNisU2d68/gOWuen+QiLNrr4eSJAnKSzvvgfXC3u+9CZIk8dRAiJbtMb+QQlUVGv0DmAUEwQ68h3XRrDXJVdrU6x1y5RZX8zWS9RYXh/oot2y+czsvzIMnjbVVLoPZpHbjI664Lp1mB2/+5jpHHdRb4Xvrn91IrK2c0/WDmxHf+g8f0P75Z7h8I8/c+x+KZzWKD+9jgLzDPbaGrICsEIqEODua4MLZQV49neFoMoTj+ZRbNnFD4/Xj/fzib/+aCCVsRChO+PzLW2/+vc21+4y1dITt0LONemo3QDBKLBkjmUlCYlDsWWvXbPK27+SV3+pr8zWbfz6EC8ufvsw7lxZoNU1BLKu15TP2zWHJ51/Btmxqn3wgVPdokud++xU838d0fL5zO8/rx/tJhQJ87flRosbf4Y++f5Pax+8jj03x2mvnGEmFeHsiw62rMyABxSWIpxk6NoYkSfT3h5BliVrNZOb2At7K7HoMTpKFcb/2Mj1bsfu7orL80YfgmEKsbmUXBQyUI2dwLUvsSftxFitqV7XfREBZgfQ4rNzf75SCohI8/TxHj6VwXZ9aaQKz1YalO4/sufsmWPm9v1j/ZXUWVmf5/X+OUDDefg+aZXK//Wt87flRUqEAX54aYCwZ5MMXJ2iZDkN9Ieodh2q1A+VloTabTWiuZ2JpmoIsS2iagtduiT1rN0dzb38qLe5ua1lt3MW760lFvc/D7nuct8kGW3u2J/a4vWLj81yHzmqeG5/oOJaDuTQr3nnjYltT67cTDfvZnGcuP6QNfucP/h1R4+/w5akBBiI6zw3GkSXI1W1cz+fj+0Xi8SD59AihaAizPUisL8aFp7LU2zapmE6jbYvULs9d3/Q3j2urce/VMO5dt1E07+WdQyICT7v+sNdDksGI7a6Fbhf4LMxRdaz1uJ/V3lJs738P2wvadf7o+ze5tFxlpWEyENG5kI2TDmvU2zaffDRNs2mh6RrJ/hiDYxmOjPdxcSLOkXSE4YTBQMJA19VHCbDRu7AZe91DJElwl2M9zLnKHgROJEVg7CRE+9f/Jitirw5G9vb8LcfjQHEeCg92JPqBtcTdUPv4fT58cQJZggvZOAMRndPpEK7nM3gky+njKdLpEKOZKI7rIcsSUV2h3rEpNUzuz1dYmCuIl9jqBQ8LSQbcDf5Sf2/c2WlgNQ3wNhC6l75gHJBgGxGMiIW0TeT8iRFMHpuiZTrk6jYfeFVOp0McTUYwVIXWZ49SbTvUWjZty6FUM6nXTXwfrt3KI8sSC9M5nNLK1g7kjR6Gg2CjVrlxNe9FJNbyQt1+SIPzRIg/f0BXXO9ewQjEB4Q51Ko+vBV0oW6psh4WoTivvXaOoT7BUXfzTVzPx1AVhqIGnzkCP5qrEAwoNDoOjYZFp+PQthxUVSYa1ekM9VMLBmhtp0RsJtp+32HgmNAka6tismFv+ZbbzZes7I1DN5sAvd8jfehHTpAdSVOvtSjlSjB/fZ3Tutc9HF55TAhPPc/LF0ZpmA6X7xZ46wc3mC5ahJIhkobKaDxEn6GQjGqkYkGScYPhgQjPTyRIJsOMZcJ0fB81EKC0XHjYHbQZmzktOcRrv/lL3JurC4JsFccKRgiPTZDIZnACUdxAVIRdQvHdjf1wAm3yLH4sA5W8uH8oTvzc82RPn6Q6fcDAqdXG7bSpmTLtQhEWrj+8ALrxsCciEpsfv8vbExmq1Q7xeJCRySFOH09RbTv8aK7CK+MwFDXQZJmr+Rq1jhjYjeUmAVWmULOYm6tQr9SFzbVXSBJoOreni2RPnyB3pQle+dEYVizN8FiaWEzndquDoiaJxCNIskS+trpzMkyzgl0poaf6MdUAeC7q6AnGJ9MYhsYWyWp7R72Iv4u3RF170c04jJj0XGEUl5fJp0fQdI10OkStZRMMKAzFNDRZJh3WOZ+J4Xo1lmoWuiZzd7nGB+/N0CxXoFYQtsh2ou8RW8iH8hLTH/hCAagX1hUCWCdceYnp2/3E+mLUK3W0gEY0FiSZNMjfSe+evaSHCMfCmKE4tGsk00kSsSCtzgEDtvuA/MTSjSVADRCKhsgMpRjNRImFNCzHo9ByuJqvsdo0SYd1nh2M8fRQCIBWx8HzPDJHhgkMHhGG9VaLZ7txuw6oAfRIZOsIMYCioagKqqZihA2iySjZbJSpI0nkSHzn94oPMHlmnJOnBogdPYl+7Bxnz2Q5N5YgHjlcPGwveGJaIsUlMJuY7UEkScJxPUo1k0bDYrVuU+u4uF6NZwdj9Id0fB/yMYergG3ZNGtNrPxS1x21iZO2Q6/yY3UWs154OPwiSYDcTXdoYs7cJJ+LgaLSbiaYjxh4no9X3z4nAwAjSjgcQJIkmrUmbrPOSqFJIhJgpdA87KztiidHsHgamgFifbE132C9btLpONiuWPVLNYtMpIXvQzqscyEbQ5FhLB1hpdpmNpNg/p26SBXYLBZ3IpwagNgm0baZSxUVYv0EggF0Q0fTZBoNa+c9U5KYvDDFF54ZwnQ87t7po7QC4XCAVESn0hc6wETtD1sT7LBqviQxdGwMgAtPZbk4ESeqK/g+tC2HqcEwN5ab6JrMlaUW+ZjDhWyMdFjnbDpGVFe4VxDiZf7OmLCVNqm3WxKt97dElvjQINVGaevyXkWDcJJgOEhAD+DYDqu5Cp7r7Zyg09WmCw2bmXyd1ek5KDzgeji4TvAnjIcJ9hjtMak7mfW2zb3VDvWOzbVbeVRVZjwTJaAKBaPVEWJQkeFsOsZAREdXZBJBDcfzuX1kkHy9KByrex2fHiIcC1Htlels3se6nv9wLEyyL4JlOZimQ7vRFkTZ7GjuF4vv4l//NIN9IaayIdqWQ7Cvj06ngRbQiBkBkcvyhLF/w1kPQWpUTGAvu2kzJJn+/hCappCK6cQNlVLDFO6nqI4qQ6Fm8cF7M3ieh23ZjKUjRHUFXZFJdkudzg+5vN0XJr+dj267cfse1VJNiEZNf9RnKAG2STFXpFaqYXdMqK6KqIFtis9F+1HTwwSCAV7/4hRjKYOpTIi37le4NFfj1lyZTj4HlRyVGY35sRTZdJjQ2U9hdSycWllEDnxvPe/kMWDnJbGVyHEdkVi52djW9IcGJssivazRtqnoqvANTufoDPVzJagyN1ehWa6QOTJMs9ZkpdrmXkEnEdQASBgaw57B0dE4ty7rW6/8reD78OATmjvlsHquSCGrrrClIu7a0Kmjh3T6B5LMF5rkqx2alodpeyyVWyI8ZLYEQWp5Zu7mcJwMsb4YpZWuKN7oD9wpQ9j39+wp2R8PSxLEBxg9Oc78bR7Oct2UMFOrmWiagm271Fo2C3MFnNIKtWCAYkQXRnGtQKUQxsovMZtJAOB4PueHXIY9g3RY5zdfGGNqOMofv3uU29/73mNdrdvC9yEQIpVJMDAQIR0PYjseQVVisdQkl6tTWq0Iv2J3ETu2g64r9PeHadVbWIq27oXf6v6bNd9IXzfTeud9cH8EkxWwO6JOzNwUAtiYMON7IlLcbq3Hs4rz4Nq0Sovcm+0T2pjdwWqWwbGYf6fO/J0xbh8Z5O2+MEdH4/zmC2MMRHR+ZqyPE/0h/vuFErUP397XkA+MTp1Ox8bzfEoNk3JZBBPv3SuyMr8iqj1hLVRj3rvKHUXG6li4C7fXtc2t4l+bIXXNjcfKYb4vam0jfeiGvt6iYJtrvZXZdY/zRniucLj2Bm+b4nuzAlabfL1IPhjh1mWdqeEoPzPWRyoUQJEkfvdXn+EfVer49z/a87APDEVDkiRc16NctlnJVWm3bVbuzohIe69IokcAxxJKi9l6WArslu/h+6CqEMvsrT5sV+dvT/aG4uiTUwwfG2Vyso9CqYOT3yJW1YOmi8HvZuhuDEh2881pFKFepBjKcm4yQUCSSRgamVCAs2eHeOu+g1fcRzh+v5AkcEyatkah0GLl3izt+Wkq8/Mi3dt1RDxsU15iLwMZcw8GdG9egxH04+c5cW6SwmJh+89uWQyxEUZUcJTdEUZmZpKxE6LkJ6RrpLNx5q/d3Nr1AyDL3by+A/bp8D2K0zO8PQ+DYwkyoQAJQyOkKnz2hTG+e7UmFIfN9xs6Kbj1MCZKb1zNMl4lL3yS9gYlY7tod2+yd3rvXlYYvtC4h08wdX6cyZE4d24siAqirdAl2PYpAmpgXexpQaKZFENDUfrjBqoisbRU21nmrjlcd+kisFW6WA+2Se3Dt/lHf/BDrq2u+x4Hw0G+9DcvPhKS73vxc/zP/+Pr63kXB0VvXMEIhJP0iuG3HffGsWv6w9coqphHRRUE6l0nK5CeYGh8kL7ENvbiFtiew5JDJI+foFMuETn1NBPHBpjIxuiL6Mzm6iQSQdzEKOEjR2mpsUdl92ZtZ6es290ycsvLvHXf4bMvjKFKEn1GgCPJILXMCPcLkuC0sad45dXTuJLM5R9f3V6bHDxB//kLtFxhPhAwuqVVWzzfEfn6e6oN62FzWp3viWe4drcSxl6PeDdK1HMrzN1b5s4nc6ISZ1vbcrd4mCQhKzIoKrqhEw4HUBWZB4UGD+bKHBnvQ5JEeY/fae8tDLJT2ekuRHPufMDXf9/kS3/zIr/29CAjMYOvXhwhmzC4Nn2csxMpdE2m2rJ3XKlyOMrgUJxKIYbT44ZOY/uo9kGx8X16yT16+OFgrOcKRWMPykYP2xJMjsQ5cTLDdfMppqayXBhPElAlpnM1aqUaSwGVpelFJEURVSSbCxM2Dny7F9lO5d1uouau8Z/+xTStr/0SX704wlg8xMsTDoOxAMWWg+P6vPWTuR0j1J7j0GxaOLXuRPnew/vS43DPbc7sCiXE/IST6xryAbEtwTxL2B7tZhvTclmpmSyVWly/toA5/QlLtSNQWhD1Wbb5aBiDHeTxYWJwnQbf/95VsgmDlycczvTHyBg6fzFT4r9eWyT/4z/beW9tN8gvl4UY7YmnJ913pNfq6THUGmxLMNUwmDraRyQS4DOn04wndX6iyNyKhGhIklC9rfZfTpOV2Stcmz7OYCxAxtBJh3WeyoZ5Lx4UWUc7ZeBKEqrW7Zr202px5FhCyYj2H5rDtlU6vPgARiJCpdLhSDbGM9k4gQC0FYXpFVFT7HXa6/aH7wE+IK1v0rulHhyU08ae4ouvnMLyfBZqHSTZ50x/jJH+IAtKlNzN29vuY/rYCV79zHGKbpi213MM292xPwb0VHYQe1ZmgsSppwiPThDPpGjMbpHHL0ldDXIH5WZXO0wJsFI0Kc3M0tSjDGcMBiI6Q8kgOVsmmohQsxQ8FOEM1nQhFrfyhW1nt2yX8rUdJIm+lz7PK6+epi+q47g+b19d5ka+yUh/kDP9MYYzQf5ixt3aqE+N8g/+3s9xdiiCHg+jxKLYRpJ2vbm/ZJ+tEB/g+V/5G1T8GHa7q4QNn+LouWMcP9ZPqj/M+HCce1duP+pfnHyG3/+9X+adOQ93dUH8rZvgs4ZdCeZY+JUVaBRZLVs0wjEGun0wRjNhQpEgbRTUaJxQOkNkaBglkcYsFyGSgkhyU5XJBiSHhHjoiaQeN/Q8H9tx3tBJfu+//QyuJFNr2/zpj2eY+9M/YWG2wIISZTgT5OlMAisW4srHi8J4V7S1RXTs85/jSxeGiAU0bN9H0VR8TaXYBLdWOnjXA4DBY3zjdz/LpUILS4vRViIcOTnG2EgcVZGpNyyWVhqU791Z98xLEqgBxp+/wC9cGOIH11dpV2swfIqXfuEVFm7PrvcKcS3c/EdI+tmv+9JeevhqOgQMhl74FP/H11+g5Th8+3qelUqbI+kILdNhvtjkyodzxJIxUfKzTWe1137nq9yeLjL9wTWxklZnxfdEdl00PPjk0Q/KynqBeLcVxdoqVFSMqYv86i88zdeeHWGm0uDSYp2rDyq89c03RbgjM8FLr7/EvbsFVq9cWndM9/LsD6Mhygr9L32Owkc/EffyXLFYNhYDDhwTSavxfnhwHTQdaeg4F18+yWvns0wXOrRMh8VSk8lsjJ9cW2ZlqURjaQk/dxvz6r9EUbPPvSHJ6u6r23PB7lCfucs33lliYmoMy/UJqDKZWIDlSofFXIP8YpFAMEBr6cG2PSvuzdXRE0kajQ56PI7brIuw/vAwqcEUHhL2Vk1ZejXKtvnoBPseTn6eKx8v8tlXpjiajDAQDqAHFRLHJrm9ZMPSHRZWTFo33n/4Po9DcfJ9WvPT6/fzPSH6XFt8ea4gVqsqKjV7i6RRoeyEKNhw9Wae23dXmLm7zFKxw8LHN7GWpte0zEf7dOx1hS3f4c8+foZzEymihkat43J3rszd6w/w5m9SqA3uHLeqLIskz3oBsyeyWlWqjZII6+8UCdgNZpNLi3ViAY10WOfpgRgA1b/2DG/94TzhTIbm8p2D3/8w6InBtepSeS23RJKgnC9jLj8Aq8WqObJuDmxwix04CWFxsYYkSYSCKs22Lar1l++KlVte2rkjjG12M3L9roekO6Bewox2iPw+z+XqgwoJQ+XpAZEjckGK4fk+6ld+kUrdZLt2Tk8cRkwQINInmoDJCqgBXNulUulgVrtFfJ4Lrrse1d/ASAcmWDCoIssSjudTq5mitUIPu9k3PZGx2akK4u+HaVLZafDWN98k/ptfAuCCJLKxnhuME1BlvvvR8sHvfVg0y+t1244lJIljYVs2jbopFmyjJP6fn95SSq0n4ezTJqqWm5QLdXzfF01Len0wDmJbbfYjHrYPY6PEH337Pap/7Rk83+e5wbhIC5fgxmCT94ORw6vxB0FiEBIDGBGDdrEIgSCyqiIrMu1mWzibe9CCgqCb9muh1veck/uY7A5BzIV7mCuLIvy/X2JJEsLA7BrbaziEppYa5djnP0epYsLSHWZvzhEYG8cwFGIBhf6Qzsn+MPbYONc/uv1k281uOb4RUiMD6IYuugW0aviVFax6HWtpdkPZkyjqQJZFoLTb32rdDpMOUG4U6RMP6LH4frlC2kyk3tceMHgCOTsuSn70CERT6GMn+Ad/7+f40oUhcnqUhRWT8Ngk0USYu7kGi02bk/1hEobGqXSY1vAYdwuyqBbZrCXKivBSBCNCRO+19msnKCrHf+ZTZAYiDAxEcdAIRGOEsoPEBgfRUgN0anWxnWi6MHEkES0hYIi2TI9oifvBbppWwHi0qcnGSsNYWignirYeqVW0rlbEjhPUP3mEwaE4zaZFfrmMqql8+oVx+gwVTZa5d7cAy3doLt9ZUzDeD0Zwf/dv8+sXhkkYGr/+7DCvnU7xD7+ZYfkH33v4AUYUBiZQNVV49c3muk15UHHtOlQrbSbHEsQMjdnZMrZlEwgG6O8PA2Eq8ymh8tvmo+0jnmRBH5KEMnkev9NcNx6Vbi7j0CnCYxNMnDlK1TPQ+rO4jToEw13DOSy6ou2QF9FyNUqVDsW5RazFaTqrOYpuGD0exvZ9/su//ZNHFR/H4vpHt2kNj3GiP0Q6rKPKMkuWy53Ltx4mhB4CI4YWDOBaohqGVlW8w2G8IclB2rbPSrHFg1uzWNUqtgexRIRk0mBhvrx9W94nWdAHovvm2st5LtDlGMckFAkRi+nE+mKomiqqSGL9BMNBwrEwxVxxWy8JAPWCCD62quIZVpvSgyVuzPbh+8ntubPT4I+/e4XXTqdQZBG5/o2LI5QaX+adP/y2ILKiYkycYmxygGwmQqXWQVVlrn4QEYcC3Lp0YC5rrq7SLBRBUUQ5LOAUAtztmFSPDEJ7d0XoyXAYCLFitbocJosNtOsFcAJRKpU21WIVz/VwWi0CsRi6odOfiVOvtvAKi9vfO2BAKCZSxR1LbCuU8DwAABMiSURBVMyOhW0k8TWVpevbKxR+vcilapgly+V4OkQ2EuTccIz5aJb5W7Pg+ySPnuDsqQzPTyQZy0Q4OxqnFQiQySZYujN38GTWTqN7cECBtf3adaBRpNn2RALOdibRrs7fw6KXqtxrk9fjNsfCDURRdB1JkgjHw7Rtn1A0hOu46IZOeaW0c8duxxL3t9rr93Vt2vWmcOQWduiG47k0Zu9y5/It5qNZzg3H1og2eP4Us3acn3t5gtfPpBmLGZQ7NnFDZblmYzoeC9fvHpxgvZZHGzVqSQKv24XA2qGW+0mLxLXBrD3wYb9fJB4hGguSzUaZjxhomsxqroJpOqIwYSds7o7TvSeVHGa7tjd13Wrzzh9+m/+FL/M/fO4o2UiQz0+kCL4mc2EwRlCV+dGDMu/dK5GKBZlZqFKptB/24MTS64a/a+/95MKtUiP2qIU++fqYXqpXb3V1WytIskQyaXA0G8XzfBoNC8/1utmzh6hk3KnjwGZYbd75N3/MD4/+Op+fSJEKBbg4HEeVJX70oMy3/nyapdkcmZEMlUJFhD563BWK80//yVdIBjVajsud1Tb/6z/8l0/ctnuyBPM3yOkePBdW7pOvrZK/k+ZyJC7KVDsNkXYgK3sXOYdNmFFUcCy+9af3CL4mc3E4znDMIFfvcH+1xeLMMt7yfZab9W5tQPc99BCRk+eomy7JoEbb9kQnhKETW4eFHuO4919utNU1+21y4vtr6V2PBPK7ReVrCTKbx3JYIvX6QkkyxsQpIvEIX/jUES4MxlBliVy9w0AkyC8+lSFXPsW9e/3E4wYLsynapTLkp1HGpnjhhQlSIRXX96m0HTIRjfMvnebq/PXHk3nVw6b5PTyHPe4uOiCi0Z06BELiu6Ktu20Oi4ABAxPgeYxNDnBsLMHnjiXX9qz7qy1+8akMJ1NRvvbpUd7KRkkYGu/3GczPJ1jSAmRGMqRjQfINhwflJpWWxdRghJNjSa6Gk/s7hXef2F/1CogV2tuT9LD4HooLdfUwRuXGQaWH0UM6qUyCTsdGkiRW7s1B7q7wkrSqB18oagBVU1FUhWwmwvnROGFVXduzFmeWyZVP8bVPj4qzZsIhWo5DOCBzPWHg+xCPB7Fcjw/nqty8X6TTcVDlISb7QyTPPP1wT8nHgQ3S62Ac1jMDennjehikwnqd0yERCAboH0gyMBDB83xc16O4HMGR5EP3hsds4tSqOIpGpdah43h8nK/z3r0SS7M5vOX73LvXz1vZKMPhEMmQhtSG4/0GddNl9UgC3/exbI/lYpPl+QKWafFgJEYsFOCVT03wnUP0pt5N9O+dYD1ZulH9dB0IxUVf96L8qKp9EPSP8foXp5gvNEnHg91iOlvUDLv2enebg8L3hRZqxEQjMl0hFlRIxYJkRjIsN+vE4wYJQ6PlOEhtUb5re0EuDIPl+jiuTyai4fs+uXQCVZV56kgfx/uDRALy7rUCu41vB+y/ZNb317U4XySSuj0l4TF11RlLGeSrHWzHo1zusJKrPr59wbGE26te4OoHEVRVpi/atbMKFSjOszCb4v0+g3BA5ni/ge0Fhe9Rkvn0EYl806Jle5SbFtVSDVVTyZVb2I7Hf/7BncPv6zvM484E20776x1xoemQPSZOTLDN3fu67zZIWeHiX/80U5kQTUvUFAO02zbF3mLxH0PCDICsoGgKnudTbphUKm1hZ7kO7VKZ+fkE1xNCDF4YBlWSSYY0fHxsz2ex2qRYbNGqtzAiBo7ncy9Xo/STx7B/bdaON5Q3HVxL7GUCLd4Sx1tsTDmDdcUkFBd5ip3GehF3OLFe0B4fACPK5IUpAAb7RGsF0/ZYLDVFTfHdmX1VeOw+dgdcB/PWJT6YuSn+ZnfWJUd+miUtgO/D6pEEluvz6SMSPj7xoEbdcii3HG7/6H0oLdKUFX4sSTzz7JHHN0Z4tHCd7bq57YWle6t9O2flBuIF+vpF29VuJ09t9AR2pQR6iMkz44TDAb7wzBCFhs1UNsSluRpL5Ra5XF0UgK/Oru+Pj9OMcJ1HF4IeQhmbIjOSIR4P4vtiz8o3LWzPp245jMQMXp6I8dHnXuKTN78P2WM8+9w4IX2P63+/8/2Qlrjfkta9DGajg7PdDX97ztrAHNtBT/UTjoUZGIggSRKm4zGTr9O2HG7NlalWO93WCsVHE3WeFEJxIifP8cILE6RjQnW3bI9MRKNleyxWm5RbDi9PxHgqHee3vjDBN+M/z+RAlBOZEFfnt2k0sxlbtX3Y40LceknsVJ+7nfdhC/YV/xONRx4a78xVTDWAGYpz3XJo1prcvdPH6vScaAeUz60fybT5/o+by3qIpfmn/+Qr1E2XVEgl33D4cK7KcrGJ7/uUmxbFYovbP3qfjz73Er/1hQnOZ5KoL8rMlDrMlkw+urnHM0F3mt8eDq3Wb7zpTgTaC3re9nYNs2PiNuuUVoDCAzqd7sGdGytgHpP2uSMkmWRQIxnUcH2fB+UmN+8XWZ4vkEsnqJZqtOotKC3yyZvf55vxn0d9UeZsOo4mS9zJF5h+6+19ibcd/77Ndfsn2FqV/w5ZUpurUmSFtbpegFAcdfQEyXSSs2eyrBSahMMB0RUtoFGZ0dbPznpM3pO9oOW4tG2PStuh0hKNoy3TQlVl0QwzYtCUFcgeY3IgykypgyZLnErFqB51+E+DR3fvIbJbGdYui1NRMxdEbv3mD2714e1Wz8aaqI0uLLrhlF4LCdcGRSN+7nlOnB5mdCTB2dEEgaDKxEAUJRLk2HiKYH8/TTmKnBzArRYfLmvdaQXHB2DwmIjo7ldsajrHL5xmoWJhaDIDMZ1QNEi4L8KLZ7L0pcKMjPaxYkd46eUTPD+RYKlmc22pjqL5XBzs4+y5LNXMOAu3ZnYPs+zHWQ7ge7grHx4gzU2SxGmqAIGg4JaxU3h6BPDXj6DITIifw0lR4xtPrzVayZ4+STJpYNkuddPlwXId0/Wp1kyCQZVIOICkamSHEtT8ME4otd60ZAc8/yt/g2/87md5c1EWhQn7gdXmJz+8wuXpBnU1iKSqTPaHiIR1jvcHado+uUqboeEE4aBGqenw7rUl3vkP3+O/flzl7LksFwf7eHYsTn1glDszFfHusB70VFS2TeXriX41IBZ3Nyt4DZ67z3KjnbBfRWAXtg+d/VS3k2mYm1dnRXVL72xITd/66F1ZIfTUi5yYGuLKH/2X7VsD7nV84STJM0/zyqcmOJIK8X+/eWNro7j73i999W/zP33hOP0hndWmybXVOg/KJj+6usyt73xbXJvIiqiDbT5spiiqyAo2m9t6dHzXwvz4Xz+mAOZ+xc8u11sdi9JKiVa9JRpt2eZ6fGyj3bdJG23N3uFBKHj4qK/vQ6NE+b2/EI7cPSzId//NH/Ovor/C118YFY2nZZnhaJvL9zd0OH2kBzHr1SzbddjZhJ+SgbM/OLUy1vxdavduCQ9JT/HYTTNtlCjlCo+/UH4vC7LT4D9/6wdcW61TadskDI1syODYUEyIuB56GvJG2N1CiD1E2p98TsdBUFp8tJv2ZmzWtvQwZI9y5OQYc0t3Dl9QcUA8KJsMR4UUSBgaf+vcIKG//1X+/ZufoOkaruNSzZdg6fa6OOylhu9UotXFk0tzOwx6ImIrd5Si8lBNdA+ZCY6eO8bYSJy5azd/qubARrTCaa4u1ZlvWownRSH/ZNLg3FSagcEEckjHUwLUVvIP5+3Lskh3247LfippbgfFTqJBkkXUWVGF9tk9TTwxMsTwYBRF/ikY2duhWVlTMC4FDEJ//6v80tQACUPjJFFSRgBVlpAliVbjaUpz84Jova7hewj+/tUkGGzva+u9IKzXE8sKiqrg+j71WmfnPax3VP2ThtXm37/5CWcHQ5xE5IUAvDAaw/WhWG7TqDaw6g2h0XYae1KW9kawSB/ayDF0Q8fqWFiL04fu6LIrttvoe/XPeljYOc0yRPvXWpHncg1Rrb9yTxDOiIlrEoMQinP8wkmqlTbNWpPm6qqIBDyuPsKKKhKIuhOv6Rq38m1ShhhzMhRAkuDF0Shty8UwVK5emsHqOQbau7Q0ZC9pbnoYdegoZy+MEwio3LqxjLWfRM+DhG62+nxPyeglipqt9UVTWyW3eJM/eccQLxwfEFzUy6iVFUgMkBpMEY0GmBxLcPt+URQmHJbbNnJ/r1NAN1nWdVxuLFRRZYkXRmNIEsS7/fgnUkFsN86DB0lWKuU9pz5sTzAjCloQdXCc889N8sqZARQZLMvho9kByM8c7kV3w1a2jyTvXDtmtQUHxvuFL1JWROGhJGFEDGRZJhjUiBkaiiKLKpKNz4O9LajNDvCNIaUet3pCG5yZDSNLEq4vOMvxfFKhAM9m48SDCmH9KHdOpHn7m/mtHQKbsD3BQgmMoVGS6QRjA1GSIZW7+TYz9wt7P/52K7V8P16RR/Yxb+sDuzfCsUTTkt6Rv5WcaKBcLNKuN1E1ldnZMkv3HqyV/Bw47rf5916SUs/NtHSbhdIircbTFMtt2pbLRCrIs9k4qVAAzw9Tajn8uNjaE7Fgp25uqSyvvnKSdCzIZybjjEQMEkGFj0b7KN9J7e/M4scB3xeFdukJUQC/HZf16oNdu1vmpHT9c0Fo1TDb/diW/XDXg8eJzU5dq01pbp5GtYFhqNiu4CzPD3cPCIpTecblxuVnYMPRytthWztMy44xPt7PYqmFryhEgjIRTUUKaszWZFote2/ZuAfdwza/eDACwycYOjpCPbeyvaKgBpBGT0OjInJJjCioAeRIHL+yQig7iKIq2B541cL6Xrcf7HZ97/+avmYUu45HodhiuWzSl45Ss2xiAZWBiE42EoBUjE8+uLH9nrpbfZgb6qNuSdz5ZI7lqkPB8TmWCXEhG0NPhrhbcOks7nCq6lYG7kEUDkkWB7gdP8/U+XFGhmLM3Vt+dLFIEkw+w/jzFzg5NUTZCREdGiQQFXmTgWAAq14nNjhIZiBKLBGh1FJEnom3Nz/eI8/biN67KWq3tNYRXO254m+dBq4v0yyUiA6muXSniBRUyUYCpMM640mDD5ohyou5rRfjrgV9ZpPm8iKszlHPrVCwDKLpOCdSYcaTQd6dq1K6c0tcG4rzq//dVzj78nNcz/lQyRGcegFH0kVuvLfBIIz07a2xpKxANCVWad8IJ85NMjkSR9cU0dB4c7twPcTv/94v8wsXhkgnghRsSCZDyIoCkoJjO1hLs2ipAWJxQ4R3PEVUPrZrB89Y3rgnSxIkh7uxP0dwt9zNhu7URV5LaYG5W3OsXrvM+7M2pGJrHpGfPZMlOXWc99+7/SjRHiFYr1U3iFXtOuvWt21iVitcmW5QCAQ4mglRsn3KWpqWJdF3corPnB/ipSMxpGSMkppm6uwQdVPGbG8QncEI+sRp3E57d6L5vhiD1YZmicJigTs3Frhz7f7W3ad9j3fmPH5wfZX0QJyrN/M8uL9CYW6J5vwM1uoStGt0anVWV+oszJdp5nLdMtV91JRtJtbm33uupp5t5XliP7U73UZhzrrPsJLjkw9u8EEzxM+eyRILqownDDJnT+CNTBIZP05djouK0m1dU71BbJalzQrMXObP/+Ayfw6En36ZYCgI9QLNWj8fTJdo2R6Xb+TxfR/X9XGsDftD91Dp7EiaBx1r19NUgYct/52K1AE8F/PGTzCjKVqfmqTdaItGW3bn4RhTXZw6sWfsRatdi2tpO2cob6UoWW2m33qbN186wn9zIk08qPHqeJJsVOOd6Qq3f/hwov56XuI+naXN5WWaljhrxJy9ySVFZn4hxdz7H4LnUitNYC7Nruf9ORY0y9RrLfz2Ezwrsn+MxVKTRrUhOGdzvn+vHdB+sRfCbY4S7xWtKv/sH/9faL/3FV4dT9If0nlKkqm0Xb6ziYvX42E9w29DWvBOUGJJSA4IttfDhKIhVLUrDqwWZqstiLXR79eqihPAn1T7OzXAS6+eZjIbo2+gD1Ij0DciJtKIia++kf3dc6e5eJzpdq0qP769yq1iYy2e9vxQnM98+bPoUy+KNr2Aoo689IaE9HBOQa+f3w5+LT8YheJC90SINu2OS9MEd/k+OLYQob3DB3pf3dMQnlgnbs9l4fYsrVCahY9vivF1GmKMakAoAJJ8sPSBjV6NjV8bcchId2T8OB0k2p5HXBcq/7mhGCdPZfjhrTr2rTdR+r74O29Ytrx+xkg42U0C0XYu8NbDQvNxuycxSDKu7QiC9BSGjS/a+/lJt02XFWwjKTp59saw1uDFEYrVboXrm4mykVhPEHU5zvX/50N+9OMbLBlxzg2Jfo9xXSM5GOXdf/evkDPZBHIys64hgiBYL+NnOzTL6xlSkiQI9aT9i3uB59JYWuqmFjjrRHMssXftRX3fblvY43ZxUFg33xMepNIi779zj49XaxRbFqlQgJfHxAmG6sVjUWzbpVxQqHVqEBChADUYwHF3YPFmaetypM12yWY8wRcGwLUgd3sLtb/7ezV38OzcnZJnNz7jMaBz813e+N/q/NbffYGXxxKEfUELiW0T5f5//FXE/wvJVIo9BK5EUgAAAABJRU5ErkJggg==;" parent="1" vertex="1">
          <mxGeometry x="666.25" y="393.1" width="98" height="98" as="geometry" />
        </mxCell>
        <mxCell id="jz31EccxVryN575QA1fw-50" value="" style="shape=image;verticalLabelPosition=bottom;labelBackgroundColor=default;verticalAlign=top;aspect=fixed;imageAspect=0;image=data:image/png,iVBORw0KGgoAAAANSUhEUgAAAG0AAABsCAYAAABgpDzzAAAgAElEQVR4nNS9WZNk2XHf+bv7je3GHrln1l7VW6GxNAAuIkHRNJRJsjEZOaL0NibZ6HE+AN/4IfQ6n4Bv4gwfZBRhAheAoBrd1dW1dWZW7hkRGXvE3dd5OBGVWdVZ1VlANzDjZm2dVnEj7r3Hz/Hj/ve/+5H+r588yT45tfnHZz3ublQY2gG3lkp8uj9is1mgN/V5tj2g3xkQHW2DN+U3KrIMaQr5MoQuVFdBVmDUhtD7zT7bV4kkwdo98tUyP/zBdaI44+OP93GffAxx9PK1eo78nW9Rrll8dK/MX/yf/wvj8ZhyuYz6Wzc3WKk5rDQqvN8qsjN0KRgyvUBh6keMPZnJNCR2PCRZBUX/zbzwQjQD4hBkFSQV0gziQCjyN/1sV5FRF8+12e+sUyzqyFoeScsDvvg8y+YXSni9Pp4T8vehUKgkSQCo+yOHa9UCbpwQpRlndkS/G/H5dp9ed0Loh3gnB+J3ZOXX+4IXRVYgS+f/z8SqShOwh5BEF172/+Pi2xB6dE8GqFtNClYBp7IM056YjHEorssy0HPg2diTl8dd/aQzxY0T3l8qM5gFfHs15eMTm+WlIu3jAaqmQrmFqqvEjisGqNSAcUf8wuIm36TICsrNb5O4DsVWA7vTRS6USNu7UKxD4Pz/TnlZlmEYKq2lEq69ju1OXh7LLIVZH+KQYHj00nfV91tFojRjMAuolwwAlHWJJM3wg5g4Tjk61PFdH3s8hCR+8WO/NkkTkkEbkpioXIYsRTM0ArOEXmsQekWIfLH6ouD1vyNJv3ml6jnQDJbXG9SrOTpnNvZoem45FqJooOchZ4FhwMfnH6k7Q5czO+LbqykA5bxGmKZ8a7XAQd9BkiR8P2Y0UrEnFgwlMAoQuL++F5UVqLQgTakv17BzBrWmRV/XWFqtMRrYDO3Rr3ci/bIiSaAaWJZB3lBRVRlF00guuzZNQFHBs1/6Z7VgyPS7ER+f2CjrEmGa0iqZxGnG796qvrjwWZzSyRArzZ18o+916cP3DkE1cGZV4ihGVRV0U6fZLCDLEuN+k9SbvjyZJEnMWFkRM1kzf7MepiRBY4tcrcq712roqszzozHJZCAsxUUrICug51ArNYoFlc6Fn1H/x/aYz7f7LC8VSdKMb60WiNOMFcuk5/lMw5gsy5iMPRgcC1ubSb/290WSIUuRJAnd1CkUNDStzGo9z2Tik7r25aYxvXQO/2Yky2DSJcjlGdoBbhDTPh6KRfCq2Y58GBwRxyGjsfbSR6rjR/S6E9rHA/wg5qDv8Lu3qvQ8n++t1Xh6NkNTZeyJLWK0LBOr7dct0x4A4wdTUDQ8+x2SOCGXU5nNArHCIv/l72QZZMm54n7TcZxmQH2dtesrrFbzfLY3YNruCCfqMlF1pEqTVqvE4cV/7g5cQj9E1VTiOH0RC0zDmKdnM65VC/zx/SVGdsjfeQHJznxH/HVv6HNzYd76ACNncO/dFVw34kfvLzNyY/7W1Nj5Jx26uy9/J0tFAO7byKu3SDt7rx+kb0IkSTxHfQOKFe7dv87trQq/d6OMocm02zc5HXe+vOUUqlBbZXlzmaLxsrVQv3h8IuKwckt4ib5YRVmWoakyf3x/iXsNiz/93jK2G/LxdCQeorf/69v482WwmuSaLbZuLlMs6nx4vcZBz2GjovPD9TKtosb/bSg8+jvEs5WXwGoAsHZrA2fmcu/dFQ4Plzh9ugudnW/edCoqrN0DVePe/esoisQP31tmvaxT0XXutUye32syGXyAc7QHzkhYseY1istLVBtlrm1VGHQHL/2s6vXOxB+6iu/6jEYqz+KUydjDntiM7JA//d4y31+tU/hDlf8iSWRZxuef1gj6PWEyJRnSWMzgLPt6XWs9h3H9HRrLdTY3y6zU8iSJ+O2zkctPdsb8y3cUvrNaovXPr/MXJYMHHy9RbVYoFg1sO2Brq0Kno3B9qcS1VpGdVYunj1rY+7swbn99z1qsiYns21Bewli7TnO1TpJkXFuz6A5d8prMZyczJAmuVUz+t28vUy+ZfPpFi257QpIk3Lm3TLloUMppaIrM0X7npdsoauPDPyeJSdUc4WSE7UUMzyY4e8+I2nscj2XascL1pTzvt8os13RuLBWJcjkSo4jZXGb51jWqmxuMhi5UV6CxIWZNlr78Uqou/tNzr1+liiqUbrXEHmC1WLu9xcZGmfV6gTjJ6E192kOXJ5+fcNyeMZFkTEPlTq3ASt1kLGu0GgV0Q5krOKPbnmKWDJbKOZarOXxknEQnHA0uf5aFWbuqQgsVCrffI1LyYm9tblIsF9ENHc/xkVSFvZ0z7BQ+/eyEw3GIbGrcaxS41yxQKhuYpRxGweRbN+poikSaZRx0Zzx78Jzo6f/Dn/3Zn2EYBir+PAZIIrE0h5L4f5ZClpHsfMzH0xH/RZL4P35vkx9uNOhNA6o5lZ9Uc9QLOrcbJj0n4i8tg0Y1T8FQ+fjzVU722mTtXfESqk7h7reIo5g0SYm2fyFW6GLArCZkKfnr93Btl81ba0yGNkjQbBbIGypemPD8eEKnPWY6mBIfPsHJUv7b2V0O71/H/+EG3121+OhGjaORx97pFM+L6LZHTJ7v8lmcELy7wq1Vi2JRp7FUwd4xeDEGL02eeaiQJmJsFO3N20Fzi+ZylUKpwJmiQJIwHU2ZDCcwPmN0bEFvn0/2GzA9Y/S4SOf0Q+w/uM0fv9ti1dLpTA32T6ecDBy290eMhjbD5/tknWcv3Up98VepIZAOozB3QaVzL1FWyLKMkRfTmwY0SjpBmufDtYSxl3A6DXne9/D9hCBK6A1dRr0J2eD0JY/T2d+Ze3Tplz1QZwSSjDsYQhwShssUrDz5vM67W1XutPLIgKkp6LrMqaZyNl0Gb4aqqURRwtHYxzIVxl5MOadTLOjoukKaZiy2+cHAJY4ThkMPxw7ejKBclFetxqsyPKV9mCM4OxUQn6yQqbpQvG+LMY18sOcrO4lBAlWWkCWJzzsen+0O+OLREdNpi157QOiHMDr90mo/V9q4I37sVaQjy6C3z+ef1igXDao5lSDNs1Q0xVhHMcczn50zl2rV5NayxbN0QqVRxhk1xMMuXG1JBln6smsO4uUUDbNaQVEVNjbK5AzxeJap4kcpAzdmvzvj5HhCb/8EhicQ+cSRz0EGhqGiyjIZGVGSMp74ZBmMemPwpkyOj/Ecj0nNIo5iFFUR5voykRVhqhVVKEwzIblkRV64PgzCczgqTV5YK5LofJUuxtedMHz8OT9tWlTzKg/3h+w/7xGd7nEURNB9Lr4Tem9Q2pskDgn6PXb2GvykmuPDNeF1rVg59oY2Hx/N+OTpGbYdoKsKe3sj+u0+jLvnHlqaiE1f1S/fJ5IYJJk4ijFyBjlD5Z31MjlN5l4zhxenOGGCokgCxJalc4cnDonHfU6Pizwr6azU8lg5HU2TKeZ19hVZTJTAJRwk9Gc2smlSaVQun0AglGUUxN9ZJlzwyH99jBqHZKOusFaL9/sq79Qdc3LQ4xetAo8eHOE8/YVY+a+Cx6/IudK+yn33pgRBTL2gM/YSnChmb2hzo1bkRzdDJk5IZ+jy3etVVqo59rplDg7qjPtj/MMdiHyk1duYeRNvMIDTZ8IhCT0x+NfuY1Ut3ru/Rimn8du3aiRpxsEw4O+dKUd9B9ePefTZEU5vAO0vXg6aAxdJklip5bm9VOBo6DObhQyHHnZvKK6NfCjVKLcamAWTajXP0GpB/+DLE8ksgVkU2YTRGcXNa9j+TAyoJL+sEElCWblBwSowzVfg7Lm416vXvSpxiNMf4Hhr5Et5nJXbYoXpeZievdYJutpKA5BkikWD2w2T02nI8czn46MZP7oZ8p2VKkt5kwdnU95tFInWSjyo5/gHTeFpkuI76yiqwoffv8l0GnBm6EwGR2LVhR7ICrohMgmLgU4z2Nkb0muPyBVzyIpMFEQ4e9vgjr88GHGArMiossyDwwnPdoccPNkDeyTMKIgBN4uYhXV812evP4bB0eWDM26DJJMqKiQxduSDNztHWS5KlpGM+yR5k1KrziyJxF6UzLPRCzP5qsgKhUadzaUS15ctjm81+PR/5jFMg8meLt7Tm/0KSksFBtlzIp73PXbOXD55esbECVnKm6xX8nRcn67rUzHEPuEFMbPxDNKEYrlMq5pnNgvFXqJoYibOXzocDSBwOcgZuDOXs47FaG8Pxh2cQlUEykkiZuBlEgXEYczQDnh+MOLgi2PoH73sGWYphB5pkmKPbZJh9/Ur4VUIzB6+edU4IzynTsEqoJbKxPbgcofrFVFUBUmC99eKtCyDTmeGqiq49gpRX/oVlWYPef6Pn/CXloHvJ1SrJrYd0Bm6PDib0nF9vr9W42Ti8Q9HY0qG8NqSOIHBMZPA5dNHedrPdsUsvPgwaSLgJ0lmdiAcgFE8z0pH/twDTS/dlF9I6DF5+HN+PJqKvWXx3YvXZxlMe/T+8X+8PZrzlfvThHT3F7x4q6vEd0nMdOcp/1Qr8fxkQrs9o/vxz8W7+vZrFX51pWUZGHka1TxBlHBr2UJXFb57vcq7jSJd1+dk4rFeyXPbC4jTjI1WkcFWi30/BAnyeY3y6gqTLBMPtYh9JAmWbgLQunMTTVMpl01ODstMDg+Ejdd1sMdvTgsZBRorDZJmleHBkZgIr5oyEInFyBceojO+2vvPzeQbP89Z4u/AuXookUQoioRtR/iuL8Yizd44Sd5iT5PAEIFzb+jyLJ2wtzdipZojWitRMXT+4WjMbS/gw+UKJxOPH16v4IcJtVqOXE7jj95vsd3zePi8yac/NdFyJtHxDlhNbn/3HVw34t7tOqOpj66r7HrC48O3z13oN0mxxupaGc+LGZ7qYiBffXnNoHD9LoEfEPuBWPGXDdAcOEfPCQVYLWGa0+TLq0hWYOkmhVaTaqPMeDDFfvqpePavWqFZShAkNBoFLKvFI+c2SZIQ733+2qzE262048d8/Pkqo56Iw/rtPnvdMg/qOQBKhkKcZpxMPJZLJrMwYq1eYOpFZBl0phEnA5fD/SEMT4iMwtz8zbDtEN/1GU58giBhOg0JxhPhQl8V2D3b49EnFmmawsnTy1dGFOBsPzxf4W/a0+A8rgrd+R58yfVpAv1DnFkfp78sHAjfvpqJdMa0tw9wZ02SJCE42RPfv5LLfxWJQwFNDU5F4DzucnBQ5x80BS+ISecm8YfXK8zCiJu1EoaicKNmsDvwqeRUri+V2KsWGDY3KVgFfKdFpVnhW++2GM4CVmp5Zl7Eadc+X2FXlSQiHvUuX2EXZfHZwhG6iuQscX0SfVkhcyuEaqDm88RpPE/aXnWyPWdiD4Q37U2/0rS+ndKyTGCJ3lTsLWnCuD/maZIyG89I4oTBVgs/TFirFzAUhc1KHjdO+PR4xmAWYOU1oihB0zUKVoFCqcD1GzXeW7fozSJyukwxp9Ebuucm6i2ej9Ep5EpvnuULB0UzzgP012UmjDxIMoX1TUI/RJIkwpPnL5KyyIq4n2YKdCaYJ2S/ypRflNA7j1evIG+nNDh/4bm99Q938J11MXsHx+z7IbVajqkXcaNm4MYJd+ol/vW7KY/OHJoFjaMbNSqVHLWKiakrFHMaZVNh98zhbJJw1Jmxv9sVCnhbSZOvzlAvVkESnyvqdStjHkc6HQHzSeXGywpZ8FAkGRSNcqtGUCrgT7pv76Fq5jlw/wZ5e6Wp+vmPzlEGRVUolstMAhckyOU0sgx2Bz6fHs/41++mfLBUIa+qdF2fVjlHmmbEacbYDtk/nmJ7EQ+f9JAkON1rw7T/y9EaZOWrv7eY0RcH9U17WxLPPdGMbNw5D5oX3/OmwmTmLIpWgWq9xP62enWlSRKYRaisCEB5kZd8jbyd0ubpFWd/R8yscRtp9TYffv8mrWqeTx/lyeeFl9iZRlRyKoNZwKMzh7yqcqteJCPjej3HydAhTTO6XZswTEjSDMNQKJdNnGkZz9QJh8dvl6A08hi37hM4Huw/eO0ASZvvkbk2TLrnIcQiDfM6WYQnl12jaFDfIF+vcftmjTTN2F+9K5yhq/BSSg2KN++xvFanfzZh3BtDe/vylBFvqzRZIY7mJkWWQNUx8ybTacBsFtJ+tkt5dYXtnsfJwOX6Ugkrr9EsaHRdn4yMm7UiAEGSUjZVnrWKSJLED66V+EWtQN5QUFWZ8dhn97T1RgzuS6LnyBfzFMtFBr3K5SynnEWxXERrVZmNKkSjgVg5sgJne+IaSToHtmtr4E0xNm4TdI5QG6vEYQgHn70Aksvv3GdlrYZhKHywUWHsRVSaFcZD6zwf96Z38G3s01M6QOAFAnp7HZDN2ypNUUmTVNj0+d7mDQacGbqApkanTLKMh8+bHO4P2asWRJ7rRo1WOcf1eWhwrVJAQsKNYzqzkM7Y52Hb46BnI0mwt9snCiMRpL6NGAXMvEmSJOdJzIumUpJELLdRR9cVDsIYRW1h5k0UVWGwcCAW+3Ycit+IAgLbhmmPOGehlUrn4Upjg+XVKpurJayczu9ulUmzjN5ki39IUqYHc+7HJXDUxXElS1E1FataYqSpeNOzrwERAfBmIuN88cdOnwnwV9HEg/k2n/7UhOEJw+Ymmq5RqYg97GToECQpEhI360XOZj7fW8/4sR/Tn/qc9R3GY5/h7i74s9eah9fK6JT2p7EIiC+mSBYy5x3uPj0mV8gxOxWeZrVZZWmpwGSwKeoVRifCA0wiMeBxeJ5mUjXMvEmUL4MnUV2qY1kGo1lAf+zxxUaJVkHDDWLcmftGOOriuOLNGAcu41Lj/P6vkbd3RF6NbfScMCWLf1c0gXQYBeHSWwVqFcFYTtOMsqnixjFnM59WySRKU37vRpmeG1MwVU4GLoF/k+lwSrx9CZr/JkkTUHXkUoV08Bp6QJqQJim6qWPUGxSsAsvLRWplE8M00HQNbwGZOSOMzdsEk5lA709PufHeNWq1PI/jBHfmsnmtzvtbNZwgpjNycYKEx3ZEu2sTzyYvQqMrSeDM835vtjBvr7RXB2IRY1z4PDoW+TPfaVEoFTB1hbEd0u3aPGsV6cxCvreeEaUpq1aOWRizPwpETu7MFgpr7789xS3LoH9AOj17vecWBaSHjxl085DEBJVlVFUlyzKcmQPOVKyuwBGfd04giXBME7IMRZEJgljghKHYdzpjj73jCe3jIUGUIEkSu0+OBJXvbd7hipbl7ZX2qlxkLaXJnEnVBG9GpVnh+o0axZzG/vGUMBQv1Bn7/NiP+b0bZWZhzL2mRUlXud3I8bNankYjz85One7PfvL2hR6KJnDCyxKbC5EVKFSRCsIpyRd0HCcSq0vVBWdSUSD0WXnnDqoqs7lZxnFCfvTBMhMvoX06YXQmYRgqqzUBok8mPo4TMRy6pKOzl0ODr1HeXmlWU8zExSZ/7T66MaeidXdh6Sa3v/sOth3yrXdbvLduUTYVbC8iSTN+cK3Ew7ZHf+rTc8UKK+kqa+U8mizzW5ugzcku3e0N4dFdNd5RVGhsUlxZwbYHl2/+c6VolRq6oROFEb32iDiOoX8oPjeLgiCbJmRZRhQlmJqCncHBwKMzcunvH0P/gEcFE00TyddCQceyDBwnFM+i6ldH+xfPlqWXg9IXL7v6L84lS19E/0gyVtUSpiJwX+xrrivSDMNZQG8WsXvm8PBJD8NQ+EWtwEHP5qzvUDBVJk7I7UYOTZZpFkV93LfXIEoznt28xpk3uzoykmUgK5QqJeyc9XqPLYnQTZ1as0Icp4RBKJyGF0HuElazjqqp3L3dwNBkfvtWjYNhwIqlo0gSRqVM4FiomkrR1DA1hTNNZjj06HVGV3NAXpWLZKA3yFu7/Pnr93AHQ8xqhTiKee/+GrNZyEHOYHag0Lpzk3u36wwnPiu1PDld5mySIElQLpvkDZGpHY99TgYunTObn9Xy/NamuEWrZJJl8MNN+PxWHde+iZ1EwhuEN79QoULzxha3b9aYjW9gJ7FAzC/OdiOPWl+i1qzQahXodGzssU0wnCMwzgj0HJLcQNXme10QE8YZZxOPztjjqDMjaB/BpMtk3+RwvcatzQqlkkEQxMjynBvyVQH7QhZQmKoLk/p1A8au7UIsKANGTlCXh0NPzFRFRdNURlORXpl5EcWcxlFnxuleG2daRlVl9nb7DHd3X3iJjUYeTZb49prQyZJlEiQpW80ihzUL+yh3vm++CTn3Zox6I0YrgiJHeMl+6NvE3SPagCwvM+gOCbonQlnwQnGe7aHpGkGUUDA1LFOhVc5x2LcZDl3hqGQZ2ANODgckScagPxMT4ODpnE9yRdB4kT244h74dkorNdi8tUYYLr/gJf72rRpphuB0xAnlsomuq0ynIaddm97QFeDvtI9n6ozHvgic/dkLL3Fnp44sSURpxg83BVqyUcnxL+4KRtbHhsLzT0yhuPYXrzchtTVu3F3no3st8nmNLwo57IlNtPPpeaBcrKM011m7tsy9W3WCIKZzevjyvqnqVFtV6vUClaIhCLhOxE5nyuHRhOlodiHP5hF4Afm8Co0SvusTLBoKXAXJkSTh+ATOnMQafc17WhIxGdoUrPwLXmKSZuzsDQUJxx5yclhm1/NFAtO3xUONTiGJCYfHApoKHDHj53FY92c/obu9wbOb1/j8Vp2tZpF/cbfGd1aq1AwDU1ewZwFpmtL3bRF4v0oTmFd79s+mDO0azXKOYcui0bLYHvaEQyMJomzSPaCjqTSbBUa90ZdryH2bKBQ0gN7IJUkyHhxOODgcc/j5tlhFi+uTmGDnAU8kSKKE+ODR23u8cfBWucOrK03PCcKmBPm8YFvlNJmDYUCvPRIM5cgXnI7AvTzjnGUvs6kWnwcunO1x5s1w7Zsc1iySNKNmGGxW8/zBzQrbp3U0VeYJEAURk+0nwvx5M+Gp5csvujCosszdpTw5XcHK63hexPFD+Tw8CT1UXcUwFBTlkiILVUfVVBRFYjz2sWcBvZ7D6c6hKJF6lZWcRAIzzHg7bxHEXmYUrs5V4aLSFpvmZZtnvoxx/R2W1ho0mwXe3apimSr3mjn+3pmSK+YEzc2bChLOm2bN65Z9LHjrdhJhH+X42FAwdYU/uFnh/VaF//Q7Gboi89P1MoNZyCdLZfpnEyb7+1AoU6xalGsWzWaeJMtYK4uBvdPMcTJo0jsdUKwU8V1f7L9Ar+fitk++HFJ4M8529hl2LOLJ8JxnuXivV5H7JBY14Xr+7ZKfuRLmzfdZ3Wzy/GfJOW9f1a9AN1j06Ri0RReB3qHYHKc9oUSrSWO5ztqaRd5QudPK40cpXpxy1HeQFVnwErNUsKZ+lWK9WR9ksYfZs4Dt0zr/6XcyfrBe52wa8MNN+KejGeurFkEQ49ZbaLqGoiooioTjRDz8ok+aZvRnPu2pxWF7RnC8C9JNkbZxpzijLl+024Ksepl0dogl6epu+2wAyiVZhVdlkSE38qib93j/wy02l4qc7G8QuBOxdSzitYtVRRdEKC1LSVwB25CmoBrnM0bPkWu22NwU9WFemCADAzfGCRNcPyYKIkEkDT2BKrzNbLtM5vFWmqZoqoyuyJxNA2pFnShN+XA1JUoz4lSUGxcKOsWiTiGnkWYZSZrxzkoRr5HnbiuHJEH75APWN2tMJj7D3kTUDJgGk1n/clqeqr9M/PkqZWiG4JFcBKoXRRxxeL565rQEjAJWzcIq6OiKLPqiaIb4LF8GXxH3v8SjVNEMkBWKrQZRuUx9uYYzqyJJEuMHU8xbH7B1c5mVWp4wTnl+PMHUFPa7MxRFEtz6ve3zvNev2q5i4da3v6Dv2zwBfrpe5oebEKUprZKBLEkomxKaLFHJ68iyhBcmzNyQTsfGsX1KORHw5jQR8EuyhGmqnJ3F2MMJ2CN8SXo9OLvgbFw1lxcFkLyScV7EX2kignbfFohS6FG4cZfVtaoImexANCJYUO7mFAdUHfKA3X/pVipxCFmG3elClmLnDOIoRjd1UDSMnEGxqJPMKzA77TG6LnNyPEHVVFEM4V59E72yZCn4M6IgYjAL+aejGR+upsiSRKMo9itpHTRFwo9TzqYB41mA6wREYUSWZZTzOksljXpB5cFWja1WiV7PEQNi5EHVRPb6MhP4wm3/FeuyF7+jGiC5QolKjKIowkHq2YzHPowvYJUvPNPL3X8Vswihh1wooRkataaFqioUCqLtw713V/jweg2AzshlOphyqqmiPkyWXq5e+Toly8AZM9l+widLZdZXLaI0Q9kU/I5mySDNMnIbCl6c8NND2G9PmQ6nBMM+O00LZyXGjxKu13Moikx+Xu+G75wTT1+34f8y7/Tqd9JEmMM4hHITJIni6ipZlnHr7hKlgkGUpAKrDJxzBaWJ8NYVTZjdV0ykuliSaXuXwCzR1zV0U0fTyiRxgutGHPQczkYuzx6fEh8+ERWYw5M3kz2/Lgld+mcTgiAmTlM0WUJahzTLWLJM4knKw67Do6Mx20/bBEfbEId0T5dRFBlTUyjlNDwvpjvxaB/2Xq5o+abFHYuVPDiGwMU+NUEzOTkpkmUZ7szFPtx/mRoRekLRi657ryA7KlZTsH+KdfRag6XVGs1mgdV6nlxO5UfvL7NR0fnJzpj95wOcLBWx0avFDd+UeDMm+/u49RaSJPYwTZHIbSjEk5RrtQKzMObRqSjjXTSBcY4POc1gOvWJYjGbozgFiSvhe1+LLFYNiHRREtG4eZ2SleNb95oMZwG7eyPsU/3LFL65r0F56ZI9bUE8CRxCr8hoYCPLEpOJz2wWMHJjfrhe5l++o+D4Ef/t7K5oFBP55+Wl36QoKhTKgtxaEE6HH6d4ccLDrsMsjLldL/GnH0KSZvyNH+Ie7WFtXWdptUqWwVq9gKbKc8jtNr8wDaYnJ2I/uyp9+ypy0XHRDKitU9naJIkT3nl/TaSrbjfIsoxr9RyjsomqyHjONYahJ+hzAEu3MCsWRs6g0eqACJAAACAASURBVCpzvL3PxSmmqLX3//wFiSVw8WYOYzumt3/C9PgYWytRqea4Xs1hGirdQKJUKTKLdVJkscGq2tw9/ZrbL8kKFCoU19ZRdZWVVQE4x2nG0E/4p+dD9kc+K2WdO/USTUtlKKsEusW1Gw2urVpEacrtlRJ5Q+PD1SJ3lvKk+RyKVcHXLEJf4KCX3luSr67QQgXtxn3SKBZWaONdbn/nLh+8u0y5XuD7txokEtxoFuhMfKZeQpJlGJoCmoKbmYR6mcLaNW69v8XSSoVCMUelYtI56hE8/ssXLSkUdfmjPwfOQdjIJ3OnwmQ6Q4aTiLGa5+ZaiTu1AqWySalsEikakWyQa7YorKyhN1YJBmdQqIiWQpeh3EYe8pZwewMHgfvMZdE/pFgTJqWxKVze6grNtRa5vEGrUcD1I8Z2yEnf4cnnJxydTpgqKk1L5b1mmbWaQairNMomeUOlPw1AkjgZukiKwp16gRvNHLKp40sy/WlCOh28vDfLinDRF3FW+hWTUVbQb97n/nevk+ar+FqZrTvrrK9aVIo6thehqQpP9obYccqnDzt0Bi6KrrBaK7DeyFOsFqi2yqyuV/nenSaGoZIAs1lA++kuyfO/vtBHZCFZdm7nLwKe3V0e/R38RcngT763wndXLSxTQZXlF0XpqiwztAN+PJrSWGmwulbm0SeWKIYYnb6Ax4xb98kX85h5U7CmVF3QAhRNKElWaN7YYtQbcePuOv2zKaqu0mzmcZyINMvodGxcJxBe4tE2BC5/44d4Ycz//gOJd5sWsiTx+Mxhb+ARxwnbh2P6fRvbCdFViQ+WitxumNh+lXZ7Rqc37xS7oEvoOdHAJhHsK3oH4t8u8vcvep2FCjfurvHeVo1iXmdXU9A0heHYpz/0OD0e8jxn0H38lJ1Kg+TwMRgFhmd3Sb63xUc3atRLBqosMXZDbD9m+3DM6cmIYbsPvecvzZGrAca9fR58vIQsS3x0o8bYi8nIXhSlPzic8PxgRDbqkjSreF4syo0UVRQnhJ5Awx2PYrkoeIl6TrCmpmdgtSiurFCqlLh9s8ZoxeKjey2Gdg1VlkmyjIdf9EnSDMcWqZ1gOEfmIx/3aI8nX5T5K8tEliTuNUposggNbL/ESc9GVRVms5DdnosfZdxrmfzR3RojO+DHvQ2CRa8PPYeycY9797fIMjBNhd3tGkWrwMnHH4t3sZovaOIoKvr6Ld69WWO1rPPsJGY2dpiOMsy8SeAHTPbmgz44Ihkei20kcHEeT/mfUYxth5yeTHBtl8ANeFQpMn6+KyZJ6AmU6q2VVha9pnRV5mjkUc7pREmKldM5GvqiKP2LY7CHDA+OREHfydMvB4b7DwTzV9Fg1j+nufUPsO0Bds5iNr5BHMXk8xrNco67S3nWyjrpHJoq5TSyLGOnadE9XcY5PsTaus7qqoUsixWmyRI3a0UsXeN2I8fn3SI/zw+xcpqwEO0pbpSKTkNjj6DXPWdCxSGJ6xCGCYoi0++7zEYznKkjAPEFarF4ryQmPHnOp0+WaA+LfPzTHeL9zyFfxlveFLisb5+bW82EzHuR28sVBSd02B2SdA8g8hm7m+dtqi6ppLlcaYsL5xggVoPiPBm4dzqlWNAZT3w0TRZUgyd7oig98sUMfFOpqzs5z0Jf7Iw9J2zaicg4f1EQ+bCcLhCF/szHa+QxNYVyXsdZiVEUmdMMllarLNfyKLLE3kB4s5au0SwaJFnGR6sKSZqR1xSGXkx75OL4ET1HIUnSl/sHz/uZpGlGHMdMxw7puEc67/INfBn68qaMRw6GoRKP+2Ic4hyaLoitQb6MWmkQ20OxZ0+6YmvQDFEeNnBJZmPxvYttnbJsPk4vhyeXK22Bl2XnJbO2Lb7oeRG6rpBlUMzrDIee4J4vXOeLHQEuk0UVyutkDonZE5tGy8LK69xp5mhPLe62cuQ0maWShj9nSE2noitPe+DQGYoWSrZf4nYjN0/R5Nju2+x0HYqmyvbJhOc7PY6qBTbWyzx7dHK+Vy2kt0f7qIKqqaKJ5iKrfPEdLkoUMNx9zrBbEYyuLAN7iPvFA1yjALO+UNgC9YiCuXJiojDC9wKhyAUR6ez5G7PXlyttgZelCVRXWbu1wdZWBdcN6bZHpGnGqDdmX5FFY5VFn46vQ+bOULTzKdvDHp4XcTJoctievTAA9YLK9XqOUk4jilPW6gVqBY3jocf24ZiTns3n3SIfrSps921uN4r8yYdL5FWFv9IUhkMP01RxXFEk+CUvV5IFFyYMRcb7Kq3j4xBVVYkXvVH0HNLaHarNKsPjDtZSg+nhAWq1Sdw/BbOIWrQwTIPAna+kRZyXs85xxzSB5GWo7XKlXQyYfRtn5tLpKIyHDpPnu6I5mDc9X87fhMRiwI4fyvROBwTHu7RPPkCSJR5s1VAUGc+LcZwQTRVw1dAO6PeF0/Hz/FBQIboOf/LhEh8uV+hMfVYsnXxeo1QySNOM5kqNg5P187xavoy6fgezYGKPbZEmmfXf/KyKCpUWVt1i2M6LZ68sc+f9LdaWS+yW81SrJvuKjCRJjII6uFPi9nMmnfmet0CYFjNTkiG5HLV5WWmLL2iiWRmhh7x6i3vvrnB9qcTxwOGzWChpcnx83jfYnVyJr/fSfb7qWnmeT5IkipUiSDdZ36xhmipbrRJ5Q6U78YjilN++VeNGLYdlKthOyGwWYuU08ppC0VTJqwqdqagduFEzadYFI3g2C+h3Ri8rxZ0Qn+4K3qQ/O+/S8yZJYnCmJHFZjN08JSNJEpoqk89rLNUL4rksA93USZNlMRSyhDNxcA52xDgaeZTl66L/ijuFXBEOPn3pdi8r7SJgOZe0s8fh4RLXWkVuLVsE764wGLh4jkc4SKBUY5EpeLE3aMbl2J4kiaW/2IwX9h3OeRfGnK5QrL/o9eG7PoHjMZn4nJ3FIr0CAvyVIM1us/zdZX5ro4yuSuz2XBE7ejHbJxP+SlNYsXRu1Ey+s1Kl9DsqHSfgf2yPSJKML8a3Ra+uKBDvUl5CzuVFiyXNFM+6UM5iQl20MMUa6x/c46P7K3zasOieDLj/nS3+2b0Ga2Wdz2p5WkWNiROiq7IIWbyAXCFHpZynVDIZGBpJnLC0WmNtpcRw7NFpT0WXpHb+DUq7TOwhp0932Vm1uH+9xq1VizhOmNQs+jN73hxsnTRJRSecnEXh+l3R9mHRREySX1RgFstFVjfq7D49Jk1S0sPH58BoEqHWl4i7RyjNdeECh3NOpTtl2JuIBKasiPTKHK3/hWlQzuv8rx80+WCpiB9lPGtPaY9cnu/0GA49EULU85R+R+VOw0KXHTRlgqJI6PkcYc6CaN4ZIYlIo3m7P7MoJqOqn7cOvNg9QZKg1GBjo8z3Ni2WyiY7nSp3V0oUdIWzWczICRnMAg4OxiiKxHD/CEKPsLlCsWTSaBRErxVDZatVZNUy+ORwzHjsMx3ZEL2M714tTuvs8PRRiyhKKBaFxxhHMbJpYhbM+ZEm9otgN/CDl935OXqduTZaq4quK+QKOXRTF9Urharg1s+p2m1g7doyHU1F1cUjOqOuIKDaI7Eap2cv0PrpyQnbhw1+Vja53TC51zJxoxTHjziqFjBNVbB/o4SOE6DLDjfqBf7t+y2uNXL895zKU03F3Y0wr7/D+rUlqlWTXs8hn9d5+lkRVVMJtz8RVmT5lvASZwMoNdi6f5c/+mCJby1Z9JwBYZQwsENUWaJnhzzbH+F5Ee0nX4gxmQfm0fSM/ek1xuurBF6ApmscNCwKBZ297bZoCO5OILqKI/KqpAn2/i67QGOpgmMHKKpCpVGhWs2z1x+L5mAgSnz9YL4fyfMkXiyUOOkyG1U4CGNmp6cY9QYkMVLBQjf0F1RtWRZE0mazgGEo9HouX7TbGKYhKAKq9rJ5mnQ52u/xPw0F26/yR3dr8xa9ChvrZRw3JE0zZjNhEjVlwr99v8U7TYs0y/hZXhd7yJw5vb5a4vfvNhi6MYos2kNlWcaDRHiZteUafUUmnZ+qYVkGJUPhYOrwt4/PePr5CZ/nDWr1Eq4bcvr5k3mr4ePziQzCHJ/tMU4TmPXx0oTpvKKH/uFrnbyr8x7HbewnU9HzNwrmFSG+6Jc4ODq/gTN+uXXRRafDnRCNBihqC3IlClaBoLJMsVwkCiPiOKXTsQVVO4gZ9UYoiiJoboMjQcIJHLHHvEIune3t8NDxaLdnjOyA3tgjSVKePTpBkiSaKzX6HbGHKYrEtUaONMu417D4Dx+tAPCsXua3vrvOv3qvQVFTeZo5WKZCuagzngVohoZVs/jw/WXcO00ODldQFJkf3V+hldc5nPi4biQgPCBNUwI/FOO1oJG/KnF4DoldeJ+vpzfWognZq4Vvl9WBXbzhq58lEWbepNqssrxcRFVV8gWdXntEGISCC989EVTtBbNpoaAFaejV4Hze9CW2B3R6DYEl9rrnzlGWCrd+1ueL8W30vDCJP8vr/IePVvjBWp26afDzGzW+v2aRZBn/fXfEw/0ha40ChydTplMfbzJlZaPBneUSyyWNs2tVCrrC/aUiHdfn4aktauetAoqqMJv6jM5GX12K/KUx+rr7iHzVDV+VhZlcEGFlBUVVWFoqUCuboirFiYhjUaMcDPvndc5v2zwlCmDcEeDvq7N1EYedPiPMWTzVVGESgbppcLNWRJUl3Djhr7dH/PXPDjjdb7O/2qR32hOg7eCY6WSFzsQnSTMsU2GrajAJI362N+Xh7gDfj9B0jTiKGffHpN39NxfJ/xLyqyvtq+RipUuawNkeg8BlMtjEMA1RMmuPhQ3/OhKpafJmGl8UQNTD3RXe4bN6mZ/fqKHKonh/d2DTm/qc7rehvUNvNjpPL6UJ/UcP+XnR5MN3WlRWSzw4dXh+ZvPpoy7doy6ZIw6XkPJFMnvyjdAavnmlXSZZSuy4aLomapwXhyyYxfOjO35ZWeTDFm3UF5Ivv2iHi6JiXn8HRVX4re+u8/01CzdO2B3YXKsW+HffXqI3vsv20zIFK8/p87LoIDTuQG2FzY0y99dLNAsasyDhWquIFyZomsLpvkwyG6MoCkq9SSBJAub7GmkZv36lzStXGJ2ILgLOSMRo8wpM9Jz4N1UXJk7Vr25e5ocIKRv3BGNakqG3B5KMun6H+HT3RTy4fm2J9dUS/+q9BkmW8dfbI3pTn3/37SU+aFX4j/9sg79dtdBUmV9Uc5we1xkd5CjXy5TnBSgP2i77ZzPurlhsNYv4YUz7QHR1jbMMpd4U4PvXzPx6O6UtGLOLAVJU0VX71fNa3gRTLTrhBK4wi4EjitLzZaxmHUlu4Nke1VaVKIxQNZWznf3zapUF+/ZV72pBEWhscO/+FmGYkKYZ7aMKru0KLDFnCaQjiqhWTX7/rvAS//vu+R7WG9/lP/6zDX6wVudWpcQ4CKnlNZ4sFXlcEvzJME74+d6YpzsDHNsnp6usVHPo2ryjUeCIurUkEqv7a+bOvKXS5PMMwKJvvVl8u96GC29w0VgliUVrhzRB1VRUTUXTNer1AooiCQShY4liiMV/r5M0gSQRCWVFJo5jQasLhVeKPxPQVBzS6zkM3ZinmcPD/eGLPWz7aZm/XbW4VSnRKApC7N1WjqmfMF4NmU4DnEBkm7snfQIv4KRXJUkzOl1bnLcdh+cFLN8Av/LtlLZIFYBQGoi+9a82xdRz5zwTI/9yw+ja2rx38LyxSueElXfukGUZd+f0siBKqBQNeiOX8dgX5UZJfJ5jumyCLIrMVQ3TVOj3XaZjR+TDzvbEnubNBJZoFsnndRQZLFNhrVEQXuJsRMHKo6ky4yAkzTJaJZMwSWETwiQlWkpZsgyenE5p1wQb+/3rNVolnakXcrCyRbggmyrqG3tc/bLy9nvaK73mRb+MV5b/RY9psToX1yw6h8YhwWQm8EZVJooSDE3GCWIKpqh1TpIMexZcvVYg9KB3wO52jdloRjruzZu4ROcx36QL0x5PPyuKRthFncOTqXDrR6ecPi/zi2qOWl7jbitHmKSsV/LIksQf3pI5mYUMnAjHj3BnLkbO4Kjv8Lw74/HnbcKj7W/8zNS3V5qi8eLslUJVnAwR+ed96xVVsGlDV4DH65uiwWV3VxR0bNwWzcHGXUqtOo5psrlZxtQUfvtWjTAW8U/PiXhwOBGI/lXLjbIM9BxFq4AzdQRFYF5g8vJb6y86F4xnAdOpL+KwNIFpn9PjOk+Wikz9BDZBliTWyjkyMuww4XgccHw8xT7rkzXqJGkmDi4yddGzcREjfkO5xl++zVIiEnf2Iud0kWMxPZsj+7I4mWgxcHFI0DkStj5NREOxLMNxQtFYZRhwNvFolXPsdKYcHI5FyezbNDab9gRrypte7mYnMSQ24fYnPEjEedneZCq49mkC4w6jgxyPSznGqyFhkvKHt8ShQ6tWjmkYM5iNcR2RRwy8IkfHE+yZT//J49dX4XyN8qu5/Ivjky+FsQRBRZIkpHJDdCRNE9EvMWeBqnHjvWsCu/tgmYOBx4ql0xl7HPZtDo8moij9lzkGcn72zBtFE41mrJrFykaD6WSF/qOHUFuhXC+jKDLTaUC0lHIyC7HDhGkYc7tW5N+8lzK0A54YOrdu1rjeKvFwb8C4t0qsmcKbXvBAvgH5GnpjXeI5LpTo26JJc5a+2AvjMEQrlTDzJrVaniCImXgJnZGLIkkcdWYMh65o++DNzt38q8q83Jg0uRykXYQqy7eoLdf48P1l7iyX6Ex8fl402dwQcVgYJzhBzJJlMHAijscBg9mYf/NeyrvNMv/+eyn/2CrywUqelYJJRsbZmUNfVQSMBm8+seNXkF9daV/FvHqV6XTwGZFRIMqXeRwn+K5P+3RCf/9YtC5qH4nBDtxf7qDYy1DzV5933ke/r8i4d5oslzSSNOPDd1rcXy8B8PO9MbYd8uR0iuNHHB9PcR2foR3w77+X8t2VKhvFPB3XY3/i8eRwzNmJOP/srekXbym/fkRkXi+AJ4mMdOgzOpOgf0DgWGJP+FVf9irfnw1IQ4+DwxXOrlWxTIXKqoCmHrRdnu4M6J70adcsUUN2Jmqznxg6/9gqslHM0yoZTMKQL3pTjo8nRN1jEXt+wzV737zSFgSdxYsUqtDYoLpUZ/NaHRAnDD4qmKiaymTfFCU/cyr5LyVfdS7MnCKAZqIoMgVdoPUPTh1mQcL+2QzH9gm8AHXeTipr1Am8Irdu1vhgRaywSRhys1bC3kr4bK/MsLtBWFl6QbzFHnwjTsnX0+/xsn1jUcyQK81b5YqT4Mvv3Gd5tYplGby/VaMz9lit5cWpgqbG4XqNk8MBgRcQ7Dy4Up/6l+5bqKCv3xJ76cXTJBaKLNZeUAQsy+BH91e4v1RkEkY8P7O51ipyd8Uip6uc9Kq8f73GUd8hSTOOjidcb5VYKZjsTzy+6E2xtxK+vVzhP//+Fv+1muO079Dp2Iz7Y7x+WaSEvuYavrdTWqECzS0Ynr6oHFFWbpCM5zkwdyIGZ+mmSLUY+TmlbM7tq2+wslZjc7XEaCbgoL3jCUGUoMqCu3hrs0KSZOTzKk+keffs3pyP8TqW1/zZ9M273Li7xrs3a3z6ZInxyGG4Oz9bs9ICZ8r6B/fY2CjzRx8sUTIUWnmdjuvzs70pnz7q4oUJW80iK9UcSZrRKuk8785Ev8eZz8O9ARkZTw7HHB9P+GyvzH/+/S2+s1ylbur8zfMRD/Ia7nIRz1umc7rG+NljkQh9nUe7gOaMgvhbM7/sC/xSSivWKNx6l+ZylfZhjjAQZ2AWrAJJ3sRz6qS7vxABdauJM+uLgsPIFystZ5GvizboVk6nPxbNLtvHQyYTn0JB50yTKZUMBv0ZNEokUSJK2PS8aKySs0TbB3h535AktI07fPCda7y3JapX2sMihqEy7FZQVRWrbpHEZT66v8L3Ni2+tWRxMHU4nIiM88PdAd2jLpqm4IcxuqbQ6dpMvZDHn7fRTZ3+k8eMe6ucnTnC6egeM+xu8F+rOeqmzmalwIerIXaQoKkyfpRw2MjzVNeYjqYEO599OWWkqNC8BqqBYZWwahayItN9ui3yeHH4pTOJrq60OMQZTSmUCuJY4NCDWZ9pvkKpJU7oWyRQqo0yTn9ZHJYTBJRbolTo9s0aH2xU+N2tMl9slHACccSy40RYlsFw6BEEMfbYxnd90RwsCs49scs6gINgNrUPOD4W9WHPTmJRvTLuQ/+QWNUF81cz+bQhaG49Z8DfPj7DdcWJU74fkTlTTvdl2gdz5teoLbDEo22BdEy6xJpJX1WEl+iMCCtLnPYd/ub5iA9XQz5crrJZKvBZb8KPnw3pdG1h6kejL0N6Cwlc1HKV1lqD9XWLySRgUK4Rj9tvUTVzmfg29A7EwduLArwsg7PnzJIItVSeP4DDeDAFdyxONwpcgpI4yiNNM8aeKA5sFTQe2yL4Hg5dHCek1xkhyzLBwVPRfu+y45tfJ7M+/dM+u5rCbOyIcqOL5+LMj97qngzY6VQJo4Snn5+QpimF/7e9c2tu47qy8Nf3BhpoXIkrL6JuZBxZTsmeS1LJ+DHzNlXzNI95mf+RH5T/4KpM1dSUnTi2JdOSKJEgIYIgQNwajW40gAbm4aAJULZsU5YnL7OfxBJZBzinT5999tprLdsSgKwkAEwissRsIoq/3mCllNo/X3HZ5iH4Q5pNly/jGm4Qsp20KKVMzkaekHn3hKbJ1RXm9WvMUkh05iQIww3ihkpvPhaE/td35Y0XLVWEbEWwI9fxrOn4qqkmYpO6T79YygbKsJgzHlxQO1SpVfZIb6RpD3bwghnnFy4vv6mLorOirmp2N+2p0Ayo7rN1p4ymKTi9hajqz2JiAfQYpEugaDx8tMNeOUnHnfAkLqoiiipwMCmeQFEUZtFCr2tTXX3f5ZkakTb8If3LPl4pgabKfNUecDby+KCY5g+/lni8m+HSnfKkVuLoRZt+qwuN5yv9yaiLeR4y9gMylgElGI9L1EZ7guZ0dvAWi6aoGNVdYVHSc4RTeiSQHKmCrjNPAu86hBI9YWdP6Xdt/juc4w09oVvfrom/j4yHZOXNF9Po+rA+iYsFZDe59/4u5WKCbn8sbJlLwsjBe/4lUvU+9x/sIEkSv9vPY+kKqiyRzSWZz+cMnTH9yz4Ld4CS2xBtAuFUJANLCOpqvEgGKfp8bgf/MoXvlxhPQz551sULZvzh1xLvF1JsJ+KcDEdkLZVYTKNetzj1nBXWFn2ncIrTcThpDZFlSbB5dB3JMFi89or84UWTJKjus1HJCWSju0YKXP8y69v4TZfLJXnPOTkWu2rdaCB6gr/XpEdd2ZFo5pWkX3pnm9vbaSxT5bLrE4yFfbIZN/EMi8xGhmopiabKVFM6reGMtjvB8yYE4wm9Vk90TU0D0dOhaEvEefrdeNj6AxXOoFOn2ahymo/TvHDxvCmPdzNsJ+KkLZ0gnEMJnHGIpsiM3Dt0XsorVGQaXPn4jMczLGvJ7EknRQJUM68N/8OLJiugaoThQqiC91vL9/saInsT1bl1xPqmlYN1V6W19304C3G8CY43ofGqKzjOY5dgSVPqvmryMiUcp77KxumNRKt248k3YsIipAJEE85N7oYAE5/+swOe6hqBH7BYLLh0p5wMhU1L0RaT/o9bc8L5gstKmk7TFk1NgSdgLM0E08IwhDhoOm3i5GxSKZNLK31tuB9etNwW+w93uVW1OWu59F7Z37apv0nZKaLqvk1EHVuqIbSmOq/ALvCLB1U+up2jPQw4iolzCjNxRZm1i3kyGZNizqKQ0OgMA3x/uTBLad6reNuL8Hgo0vpeDwKPJ7USWUsFwWiiaJuEiwUf35YFGTacMxwGuI5HvyHUZiVNZzoNSSV0UpZoHqpmLU5v36X157Vp+M4PEFU5NAMSaRRF4qLrcXLUFmfQzwCh/6iYTZYJzlJDf2ni47oTDptDjl8NuDh4KqoQsnJFmXVOT6gpgh8+GE04OekLMsRN/dm+LwJP3MOWycvRizaxmIYzDsUOWywo26J14UE5zsGpTqczEolJ+xhkhYWiUT/NMBjEKZeTBMEMQ5NJZxOsW7KrVzqEILIsSYL8jijc5jbZf7jLP/+yRHypm/i3Wl7U1G4qrvxTI6oU2KItLVGp4DZM8nd2+eBennLKYDwNhU5H95X43aWQjJrZQJIkQehTZRTlhl6jPzaijHA2od/qUq9baIpMOBc7bBLO2cnE0RWZ339Q4lkxyeNMnGeyDIFoblIUhWTSoJq1iBkKv91NMegXeL42jIphrV4JmgGqQSybIYjFqe6WubeTZjOl89XZkNrRpUCl3wYy+akRoQMTH5SZuPtoJkk7xmKx4PDC5eCblhBWCWdC9mFwAdOA2WWDXpBDN4VNSbdW/3745m0jnK3OwsZzTj2HkXuHy0qaxQIelMWCVVIxdkY+B+cunUsXWidXVOj2xKfXLuH7M3K5GFtpk6SpXRtG3f3NP3Fx1mGxWFDazGPbBu/dytJ1AyqZOP9yO0Va15EkeFbN0DtIrBDr/8sw4mBYWLf3UBSFu3tFzs4SfLC/wa1cjBctD8NcKm8H3kqZNFI19RzmYUnUMn8mcPJazCbgtOm8lOk0bcJwzsGpzu8/KLEz8nlUzmBpKl4w45Ouw6R9LuY0GC2zyCmqajEMQjT1tZQ/kdBRd4QWUy4TI26o6KqMF8z46riDocnsF0xupU1+97BEs/ErkKB78GRloh31Qv5cvRGxJOr2PnbWplLN4PtTkpbBYrGgOwzopUx0TWZ3J023tcfowBH03yU3Tk3YzM6Fak7MijHZKDN1Wj+vfKCsrBQKRg7DYUCnM+JZMcnBuYulqdzPJfmPD8tCn+WkQPu8i+d6bN2psrlps1cRVaaOe/1zKsHWv/5xvpCwEgbOMGDoTThtDnnx/ILa4xc0RhKDOewVLfbzFvNkjF/czuPHMoz1NFPFwrp1n1hlPurjswAABqdJREFUh8Abi4mKBJR/SkSNqaqOef9XPPxwl52tDKVcnMl8jiRLvDq5xAsWSLqCoQlxMDVp0vIMkuUSWiKJHE8Qs2IE3UsS5QrpTBzLjtN3w+sNSe8iFBVkedmtZlwVypn4yIkUnUabUDd4etimPYdCSuP9QoqdXAzdNgkNnclM4t7dHJapYugqzxsOX3z5Cucvf1oJmo2++SujdAnP3cTtOSiaRjjoiK3qdmn0mww675NLmvzbexv8+3sFZEkiE1f5vGAx8qtsF5NIEnyWTaIoEkEQcn54IkRMovMyAh7Hrvhyb0r7I2pUqihKOIZFZXuD7WICXRHCaf3+WHRwndZwGzr+6Ba7d/J8dC/PP9zO4rqC+dnpeIz9QOh0jF1GgxHJJce5v1kRDMx3dbZJkqjWB554A0UqB9MAJsu0vn0sko7WCZ90HYJpyH/+RuZBMcV0Psfxp7TbI0xd4bLv0+p6HB22GDz+9NpQKtMxOG1cbwATX6AA66qp3oBR/ZgvnhfYzBhUbJ0nTZ/HtS5ff1knnoyzW7J5UE1wdDbAdafk8xbecENY20eLZiZI3NnHbTTEk/imRYsIC9H9adTn6H9CzmpbaIYmVLX7LfH/3gAkme7EJwzvk0/HyCUNGmcDoTU17K+UCaZjRicv6Bga2WxMnG1vQg3eNlQDNZVh5iRWcklR9QbEv4MxTMdM2uccnxT4r6pYsIfFNFlT3M12czFq3RiD0YRGw2Ggf1dFJKoNvqkpdNTj4nzAwVmKpmPw1csOtaM2o6efMyrf49XdPAXb4Px8yNgbY9sFoTQXadtrJqTLlKo5moCqqfQD7/rFNkoaIjuq9c/TaxB4A6FbHxmsrreIux2crkPXGQtioOtdiYPhD1f3Tm9AOAuJGYIv4L/LV6NhYdhJCtU8YbjB2A9wOo6AeEwLSdNZRPJVSw5d+7zL5y8TOP6UrKlTsWN8fCeNLEn40zmD0crP5vqirdNj3xThjDAMuej51BoOz7+uCzxpGsDFEV/8JU6zOeTir5+CJPH16B7B2bGA+0FMstsRAtJ+gJ1JCpfZ9XNvMb/Wane9TLZYmZy+4cGKJ+JomkLfm4jX4eu/K0lgxClWsuwUEpzkbUFKf1chSdhZm81N4RKSsQxOWkPG4xmGoQrr6NMMiqLQnvgQjPBcj+OjzpUuysd30nxUydJ1J0KIfRBQqdhc6LFrQ/24Kv/GLe7vl3i4m+OsM8JxCtSDJY1Hj2OYBqq6rM7PF2KXrZvNhTNwu8Ip3e3R09SlLfCamlu0c76rcByRDuOpFTa27vlSvMv27QK/3ErjjmdCL9HbFgvfOhLJAKCUdqmWk1RsA8vSRZPR2zgKfldoJrIiMxgEAg8rgSwLdw5FkUgldAaDOMmkQa9dYjadsXWnyu5OGlNX2M3FkCWJrjshY2mMQ5O9YpyhP+XrjfI1DWNVGGMvxISvc8+iXWBlSJSKpBIGo/GUw1qP9nkHLpa9F06LwbGO56562GfHT769excLYW0/HQvj7R8CONd/juTOx8rqehGxPTUDM22j6wqXw4DD074QuBz1Vmp64VQAnLOQbt/nb6d9jg/Pv1f24cbhtLl4ekgnlQVJ4GGSJBGPa6TTJilLp1xOUs1a+L64h21u2ldJR60bw5/OkSUYhyZl2+QRCyxd5qS+xWd/Wg2lkqmszLz1+ErIv1MXT3e2QiafIhnTmIRzel131Z8fTa7XZ3q5xpd+U9E1Or/e5sleqv5cnXkREUQWLW7T6ZyLvk/jrHelaHCllzgPhTiY59A8d+j3x0JY5V33J/YaokVgNhEApq6TTCdxcmKnB8GMmKGQy8VQVYu9SopgNqfV9RiMRF30fBCwV4zzaMkdmM0XPLqb57O1YVTiNvhLdknMBkVFTWeZzSZI6Q1K2yVu7aTRFJnjpkP3qCYaTtYXxh++cwb/tyIiIsZZOkusdOvzhRSJhC7Mf84vv+0TEy1OTBgYOD3356noLFsahNhNgGQI8bJUyqSatTA0md/upthKmwwD8ZlenDscHbZoNMT5X6nYDP0pli5U0bdScT6sJq4No2aLKdyBQtCtg2GA75KwVHp9jUIhScII6Vx0qNea1F82WTSfrZ7gv0e4yzQ9nAocyr3k1WGN+nMELNI+Wmn+RoqkkV7iyRdCHGzqf0u66J3E+sY9O2AhSVzWBB52evsu6WyCQb9A0tTQVImOG/DNkwaDx5+KtD6ccaHH+HqjzEl9i0d383xYTXDfXppvLedcAv5Os///cdOo1+tsbm7yvys8OzGqqI7mAAAAAElFTkSuQmCC;" parent="1" vertex="1">
          <mxGeometry x="663" y="195" width="103" height="102.06" as="geometry" />
        </mxCell>
        <mxCell id="jz31EccxVryN575QA1fw-52" value="&lt;font color=&quot;#3333ff&quot; style=&quot;font-size: 14px;&quot;&gt;&lt;b&gt;native&lt;/b&gt;&lt;/font&gt;" style="text;html=1;align=center;verticalAlign=middle;resizable=0;points=[];autosize=1;strokeColor=none;fillColor=none;fontSize=12;" parent="1" vertex="1">
          <mxGeometry x="680.25" y="162" width="58" height="29" as="geometry" />
        </mxCell>
        <mxCell id="jz31EccxVryN575QA1fw-54" value="" style="shape=image;verticalLabelPosition=bottom;labelBackgroundColor=default;verticalAlign=top;aspect=fixed;imageAspect=0;image=data:image/png,iVBORw0KGgoAAAANSUhEUgAAAGkAAABqCAYAAAC/Fn+UAAAgAElEQVR4nJS9Wa9lW5Ye9M12Nbs7XXS3zazMqsrCZVOAEbjsB8BGIAsZwQMgAQ+8IB74CfwWhGTerHrG2CUQjQQUZdLOqsoqMrNuVua9EXEizjn77G51s+VhzLnW2ifiZuElhU6cffbea67ZjDnGN77xTfZ//uwxPvYW9/2ApRI4GAfFGQ7GwbiI4+Bxe7RoBofOePTGo1AcjDHMrxhj+gkIwRAC/e5DRIwAY4Dg9BnGpr+HOP2dp+8MMYIzhnwLxhgEYwiI4GBwIUByDusDtOSIEeNr/+ZvXGChJGyI8CHgaDx6F/FioXB7Mvjh18dvbTfdC+CpnTF++Pf8nhindnJObQ2zZ2WMIcY49lOMET5EKMkhGMMX1xVKyXHfWDwcDVwI8KlPOGMQgqFUAoUUkI+9xVWlYUOAjwHGB5xMxLZ1OPSefu9duuF5Q88fdvaQYABPA5Z+5oY/7QgW8cGDIeJsgOhvgMB00wC6ofXhrB29i5A8pIcGfKAOcjHCh4+3m9oVx/vxfB8G+Omds2en93NMbeNgY5vm78sDmi/vIyIHDr2HqhkqxVFoAWbpqfJAAYDknCbffT/AhoAXixL7wcBH4GAsVoXAY+sgGIOWnGaM87AuoNIS1oWxs+aNiOft/JVX/BVvjrOB4mC4WmoYF1Epjn3voAXHqbeQgsOHCBcCAiIeGofj4NGZAMEZbAgwLkIwhn3vPrjPU4swvT614f/vM533Q0yT7uN/AwAlGAopYVzEvQtn7wkhwjiPEAG5VAI+BuwHg02hwcCgOIPiLpmMiMeWoXcBvaWbDW6aX7+qwTGZshBjmp3nyz83KkTqxOlzwGzRICCiNanBgv4gBYMUHJUWcD6iM/Tdq4Kj0ny8rw8MlWJYFQLH4cN2P50oMY3Mxzt3/N9f+uw0uPGDScA5g+QMF5VArThaG9A7WvnZ9AdESM6n5zwYB+MDfAQYGFZa0hIGw0nTzPMhgg1AZzgYm5bht120us73nAAaiJhGYD5A8wcbv2M2cBxkn0ME1qWA4DQY+Wdr0kOGiJm1QO8CWhOgRNrPZjfI5mk0sbM25L3vqfn64DnT5IsRCGx6Xv4tq3PaEhhKySEFA3cMgs9M7PheehYOQP7soUMzBDDW4aqWWJcCP7haIW0Z6G1Io013WNcaIUS4bx+jsSHfZs6yHR8768l+N3+o3Gmt8eAMMI4jxgjFORSPWBUCgjF0NqAdHIyPwBDGQS4kTawmvfa0M562dZw8yL9Pr88H4J/HrM+fu9IClZa4XkgozrDrPHrr4fN3537hDEpylEpA/v1/+FM462AHC2ssykWJ3/lrn+K/+ptf4kdvWvzxL7YIIeJiVeDLZ0v85nWF13uDr7f2zBv7Nu9n8pAYfKCGjCZt9lnnIxiLCMnEMsbAWQSPNNNCiABnsOlvjAGrQmChBVoT0BmPU+/w//xyf76fzdqokieYO/9pG9MtECIDZzR5nq5OzqbVR++f2uiSExPZ1A95spOXG9FbDyU4ehtxDAH3jcWpd3A+zFYaAA+0g4P3AdI7jxgjzGDQtz1CCPjm7RH/+M+3+Dvfv8T7fYc/+2oLYzw2Cw1/VcCGyYR923U+QNNABUSweG7mphXHEMi5G9+PNLC99WCMGg4AxunRe+xdgPP0Two+fi8A+Nns8X5asR8boBgjAhi17wOH6Hw/nZ6TPNT57xwf7kXU+SytIoVVwfH+5HDsHawLT6zOFG5oKSCFFFBcom96ROfQNxGn04Af/vkD3u97/Bu/eYV3jx3evDmgqhSerQo4H8eYZ/a9Z42RgqXYgF6bxz189lnqLJzZ8ejzSpreK1I8sqoUlGD4dKPhfMRnmwI2BBSC4xfbDp350DkolEAIEatKobceg/O02uJ0/ykUoFUxWYPzv9Hz0e95MOj9KV6KU8yXwwrGgLqQkILh84sSz1cSz6oSkhscBw9jw9Sm1A2FFKgKgauFhNRaYL0uoZRAURUwg8FioSElx59+tcW7XYf/+F//FL/3hxyPjx1ebzs835QQgp3NtPklefobY2Asjg8GYIwtOJ82Zh7ngWt61+xBS0V2vNYcV7WElhwvFgqN9VgqgVoWqKSAlgx/se3RDA6lElBpVd0sFXob8Mla4zh4vD+RiQkh0oyNLJm/qW3Zcch/m8/CbO7m7ycnh8/eQ8+6rhUYY3i5UuAM+HxToFYStRKIUPji0mNwAY+thbE0o6tCYFVILAqOq0pClqUCACyXGkoJOOexXGoybT7g9esDfg/Av/8vvcT/+Cd3uD/0+PKmhloVaI0fg68YAevC6DFlN1XMlu48QAUiRPby5gPEATnrDMkZrhYaF5XERSVQKQ4fIyKAkwm45wavFhxXhYa+4VhogV8+DlgVNGi9C7iqJI5DwEUlcLNQuKgkbo8G28ahMw4RQJjFRYKxMajNgwFMXl9ubJ5kkpOnKQXtPSFEFFpgU0pcVBIhRtwsJI6DB2MM+8EAABZS4vNljVJw3J4sHls3TqpSMhQiedMvni+oc0PEq+cagjNsag0lKQax1uPduxN+/0/v8R/99Vf4w69P+GStoSXDY+thQ0ApOXwAvt71kJyjUByHzo5OQEYKZLqp4GwKhtNqzBZQgMEhQiualUpwXNY0QCstYHxEMwTsOo/Xe4NbwdBfBbxcFFhrhS83JXi+h6cvtyGitR6NEbiuBZ4t1LgHvA8B1gUIMPhxMrHRnGeUIsbpOfJKyhaAM0BLjnUp0Rjy1mpNkyTff98TvOYDcN9YXNUWn28KvKhLvFpUKKXARWXRDAHPFiohJBG73kP+tS8ucOw9OuOwrjVWBcezBdl96yOerUu82bbYtQZ/+PUJ/95v3qBzHpIzrLSBFhyVFBh8QKkYFlqglAxvDhIPrcOhs+Me9nylx0G5PxlaOcl70lKAMWBdSrQ24MVSobW0vyw1p/aEiIfW4b6xOPQOh9YCAI69x+HK47uXJa7LAje1Quc8WhtgfcSh99i2dlwpm4JM5qoQeGgY3EfChfl+EkIE4xzOh9m+dA4lLbQYV++uIweoMQGNCRhswN3RYt8a3B8GDM7j7Z7joXH4Ky8DPlvWKIVAKTx2waOxHveNQ2M8HhoL2bs4bmzOB/SO4fZoYdKO73zEy8sav/5yiWcLhdZ5fLmu8Sf3e/zTty0646ElLXfBgEL6EVLatxa99aNn9P5oxg7IGyWZSjIR2UlwIaJ3FLQWguOyklhqMst/fNvil/ctmamEQHTG4dAZ/PJxgBQct48tTr0bV0OlBda1BmPAaQjwgTqAvEKClGKkwQgsQoIj8mzqkjXg556oT3+jwQpojEcA0AwOfXJe8v3dzKucgwDzifCn9w2+eujQDG70QrUUUJJDbk/DGUB47G2KW8I485TkkLyAlgQZ/ehuh0oKfPPQ4o/+3zt4H1CWCpeXJcpC4ne/f41ScfD0oDkGcpzMiA9IbufMRRdk6qRQkAJYpNWTZ67xHjZEbE8GTW9hfUiDymFcQG88do1B2zvc3TXYPzbQJe2zL14scbUqECNwd7KoNJ/tpVNsNnmtATKy1IHTisnufB44+jUCKf4yjkynC/OBnJ5xjgNaF3B3NPimlCgEx0/vWtwferIyuw6rRYGLhcaLdTHu0Zi15YMrRqAzAQ+Nw0ob/Phdh/eHAX/3t2+wPQ342U/vwRiDcwFeRewHD+vjuO/kWWRcgBC0IfNx4/0QDlGCQN2ritCEpaY9xAaPdnA4nAZwzlBVCiFGtB2ZvRAimsbieOjgLCH3zYE246t1QdgfZxh8hORIe+kUD3E2n90MSnBEkOOgpRjfm52MgFnnI6K3AcMs5pksxcf71fqAbedwkTy7EIFlKbGsNYq0J4cYp0HyT744d2KOX1wI8DFCC47eRfzwz+7wbtfh3/4rz3E8Dnj//oTTyYBzhk/W5HY+NByH3uPQWgRErEqFUnH0NuDQWQjGxqW9qTWWhcDLtYbiDM8XChFAYzy2nUFjPAaf9i8toRTHq4sajAEPgtPqsh5NY9AcGnDBsVgvYI2F1gKCc2hBeNmqEFCcQUuGeyUo3ZHioOz2K8GhJK3mjnlc1hJ3kSYei0DkAJJTITnHRZowSnBCCmb9mR2P/Ps8JuwMTehDZ3B71+Dqohw/6zytSvmxkaYIfJoleXaVkqOWEpIDxjj85GcPeNz3+Lv/yqf4/T+6xbt3J3DO8GJJHc1B3pH1AZwxfOeqhPURjfFj0BmCT8Evh/ExIdq0Ah9ai13nUUqaVcZT+mG90FCC43qlUUo+2vW9j5CSQ0gBpRUuLkpU1RLLWuNmXaBQnPbQWsL4iH1DDtP5c5PZ7S15aQQTTSFGfGLC8udaG1AIhmUhECPGvTgCTyzG9DnGgGUhcFEJ7E4Gb14/4nSqIaXAs2c1lOB4bCzkh1D9hz/n0EnvKWVQFBKMMbx9s8c/khz/2d/6Ar//pw94e38am2LSgIQI1JqjUhzW+w/A1IxphRBxxwks3fccj61FZ/w4q70PKJVAXUhyewWHlgybWqX8S8ByqdF1NZSSKEuJy3WJZ+sSz1cEIx17SsEcB49mcON+FGOKcSKoW8V5G3Pgm/six0OENOT2U/hB6DbgZ/DS+aBO3yuTc2GtR9/05N6HCK0Fbq4qxLm5e3o9zYUYG/D144Ai+f5FIaEUxVGvv9njH//4Hv/B77zA//7zAp3zuChUyudEdIY64/Zo8NDYtLmeJ7nawYExYNel9PoQyU6HCIv00wfcrEtcVAKcAVeVxEILXNcBzUrhZl3gKy1QFAJKCdysS1yvSnx5VeA7lyV2vcNfPLT45QN5ltPGngcoggGgdFk4B5BnKfUMvGavL4QIYz2a5HTlVfKxyf/0tfvGYqEFrjYlPv3yGTabEl1n8fLZAp9eLfBbLyrI+UDMU+Tz1/N/BZ/igc2mAGcMSnEMg8f2OOD/+uUR/85vXEMm83NVU8xDD0/u9LqUlP/p7Fl6elnSfLlekKtdSo5HxbFvbeIQMDBL2cxSckjOkutPry20gHERi1LBLAMKJbAoFVTKKjMQGMvBoBOWJ9MKzgFpTA6DFBMeB9BnMsciY365j0ZYiE+wkI/TKpv3ax5gACkbEMe/XS0L2BdLbBYag/W4Wha4WkhcVhLs9/7pm2iT7y45R4gR+8Hif/rJI0XVCZcSnOFiofFXX1YURzny4j5ZK7xcajDG0FiHF3WBz1Y1HnuDh97gzWHAcfAoJMdnmwKNdbg7Ofz8oYPkHMfeolQCn10W8IE68p/8fIfBeVRaYllKVFpinVZNY/yYpZ1fktN+cLMgnO79iWI0So8AQvBx9r/aFHAhorMBh9bCBYqXaGWwFHKwEeT1IaLSEs9WanzPTcIQD73HcfCjqawVx3HwuD8Zul+cEqCcn+OdgjFUhcCvXVcQHBgcBevWRzS9pf2RM8hXi4p4AD6M9jHPhLwkI6ihh87i9V5i17kx1sj4WgRwUShwxvDYG6y1gvURp5IScSFGdNbj0Hs8tA7t4MBTDmZgQG+pk3yMuNu2MIYwROs0XBVRKoGFBqyP6AY/tjHE1LGC2EM+2f9mcGO2lmawS6kNCqrzvpJZOtnc8ZhzTSlnlDrUhQDJGFyMUGlCCM4oRrMMvQ3Y9w4nwTE4P5rzM5rArE/TEsVgA96dLBapP5uBUhfGh3FSyUJyaHBoF0azVgo+eXcpLhCgxNtDa3HoHI4Dw2ADHjQHB8aBuKgkrioaoOtKQ3KGhRpwMh5aMKxLgX3vsSgVCkkduyokPt1oGB/w5mCx21FQt14XNKsFpQGyl5dn55QPotdEiOiMn5mS1DmzIDSk/efplb243IlPU+iCM9w1Fu3goKVAITlKSejMY0sTgkBWBh84siGfmzjED/emwGjyNwMDA/VpnlzZOZH0pVN+KI72kr4kr5a8mo69Q289QPEjjkOADxZNQsRbG9DbgFPpiHBRargQsR9a7HriGwDkmS20ACDwbClxXSvYEHB7sGiOHcCAGJeoNHlzteLjZ+feFbWRTIkPEYP1EGKegT3/OZ/RObSg/SgHs2xMVeR2AoQpvj8MeL/vUSiOTULlD71PKA2ZRMfj2Sp6eu88UcbJwSn2MnlCYZp4NMCApExmGPGluctNDzLB9Hk15U7ijOHQGlgt4WMc8TTFGYyPWGoDF2hF+RjxOBjI1Jml5GPHZ7ipsQEBwGpTI0ZK2X9yWeG6VrioBErJ8eZgzh4AANLYTa/5bydgnHcYxsESqV1PvTKXkPRTYhq5ECA8S0wq+t0kILguKNTQkqU46VubMaL+Z6+lpKGbxagAICntHM8+zNnMs8keDGbZxzT7QqQ9hDFgqcU4Q4tklo6Dw6638DHieV1AcoaTdVhoPpqdwROMb33E7dHC+oibmxreB3IaFMdFJXBdKwhGg5kD7PygbPZzbrY+ds3f65/04sc6Ls/spnd4vi5GBGFVcKxLgeuFAgODTQh5rTk4GLYnk7gO8SyBGSMbzW3OAAuezLkSGFwArIejm0NwQPY28QNihGTZcQjnD47py56vNN4dzGhaVqXCd65KVIrj7cGglByfrjUGH4gN04dxBV1XBVgyI40ZEBmlGWiPEZCMQYlpPzl2FncnIrwITmzPgJzipvZlZ0Awcq2vaoXeBewaAzZrf05GSsFxudQpfiOyZ07gZQLK09WUJ0WpOFaVGj25bE1WpYALBDs9WyiECKwqhWNn4VJHf4zNyhh5eIUSKWdGicFD73HsLAZH4YvMQatIIxsice6ecsfyTSbOAhJfmWNwBCxuW4t1KfEu5XtyMtCHiJPxeOgNXtYlrko90qPWJbmal6XGQhs8tA7PL2v01mNdk+MxOEoF0KAQVSvMTBxPMzGb0txeHgEp+dlzEFePsLuT4uhsGBGHQzBjyCEFUce0lLA+EKoRI4wPGIzHlpNHlydZqQQ+3UhcVrS3LrRAZzxiDHjKusiDla2VC5TzAgDjCDmZ88IlkeHJe+OMSCA+xUc5TpoHs/km2UT2NqARAZwRtnUaPH749QFN7/D63QnH44DDroEqFFarEt/5fIP/5m//BowOGLyHDwSi+jjgsfWQguEHn6xgfcT7w4B9a7BrgG+2HbVhdB6mB85tk4KgpO1pQKUFSiXwyUWJhaaA1vqIXzz2WBUCUjC0lgj/haBnNImZm1eJC5QO6a0H7xnKpUJnHN7tOuxaCcEZHo8DAODVVY2/+qrCZUEr6fMLcqR2HSHcT03rHDTIZpYmLWWvCdukz8gyVUhkR0EKoOj5DEjMbyUv5P5kMCROOGcMh86OYKmd7W9KcGhN3zN0A7zzEELgYddh2xvc1AX2g0GoAB8HdCaMQeFj62B9oLgnPMW+KE+VY6R8+UDoAUBQZqkoYSZ4MoecwYWIdnD4Zm9QK45956Akx6YQWBQUmDpPHGzn6b4ZmhqMx7ZheLfrsN12KAoB5yIeHlpaDc5j98Uam8JBcQ7r45hUzIzec3RnQseto+yt9QFKEAhMHiI9oxydAEwDdUavyt82u0bvChMVOL83MKDtKVjtew/vidPnvQfjDM1So/ceh8HiotBp+IHOeYiU6xGc4Tj41Ok5JkKa5RNvb+5ehxDhfcD2NGB7GFAoAc4ZjIvgCMmUx5GfxzVxxitFDkCZPE2VICHjyWtbVQqd8agLia/vT3jz5ojmNGC5KmCMx/b9Ft55VBUxUkOMaCxVpAwuwDyhas2twJyFlJOj1rlxguRLKkH7EGLOHRHOloMwDkaBIqb3zS/vI0KYFYikz/XGo20NpORYrBZgnEEqwufuuiENTsSm0LA+orUJDhk8mdDhwwqIpzzyiW+OcePf1Bqd8VjXCp+sC1wvJLSkzxwHD+MC9q1J+0VEXUgowbCKAr2l/I1PFsFHWnk+0Oo69Q77XQM7WFxe1dBa4liXGLoBMQKv92Y0a+9PdkyDzDnjHz7T5I3OK1XmFwGsY9yDBM2cM/xH7yh+yPHOAeGcqXrqHe1F+xamNxBCQCoJpSkZeBwCYhwQQTDPTXLPayVxMBadDXh/FPjqvkUIjAJNELv0L7t669F2Fo8nQ1BSwREiOQ+ZPcTYhM8tCwHFOYa0YXNOWdhC0Yb+bEmA70Ul8cOf3GN/v4c3Bo/LCtfXC+hCwxmXXGie8mXhjMPx4USbrqee5Mcu6ZLdDyEisg8WygdxUqlyPESjvqk1pODUOYNDXUj4bYu2tTjtTjDbe0BIXH3xGZTiqCpCD3obEqNnQiYYAzTnaCXNwPcnhX1H5BW65YSMcLCRc81ZTslPZu/QGijJsdAcL1cahWToHXmApRKoNWFvPgL73sFHoEudrVP+KseMAKHy63WB5cUSpjcoCoW6Vrh5tkS/KnF5WY0BunHJY05Y3/mAkLXK3l2mj50VuIVcpUHPJLPPn6sQQsxE9BxbTDeYB4+Z2bPQAnYG0QDAxbKAuwno+0vsGAMYsL6o8erVCqtKYdc5NLnIy0fUSoIzhk2hobhDITgigOdLBeOpWuJpeiCE87blFV1ogTKlKKwLOPQemzJAcD7SlhkDtKDAM3ty3lHHUdGcwKoUkJzh+VJBcOAmhQNFWdBKTBwEITg2mwJX6wKCA61NDpAPf2npzLddjBGrNzB6Rvbf/cEvYgASU2aKg7adG1HexlD5i3Hksg42QKa97NeuChgfcXey2HUWz1ca+85jexpw7CxB7iGiLCSebUo8W5Fp2zaUSrAuQEmOdaVwWUv8rS8usFQKjXX4yfaEX+wMHo4DTArsRowx4ixyzzWmlZajd5ZrVGtNkFKIEe/2Ay6XmhKGBR+Dx9ZM7vepo/3E+YhKC0jBcb0q8HAccPvYwvuI602JVUnccusD1pXCuiZHKD8XZxjvXymOQvCp7jc5CkMywc2QHYZZpjgmgPV/+PFDatwEBn732QL/4Q9eoFAcx8HhbdPhL3Y97k4UpErOoZJbWyqO3rnRKysEx288U3A3JVYFRy0Fbk8GX+8MVgUlDP/kzQnN4PCzXzyibS3ubx8QQ0S1rHD3d36A//Kvf47Be1SaYhgAYzphcl0/BCsNAhYF8GvXFd4cDB5PhthFrRk/Vyox1joxRvTj0+BhrMdvvFgAAH7yzuPPfn7AbtfBO4+y0qhrjc8/WWGRBibHkKUScJ5Kbw5dAwaMFYhVofB8qfDdqwILJVFLiQgi8zTWYT9Y3LUOzeDRDh42x2nJHI6piry8REK+A1LK26VSE+txGBx++Tjg7WOHwXp8+WyJVxsimzxLs+fQexxjRJly/IMhU3NkAXcnQs4z7pY9oMVCQQiO7XuO7nRC8AH3hx673uCi1PgkLWspGF4/9ggRGFImlVYRS5UN9AyFFni+VHi1UpCCQQuG1gQ8NsNZQm9ZEBZ4vaAq9UMXEyGT6mtPvUPTGOwf9rT/VAXaZYWrq2qcINnjGxLzKQPPMQKlFugMUa2PnUpwWkAsgcEHVFJgPxjcHi1e780Ixo4AQiTKc75ktuV00b7kIw1SITh8pGjZeeIY5IBRMuCiFPAx4v3R4r6xMNbjTnLcnYAu5UUAjEm6ZnCotMTVsoDklDIXnKEoBN69OyHXSv3i0GLwAa+WJQpBJfW9pYTerjFpRYUE7rKxTD/GiNPg0fuAWhGNeKnF6NTkQuPWeMqKak7vTyQYxRmRNDlDXWsUVQEA0IWG0gqFEuNAE9dConcxbQs0YIXiuFgUI3FGCD6yX0fWK6jPrSf8sLd+qkTBOZ+PMZwTUSYsCbjvB/Te46Ez2LYO+9bg2JqRJxeSd3IyDrsUvIYQ8Zj42dkFzTYWIGdkMB43CzVSsa4qCR8i6lphvx/AGcOfP/QIiCgEx0VJYO3jyiFESoP4EHF/Iu0Dm5KVWnAUUox71rqQxH/glFa4PVB7dUpoCs4gZ/hfNqXWT8yl9cUSQ1VAa4mqUrha0aAJxnCzIFNG+TMiofhgR45EqQRMWvGtDahtwJFRZXyoI/adw0PrcOyIjbtK1S0fu0Yiytxf763HL3cDSmXxzW7A+8OAu0OP0ymVbGiB61pioSQGRwi35Ax2FitNaetZKp4BSlBx8iJVHVwvJEKsyeu7Il7Am11PZBDGMPiA53WRmKTAbmlgfMTrQmA/eOxbCy0pgbgoONX9RMouAxJLJXBcBuw6l5KMVBkYYsRxCDh0uRQyotKEPuwuK+xPA/reoa5XqAoJKTi+/7weEZZNSSYz7+Vv9nykKStBnmVIyExvqQqkdxHvThYPrcPdyeDQWtwfengfsCjlmGgULJu75ILnGOhyqdFbDy0FOuPw2DqUiuPuOOD+0ON4HFAUAlVFCbg8I3PZvRQcLrnF2UOcQzchUnKOc4armoqoBAdWWoKv6bXBl+Pe9/qxR29pBUVEfLKssB8sJGfYG4vLWsLFCOPECOWIZELeHQlZb23ARUnZ00zgzw5IayJ2nRsTlSES//zlogBnIMRkcLhaFXi21KgUx+cbDZFK9zkDLovklkuBTSlGb3KpOU4mQISIouR4tqQCMusjrI94MBbv9z3agajQSokx/hyz5ESqRWQz3l2Gx2PMs4FyNpLzUUZFSoF1pYk+5Yks0bsA4zPhPcDYyUV+au7mAxZjHFMLAXHM0GZCRogU8efZuB8sVlqNsy23FaBAs1TkCfoQ4SKZu6WOWCQoat9rXNVyRARsiOCgABYZ0XcRvacVoJWAS/miMnU8Z4l0E4mZOniPEPnUZ4mWLNJ7eusJIrOEDQKA5CAUJfWLEDxBUxyORYRIIUku7/eRQeaEHgWltNwfk2QN54zinWaAtQFaU6ngj29bnAaLJimMSE4Fu883FUrJRj53IVMyLlVHDC6gkFTPVAqBECMqKZJkTsrp9AlotR6PDe01uyWZVA6GpZYIoM7vdYCLGPeW3oUEzMYUIqT4Pk0OwSk90RgCP/PEyYH6j982+Er1o4nORJnXeyqp+Wo7nO0VPHnFIZn4zji0ETjyc+2ktwcDLXmiLRNg8OWzJVW1eFwAACAASURBVNYlOTYA8MvHAcYSh5zPYEvBGKQLlPbNki4i5U9y/ebdtsXt7RHBB1xc1rhYarSJjHI4DbS6FhqFjtiUAlowvFgoVFKgEISLCQ5IxtE6RwBmWkUhIqUQKKflYsTg5hXiNNuMj3gc7AikrjTtBREAYxQDDT4H3NPKLQRlS7WgWtuLSoyQTaavZZc6JM8xEyMl52PeLPfFPCc0J7PkRKEL55UkUnCoQHw/Izk6Q7W8PlCSML+vT85Hnqhzy+NjhJScouCp4oCjGRhebxtIwXE6UZWC6Q1CCESCLySZAs5Rl7RUxy9PD8kZg+Kc2KaMjxUaPMVJLG2KBRcIIsJ6MgWcTY3rLZEMXxeUXqbyF4kYgU1Kc2TvbdsZWO9wMgGdIV7gJoUItRKpPcl79QFDIk56n+Ob3DFsvP/HsM9vExCJEaMDkidfjHFkImnJ4YPAqqKk4POlGk1g3i7y9vC0wFpmlassppQ3TWuJlqSUwGJNaG+9KLGoFCotMSTRiFeXNdYVkfdfpiCyEAIrLbFUKs3KjAlS0Cg8G70wEpeSGFiAiyE9TEw4IcmmHQcPlzqy1xRFRERcFBoxGhzMgIfW4d3R4tgR8SUXCedVk/eiXecwWD+mIvL+l7s+M4YIKzwfpjk+OdKFZ7I1eUVOCVM2VkzmRN6pJxD30PNRBe3YuzErDEzVgHk+SJ3srhQkkbIuBY49x3bbwrmAw65JEAgfzQ+JMNGeUqrJFd2kmKcSApJRiSbp0aWCYZBkQN5fOM9yAgwFOFiYF9nTZVP5/ODJAXCRTJziDDGaUQbuUVsyT4mRekyFZb0NiFFh8AEhlUpks/mxVcE/tnxmVzbFWW7nY3/L6Pb8vZUWsJ7hekFF4S+WCoOnyXRKVenz9mQAWwsOmV/POf1moBW02ZQ4nQyssWj2DRabBRariujCxo8mA6DAdVEQ2wUADtqOzoB2fEwcHoyFj+RZ9d6DgWHpJVwkbboQI2xyQVlKE/A00CNRP5lDGyIOhmTgbhIy4EPEV5xh31psElcPoLhMC44XS0pZUOW8S2n/NIPD1DmZYjV22Cj4g9l+iTG/JtKAxMRhBJDgJ4WrBZnnHPi+WCoERNRSjJRlHyLuIu19jFH9cqkIaVkUnBwHgPgJIcSRo/DdT9Y4dRbeB9ymZV6WChc1VZA3vaX0sethXcC6VqOd3Q8Wg/DovR/3AgaWapsiHnsHLWjgVlqOMIlkbFypeSZqQVgbJQVpnQ0+4LE3uG8cHjWtmJuqQLgknO/2KJLuEEdjCCvTImKlJNaK6M0PrcP7o8VDY8aymzwpsvoKZ+ccvnm6JBDkMqZIqG5KYN9aDM7jclHg8wtC222IuCwlHnuHSgkcBofGEjS10Bw3KbHY2gAt2BhX5QKGcSXFGAEOeEsVEC/XJbpKZ5or+t5iuVRYlAouBLSDGPetdnAIMeK+sVgWAoDELngI7iBznkeS9yM5w7Z1aTUE1IoA01JyFJKSX5JzVAV5QYUUqDXNKpUYPq0NePC0B2WIKkSMBMxadWPHdjagtR6DiyiFxfO6xKu6QimGxGEPySML46qQgkEkYh+PkwjU03KguWt/WUu8Wms8JELL86XCpiTOuLe092xTxcTbg4HgDNe1xM1C4cWC4rDeUo7tslLoncdpIJkDObd/ebAGF/Bm1yFGYFFI/Ms/eIbvPavxa1clNlrhZB2OxuGxc1gVIlGQAn563yOmuOX2RGnwjPAyBjxbEi/8LkkFPBx7rCqFwVLupdISN+sCl0uN50uVbDVQJ2anTaWagw84DmF0En6eCCSKc1xXBa3WweIwOLSJhdQMYVQkWSkJLagM8qEV2HMG41IdkQAANrJwGWNoBwclCHfMA+TCxABSErhMMnRTUQCw6zy2rcOu8xAceH80KKTArqW4r7VU0f9iUaSJHM5ozfetw7ZxlJl9ek2JJ8qZDC7goXVYFRYMFKAXgo/43W6w2PdUB7vQAr2L6SHm30fLmTNQfgfAPuV7jkfC7MpSoNBX+P5NhVcrhd5PXs7tgfa4XJTWGZfQ+YDHxuJNQSIfPtIeldPe1hP8k1fVcSC62EJJXJcFjsuAx9bRJEjV8YtS4bONHoHYuxMN2ptdDx8itBKwvR0r/RaFxHVNpf42kBfZgGporSfQOZfjHEFpDcsY3u17xBhhXMSuJ2HiwUeUkuGhsegGEqvKzOKPUmuzC1oqkZQaiXqlhUAEmaXWebw/kukZHCmPNEl7LteZ5mvXGDDGCLBMQOSqUninO5w6C6UImLw9UlBZK451IVMpDkE9ucqh1hzblui4m1phVZCy5N4QLfmq1FCcY6kELkqLt0eLUqYC6GSeayXR2ZCysImpkwJSm9D+dkhmxxAMFiMQzVwoBDj1Dm8PFpX2+PnDgH1HSjF1qiu2ieAy8cGTPkYKtH0kButpIPR9UAKDndLvY9LvQ322Kb2gJR8pw7vOo1Q0ozkIinl7MDj1Ft5HnDoLI/kYPeeVxBKyK5BkxRLW9WpTgHOG3WkYRSoejmQOVoVInG8q61yoAJH0F4wXY0xyUZGTAACHIac0ONaFQkxBdEASdkqmxIaY3PK5cMYcX4yIgVz4LKKRSyyfslGto32PMfJ0Q4jwLOF56Tm15KMsdowEuREFgbSSOhNGtCLHiVnvQmYgFGOiaXJ/540xLoIz4nznaFoIojANzp/xl60/D8amgQK04vj8ohi1iz5Za9SKY1tJ6jwf0HnSTl1q4mzTahBYJMJKKUVC3In8CJCOT2fpc0MVsVRiDHhdGHAaPJRgOJmA90eLWnmsS5FKS8M4kQByhHa9AAdVhjh/ThN+Gl/5GLFtHPadT3w+6oPHpGthnId1BA85hPE7CNkgb7W3HsbRnjmX0RnT57/qKpTAzZJiDheBXRcQo8N+oCxqazyaJE+ZC85y4u2p7GcuCCgVT2kDWtKLRBSxIeL1nvIsj81AhI4QcVyGMyViLShvlIV316VAJQVOhupXd53DRWkhGMd9GHBdFQnRBu67Ac3gE0t1YkpNnU+TdEhE/rmMwAdCjE8GSs6sURZQrDXHrnNYlRLH3qGQJMYhBEchOQSjBTCVakYoQQ6IT18nn1q53NDccNJHoARZ72iT9ZG40XnEz6CV/Lk4YVFAii3GzsgkEsqv5A4Qs1jIB2KP3h6AfU+Zz11HeN1VTStqSGkSxSnjahx5fYIBb4+WBJmMhwsRLxclDsaiTKWUOU67qASOnUTTU1ZVCY51rVEI0pPQgqMP/oMqk/nFEsGlVhzHjpKfpRJ4sSI3vFQcSy3OSDU2UdU6w8Za4dxP489kfeRchjJfhBDzURLz5YroViScQZ7aFoD0bLwhAPAUSywrNVMSmcxICESRKrMWhCSaU0z1UJKzlFbPBVb0r1YcnClc1TKVhkTYQGWfAcB960YE/KIkHmCZ0iQyBaUHY7EpFAYXsCwMnI9oLW3YGTdbVQqcMzS9xXG2ny5Kep5mcGd7Vv7JIzkHQbLEJZyKBEYHqCT0QyfkxIZcXEZF3Q8NtUkKhkUhx36lHBb/sGhqGlVKih16j+ta4qJUiJHsvw+kdqIlzeBMUuFgeLHSWBVilKjJnd4kOZqf3JEr+37f4XJZjDyFOqWpc0VEjBjBWWp0xNe7Hu92HW7vGvS9gzEezamDtx6ffH6F//rf/d5ZNeZx8HgvB9RSoHcez+oSjAGNdbhtBvQu4NRLWGfwYq3BGcM3j3SPUgtoyVP5jMDP7toRCssBLmcAk6T2+OlGo1Qcu87jy0uNVyuSHV1pWsHZYmw74pdryRLNDdCSJvxFJbEqSAph1xFSL+d2OJsiWmlkrgZHmgiXtcSzBcemlPCB5MgGT7rcuibo45cPHZTk+OaxH9UhT70d94NMqjx1pByy2/Woa4muI2R4synx+c0COtGA27QJ947gqsbk2l6GxUKjKAQOB4P91qFve2y3LVaawNRdT6HA3cmhGQKZnIKyq9dVAcEYHnqTqgs5pJhKX/atwak1ODbkHJWK9PKy88MYA0s5MLIIFBhfVSTLeeg9rmoFyRmMJ/aS8XT+B2cM24YGqS5oL14VAnpB+ORKizHMaAayFnKO1ubV8/Q69Ra3R9rMtCTpfh9Ijkxx0jltzOSRNL0d7WrEVC3Q9qRucnfXwHvibHsfcNgTjNM0Bq+ualyXEleVxJZPHdHbONKZs8bpxVKjKCTalkprOOfoncdKS/hAHVMrP3LwjKOyFMEYLksqtq7lkLBC4NBa/OL9Efv9AGMcScN5ut/lukxKyhyVlugMJT6pUK3AZ+sCF5pkDkKkzC8DeW53JxoU4l6QpiBAVmqwAZcprS84aZ0rwfDuaLHrHIz1k0rXhw7EZJNjpNEHgE0p0adOLyVVWu+HdJZEZrhwoic7T6omTE92POf1m6aHdx7rdQkhBayxsDZAMKJ5XS8kKk2o974nj41jOquCAVhWCptawxhyXYtCYD84bAqFWkkIHrAuSbfVJnN52wx46KlEJUNI71SWCbV4/77B7uEIxhmqRYXT/oTblA5/ti5JhbIkKMnHCClSFT2nzPPbo6F0uaBiAeMj3u5J+NGkAHVkUrGIU08DZ1Kfvk9BbpZjCyFCTsT383zGPKkVQDDM+xBGAafsFNwrMQo8AcAQA25WJUIk78yFVAMkOWrjsE+og7MOfdNjVygUhYSUHFJSBnfbOQw+jHWkp55YPZ1xeLkukxRpxKoktLvUAptlQVS0RzPumyFGvDnQAGTNBeMDOBhqOSDEiJuqwPcvqYO+eWiw2x6xf9iD5XxOqcfzoDgnsZBPNxovlhHbjmhYn28KFEKgdW4sr8kTfUjC8hQTTSou08IIo1onSwGsdRPnI8YZOfJjkmoZGedxMlsWdDOflYL9FCXHSND6zZLgm/uGY5s0dkolSOqFMbzTLTjncNahObRQhcL1zRJVJZPekMOhm0iKo4SBj3i1Ifc4b9qkFyfxcq1xHKhctEl0rHmJ5qEl8cFTL9MexPBOWXz/MuDVokIhBP7Z4gipJHRJWklccNSLEp99tsG6Irk2JRg2hUQpBW4W5O5vtEbniY4dI8VxnKUKi96PZaUfO1ohRkCk/3NOlRRZOeUsmH0yPh8dtKcDOJdimQ+qD6QesiqmHOuxJxS5Vhyu1livCzRNCWcdhKQCs6qSuFiXKNPKdGGSK5sT8y9KgatSj7VDknHU0uKykmitx//25/1Y1TB/hnx8gnVmlL6muiagEPSd331W4U9erLFcVaN8aFkKvLys8HxdYnsyaE0Yzb0SHJUQMIHULd+dLAZPILILRHk+9nZE+cGnjqeN4bzSb56ynxfljdjd/Hq2LvE3vlgR+yXQiS9z9EBLlgp3KXVAWVPiVhsX8fXO4PU+pn0ppk4irnSIES8uKpIO81djY5SgE7l6m6GVHIekfTG17Y9vWyz0MMYYgmV1kjRT5ytvduX0NJEjPfYtpUvelwIvV4QV/lvfucZD4/DVuyO0JAdBCIbPLyu8XNH5ErcHg//5p4/oDaEW2ZTn6oq8t0hBOkETq4idIRbZEkhBhdq//cmSZAVs3u/ZeA7UE8I+XetS4HsXK8QYcTQOu8GkKgvythTniX7lcRtIYWpdSLxalDgahx9+c8KhNed5/vR/yQkOWZUKheJjbWyXSPQ5DhkfLGUo8wx5vZ0SeqMGBT/PqGrORnORr8zlUCCzcrkg/PB71yWuCpJxu+s6/O3vXeLYWfz451sCQSVH2zts2xJXtcKuMfjJXzzi3dsdYowo6xLLZYHvf+cSv/3ZGvcnOwahi0KmgXHjszNGstY5DcITfezTtcZCSRwt1SkttMBGK+I4zMWO5tc0k6nC4q6xMJ6Oa8v2tjMB963DUnNcL+hQD+PDyDmjjp5DHVOC0aRqc+cjCkUDVygBrUiFMQONHCwhy9Sup4d9zFPe5Pmx0bGgFUwdtK41mhQCAMCLpcJlLfByUdKK6nr8wdcn7BuDv/FrG3zz0OCrr7YIPqBPPMPTssC7xw5dZ+GsG4806pse63WBi1+/StwJktjOsttjbMXSuYT8nB/BGdD7AMEpHWJcHCv7i8CfSE5jogfntIFL3khjSM8tkwrf7gd0xiV+g0bv8nEIaXYnV3k+ATLykGt0TeKpUTpEYF3KxJmmKrxcR3p3tDh0ZhzsXJ4zcQ4SgSSBlp9fFLBJ2m3XCxhHCbhe8LH9mfddCI53bY+fPXRoeouffrPDm8cWf+93XuIfDA4//bNbbLd8VAHb7XoMg8Nys0QIRNi2hjzIzKTNug9ZoyF7bk8ZQdlaMMbQ24gYKZOcTyYj7abEcQjpoCYAY51sBhQ5I0J6qRj2/ZRdbXpSHvE+YlkquJR5zamDj6/OpFeQgFljCfzMiESW6iwlx7IUI71r13l8POj+1aBnTBQx5yO6SIFzCPQ9jSE9pYOxuGss3h8p08o5w09/cod/0Fv8p3/zC/z3EXh4aBFCxKkx2O1aDO2A5WaBm5sFrPU4nQyEIJJ+9iYD4keVUD7sE3IhlJj0mwrJUCliAAvKJ9Gb5pVlQFKOYhSwwgBVKso69CT3LxNrtW0tTr3FdVILHnKGc3YiyjxDq+WUrVyWJAND7BgiV2ZRjEJwcqUtCVbk/YVz9tGxySzULA7VptzScXBoBjpNk9QxSXE4C01JwbEoiJGUkQBnHX78o6/x90PEf/K7X+Af/ckdHnYdus5haAe0pxbee9S1glKExDjnsdQcq1JiH+yIH8bZvjhfRR8DECjJR1TrhSLSjmT84/kknkZUCYYqCKyUhC3InG1KElHvjCeqbpIQkynQYwx4+2T2zE/1ykCs8wHK8tEryxODBNDJnLlInZ1hpb/scp4C6HdHKsPM9wkhog9JwdhT3PL1juAg4hO4JFkq8fJ6gePR4D5G3N6e8A//+D3+83/tU/yvX+3xo68eoAoFbTV0QWdMrdcF1usCl8sCt0dS1cys1Tlini3Lt5EyS0k6FgtN6HetJFYqOQ7zTX3+WYpNKH2bSe8RwLIAtI9YFgJNqSgpFuPIyokRY62NEATIHgdH9UGMJUoy0FuMrM5c75TrbzXnRJ5kJHv5z3MxRimQNqWjM5V4eq7JeXE+4uSpxiqEiHUlUaoaxnloTROu6Sz+729O+Hs/eIZ9a9A0FsOyhNYCm02JUguSQlvqkbE7IQbnFAKq8WVnOnjZjNu0R+endYFYUQER7P/46WOcP6D1MWnsTFUFgwsYgkfvPNokAvvuZLDryOtbaIHrBTFmfIz4J1+f0A0EbG5qomZlL6vSEocUoyxLOoPi15/X4Izh1UolD5IIhNvW4e3BYJfKQHMb5x0OTFUNjKUMaTpiNWNk889lhcx8TlQ+L7AdHL64rqEEw1d3DRV5tQZd56CUwHc+WeO/+Fc/w84YfLXt8fXjgENnUBeSjkAAcOjsiJLMV1GMwG99ssTvfnZJUtlpq3CR6AguBvzB6wPeHw1JBmF+CCQg13VmS85giziRIWJ681yUw0ekulA+Bmh9ciiMn7jWSHratRajBOaqpOoIyTlerWn2fXFRoncetZIw3qKxZH7eHgyOqbJ7jiV+DKnPszKrEc9LU6b3pJolNp0eti4FbpYSzaCw6ywOrcWbhwaPjz0Ohw7dqYNUhLTv/sXn+N5miZVSKCTDm4MYXfmHlH4QnI2F3JkDH0BHrtZKQKc9kfJjHJIFtI7ER7phcjryQPsQyWvkjJZgXlL0WnodFO37SPxtMzJsEi2JT8pW1AkJzvERBgG7lDvyqcG0UknngHR/AB9CSgha7HqH3lKycE5oyZ4hF+cjRIMzNylUpZfveb5ZTyZmUcoRLN0UEq3z+F9+usPPvt7hcKBURXtscdqfIKWEKhT+/KHHSik8rwk9v6wGLLVELQU4KIG4Qzo274nSFiE3HkFMbYgxwo06TtOk4vHcJMq50ODcNDBMR6HxMehKyLDgWJdA6Wlwlprik5uyQOuyqlWACHSqy1xVfnsa4Dydn+4ThEMbtx3rdZEeNON3zk+oO2MTIWSufpX7w8d4dhzB04sUKynI5YzhxTKilJTaNtbj7ZsdTG+w3CyxulgR70ErXFzU+GY3oFRkbV4tK9RKoLEObQr2d90kyznfj+YTKkuVMsaSCkWSh2PTQY/TpEoouEynXHoXR3Zq9u4Yplw9TxBNBMFCAJLGgsdSS2jOsdJynBUhRkSfC6JSneks2DPOo7e0kg59TI4FrZ6cGshA7lNGz8wPwKh/N1tN8cnf51dMptg4oinvOoXnyzCepOmdH4PTm5say6WGEByXlyUOncGbg8BlNaBWYhSov08yCqeemLDzUsx8EedvOq2ABgmQcZr8OWadnpP6UobZ6pk/PEPygnyqYEs6eDIlu7I38tgRYr1QArWkivBxUPn8zNbpOFIhFDYlJfYACmBf70nXIauLmHSISI4dcnA0nQsxxRqMsXGviuw8/f+U5ZODSy35GRpeCTrbol7WiCEi+IBh8CgKifW6IG3yQuLFUmGpJZqkz3ddabgYcL+gkwQyRpjFSc48vJnmdx6AGPNZGAmRYckypOAeAGRv/CjMnmf5HBTtjMfeWByMTRSsgDZEPHa0d7w7EX33qpaJKUMqIEXCrXRCeW0iVWZN1FpxXNd0RmAtKdcvOMOhV9j3Dr2LYy5qboqnM12ngDkfOUoV4MTNzkdVZ3grQ0lCEILyyUWBWnF8vimwViRuWyqB5VLDDAbOkWYfYySvIznDZU1OQi0FWuex7Q1cDHhRl4g3wGVNwf6+9ySaNfiRs258xG6w6EVA6/iZk2ZSDKfFJLXKwlgUD3l77BGRyiQZlafk6BwAOu+xH8zI9AmRfPq7E9Gomt6iZQy9iyPSvSrlqL41dignatRlTXp3I7bWefhickJuFnSyseIsicCncsVUYKWSksoc4c5e1bqi8pPrWuL2SESUbeNGtWHrAq4WVOz2+aagml4h0HmPx96g0hzf//ISu5saLmFuznmsao2LhYaPwEPjwDHgrrHYtg43C4d4A7xclFgoiVvVQwuLTRlgvcShl3h/JKmdbW/AMR3nEGIcK9d9JA2I7At0xkMAdO7uf/uH3zyx2XF88LyaskzZ9UJjXQo8tC4dpOFxvSQ4qHcBP3p9hBIcz1aazpdgFJRl0ffMt9OCEWWpp4dujE8rKWChOTpDGql5pknOYRmtxE8vCujE7BGc4rq3+x4PR4NTL/FbL+jM1lLR7HxkDprzdLiuwJeXBS5LhctC42QdWudwGBzenegkm3/h0xUuqksoTjqwS81xe7RUnJb00I2jFP+pJxN3WRMFeqUlWidhkr5D1oFoLdXq/tFbgrjyVnDq6YwLLTiEIEgpc9pvD4SeWBfOTyI7RxzO0+chxCTRzEZttsF5nAbCvXJtbIwRSy3QmoB8DsZCE0D7bKFwXStstMJKu3Fvc6nco7WUYDwOns5YPZmxADmvnFIS0TAfobDrPO6O9GDtQBzBXefxi+2QEojkLR47Spm/KcgTHXyPt0cDm1zlwZMk57YhQDeLZaxKiUPnxowxZ0QMzV5cPp7nve7ROokXNa2obW/w5jiMuq/H3qJIXmRdEN5nPZ3qaXjAZqFxURIVoLOkd9GZmQDUaAefBInzZCCdtefG6vRMlGiH6bzXGCm1cUx1NT5Q5K/SSgypM0IkD3FIJ1iejMfg2Ci08dAQIjE/niZPoAxcasmwLsjxKJJsNgBsW9rPdu10/A5NugAXgG3rcVU5uAi8PRiESCs7q2QNSdAwg8I5pZIxwG6g1Hz24qwP2PceWlj0hcdCSWwKOsg4EzrpTA8L6wasa4V1RUVsp56jR5KGS2QVwSeXPD/zDLub++fTZp33mUITYTHEiacMTHoL+RSYGElBi85uSORG6/FwZLivHNalwGlDZ1McBz/WNeUEIE2IicP3FNbZdQ6t9TAu4vmK1E3e73vcbVsolVW6SM0kS65l8UDOGb681LiqiW78PukjSZ5KRUV2hwNMODf7fva8c8n8TNq8qMg0b3uD1nq8SMnEmwX9/vaxxT/703fQhcL2Oxf45LLGY6rXLZO20OAJxEaJ8QhY68N0DMJ8gKaVRD85GFalRCmJKswZvZbTG09jkyw8PrqeKTY59XQSdBY2H1wYBZjycWwZRpl/Hx8nEhHw9z3VQR2T2X08DjgcBqKGMYZCUHZWcIbHk8GilCME9emaqgAZKPEX45TWsI6C7EpLANlZYWO6gdoUz8RvbVKNpJOfI94cB2SRjed1gaWSeBwMCiWwfbcFkCjK36E0ifcBIdVzdTaMp8sA+UQDPjFYpxmbk32pgziVcFyUpCrSmJCi48zGocF6up/Nf06DFwHrsYvTLBnfm4K4gKlD8nkWORbKMYSxFNlnBqi1FM8sFlR+bxMVWSUOQaZ9CQ6UQmDwHoMnqQLjSHvuNNhx3xNZCg2TYgpwnnKYT+rO+LHkM58ScF0b1FJikY4tqgsJ7zzQHnD3mpyx6+sa61WBVaWSZ02eM+kykbD8uCd9G4SSZ2+G9vsk15/tc55Zc2Jlfu2pMleyIvCMKtxjfHIiWDKtT2ua8upijP5fF4KOqosZ63JoJSkKr2pNhw93bgwBjPM49A4PLVUrrrRF7+n06bf7YQw6jfUJegLw//V1Js1x3GYYfrH2NgtnKEqy7FgVpypLVQ455pJDDvk1+a85+uBUHDuyY5PirD29o4EcPgDdM5TTl5FIUZxpAA18y/u8LyxAJm6fu9m3Q2z4VPYRJswZQzWMOPXUKbtKFLaFQrEq0EoBLjj6zqBpDB62OTZFEgPfEPOlEp5By6fT3fzGZFpgW2hcuskzIWzqhAAABs/r/tSgvrvLfIZ86oC1bjIh+d77O8yzAfGP/2fCcDCUXovLPdJGS4539wUlbFPl90z696TWYOSL3oxYpcB3hw7HltrLiL/AUSQUm5W+1PBSmkqNIyHDcfu+g5itNxOzaF8bLLSk9uOB5nAHogAACjtJREFU4S/v7/D0tz/gUPXoPGItVcQaYowyIEHqqRiDVhx3jmJKeVsQA2i5v10pPJbAvx4bPO5rcM7wdpvjd58tMTqHU/3pAQKAP70r8JARP1Vxjs56KzljcBlGfDg08QO/GAj20nwqXBaTGEBLAeYYlpnEr+8z3GUCh3ok103BULYDPh5qJInE8dgiTSWWBRUVAzzxzV2GTZHg/Ybiv2+eGJ7OXXxyzCew9Y+d+fYQ1PnB+Cug5QBCwp07atwRjGOdKPz9z+9xaAec+h7/3DU41JRY3l86JJKcaHYVrfgioYB/oTkkAV194DorA3w49nguOzyfWvz0UwkzkJRfSVKMXw/s9GGYT8JSNO1iA2Pv7FWidH4TgCkMuE7bTwcG5mtA8CSvZaZwaQ02ucKbhUKmCE2wK8n1+HjpUJY9LpcBz09n5IsUbUsySMaAPFeUaY8hAf2ukU45VxMjfLZQYwuTK+ThwiEplFYok0I4UYLkOqwddVRtMw3Bga+2DvtswM8+xqOEtqfAeN0SY8A21ZBkGDXPgdFNeDq1OPlYQ0oOM9BZPpQXwpuZZ3DDK2cMmRTIFYHPtaMVRewgHo/X8+tq1oY8Ha5PnnOWq3WI/hAWDseWOn6CpLJIFbAlu+qyTCDl1AOntcB2SXbb9wXJbJZaQcuWfgf/9PsKp9R5azVA+yws4oBzRlVawlhrbHKLNrfIJQ3aOtFozIhja3yOz0RsGlHJSNGYKo5MjpBf3mfUAeSAbU69Bs1g8fX3B+z3DS5lCyEFRjPiculwrHoUPoi8fTbHleScP/NPVCznfBHuZgX90sXZtX40pE5yTZbarxcKx4bj7VKhUBIXZyA4cKooKdv3JqJn5ocfzhl6TzYptMA2k1glEoUkWEYofXzqCqfZ+d9H78w5/xHaf8mx7PkyeJolrbKvttRs+iZPIRk90mqvug/+itZSJqbg3t82lRwqn0TFSlBSU0oOrQWstRjqATrVkFKgaQ0Snz0I/XPz5Q+QhQLQenYQDVRnLM69QT+OV87Ft4+2+aDHQFpybAuNTE+GHank4Gz0pEgyMl6nkshiw4iq6onVV2hoTa/CZ0W6bsS56bGvB09TnoTFk1b3+jMB7gbv88uTi17pEDA6h26wHuFjsc+o+iwZj66hg3U4twZlR6fnVwuJVSqxzQQYY5C72hDo3Cv4uCFV3eevCixzkoDs9xXsaLHYaCxyFQPDXU1xSq6pM/S5IjzLrh5I/TeMyJWIz/vWs8KlZ+f54bgaJMNsnPncC9Ielgm+3Ojo9RB0S91INtRKsOiiOQwj2tagvrTggsMYiySRuFt7zVRN8dD53OFnb9T42VJTvYyFfu2XGRiqh13vp0TRmlqcg87XOiqJhBZi40XYx4b2oKangD64hgrGsO96PFc9nmtDTqD+kXtqDOSu7FBpgc6QcXywYvvNQ+61pgKPS43drobWAneFxtuVwkpLrFOyHA1cucK3QTWDxcfLgKa30NJE37xhJDFv4vE01ysn3BQaiMQDZCUndvjaI2AC1Kkfyem4bCmJ+2pBqoc0lTDGQiUqnr7C+5aC4yCoWVMp4VM6Ixpf04qN//w6wA9xIJu95dHNwCT+54pURYOsOYrNWoeyI1C7cyTDDFQWwRheF0mMEevBIpEEBal6g4+XAfJ+maDuKOBLVSi+AT8cusi5/tXrBf74fos3S/J3UJzhqSKfhVQREmypFc4JAcqrfkTTU4oj8zc7KNTfrRIoQc4xYUZOjzffxgTE3oYewLfPZGYiffkgQBHjacp3MnEovNpkWCw0nFt4QbKC5ByvV4mvOSn8/vM1jhV5RJTNgH98qCBFTaWBWSvy7ST662838QAk/QrqR4vSZxx+OPaQmrhA87Ys509u4ZjNfQB8bg32XQ/GgAePgTOW+HyCjVEHJdeJ8PQPRN5Ab5wfdTpdaUXliDdLhSwA/S4DHs8dlpnC68VIaOiG/uNTPcQSQ+UVCXVn0HlewsNCozPUmx0SmZJNdGPAXaFi6o4YpaHCG0oXYaZ3ZowcvKYfo/i5tsSNcIJWd6I47guS8n+QDI/nHoOx0RbbuWus3O211gqpEDDOEqWZMTSG+LDHBtEf0Dl4WtcIY6dqtxQ0WBzM01YsnqueunZ9j8h9Sm4C/WhR9aF9jpPZUxAvTT1z0xVuRt1TWv7ncsCpJh1O2Qz4bs9wzEb850DG8mG5Z0pASwFU1D83DFQ/0YJyU/UMuDAVGz99gwIZfw6WChcHJVU5A85nYncniYBz1DMRzBbXhcbbZY6lJq3tEwurZDqZzqmR4X4AfkWATqhUxSaBXW1MhAdmmuMuk1FUd25HD9WgQTnUtB2Exs3W2AgKGZ3DNtH4bJGh8jWwarBYJwLyh2PnN7YR55ohS/yNxfQB8kTi9VLhoVCoBjpOdoONJYYgJwmdPIzR7JGcY5sLcKbJ9nSk6ur0yHqZ7XAhCJ4lyRgLRlY8xmrOsUj9zROJh4WiMsilQ9eNKAqN1UpjMBZNQ/FTpiVhZKSIXbqDIfnKrSzlKq3oaEaT4nBSHVJjzjXatxloBQQCSjg0JYqj8Wr9spOw1vmuX0WDKjgcHKreoNDEpb1LqWAoP55bwj5zhtZQMS/TUwMf+TBQmcI4h+eKqp8BjNQOxLibe6puiiRa47xdKjwUVBZPFeXX9kHBPsueW3ZdppirPExcPXaa2X7zCioJxmjfyzIFKQW0t43bFBo7ID7vL70F0OOxHKIMf541mOue3M1TpVAyOgJoTqsiGwUBhnuLb3cNDr6ZpPcQ+sAxSgVBb5eJ8NgdApVwX34J/Rz0eS1WWsUSjnzcV3AOWC0SJIrDjPaqNyzzRrmJ4BFV043TnuB8HDBnDG1zEcXNhZ4cXkLM9E3Vv+guBVhka38y2GWT4jz0BoYrEIFbB2w2GYyHAEp/4gKoq1VyRn6CHb3eDlAIZMfZIIXvMQZkkmhgiRMx2NacY7Aap8xEaalziL0MhaasvYWMoMNUcRQc2Hj6M7UN0ApsjMU6ob177d2fpZQCxptLaUmnoeAaHDbarVdCnNsRu2oguLt/zjPGYuEu3NxtJvGq0EgFRyKIO6c5WccN1uLrn2y8KeEGhJzY/Ot+bMCZf7T5lWNBvrcAdQ8VCff2DRbvNjnNRs8HT5WIuT7rgrOzL03YW9sBjzkIq3s2iNTMSNbd4XNzRvnOTAoUvhspDNJgLCWBGTWR5opguNtUIxWGDE0Y9VM8lYFp7nCXSrQZlTtGC2xSBWn7GtZYGDagR4eRJ8gSCdsNSIQC2gF7A3y0wK42OFyo8hiMDYGp+9866oJNxxSZcUicQA6voLYWwpLfeVuVVywD4FoLe8uFDd+bX50vt4+K479DyG5bfLFKkGsG64iWlSuDsrVYJw6nxuLfP9bxdDjHDwSFO8Pk8X779b4u0Y0yngKtn0ToR6ihRXMp44D2Na20naB9664ge5/gQiA40A0EA3k8kanXYCx+FFQ6eVwl+GKtcJ8l+B8m9ZKUobrsDgAAAABJRU5ErkJggg==;" parent="1" vertex="1">
          <mxGeometry x="192.02999999999997" y="195" width="101.97" height="102.94" as="geometry" />
        </mxCell>
        <mxCell id="jz31EccxVryN575QA1fw-56" value="L1_loss" style="text;html=1;align=center;verticalAlign=middle;resizable=0;points=[];autosize=1;strokeColor=none;fillColor=none;fontSize=14;fontColor=#3333FF;" parent="1" vertex="1">
          <mxGeometry x="523" y="284" width="66" height="29" as="geometry" />
        </mxCell>
        <mxCell id="jz31EccxVryN575QA1fw-51" value="" style="endArrow=classic;startArrow=none;html=1;rounded=0;fontSize=12;entryX=0.5;entryY=1;entryDx=0;entryDy=0;exitX=0.5;exitY=0;exitDx=0;exitDy=0;" parent="1" source="jz31EccxVryN575QA1fw-57" target="jz31EccxVryN575QA1fw-50" edge="1">
          <mxGeometry width="50" height="50" relative="1" as="geometry">
            <mxPoint x="387" y="583" as="sourcePoint" />
            <mxPoint x="437" y="533" as="targetPoint" />
          </mxGeometry>
        </mxCell>
        <mxCell id="jz31EccxVryN575QA1fw-57" value="&lt;font color=&quot;#000099&quot;&gt;distogram_loss&lt;/font&gt;" style="text;html=1;align=center;verticalAlign=middle;resizable=0;points=[];autosize=1;strokeColor=none;fillColor=none;fontSize=14;fontColor=#3333FF;" parent="1" vertex="1">
          <mxGeometry x="659.25" y="333" width="112" height="29" as="geometry" />
        </mxCell>
        <mxCell id="jz31EccxVryN575QA1fw-58" value="" style="endArrow=none;startArrow=classic;html=1;rounded=0;fontSize=12;entryX=0.5;entryY=1;entryDx=0;entryDy=0;exitX=0.5;exitY=0;exitDx=0;exitDy=0;" parent="1" source="jz31EccxVryN575QA1fw-49" target="jz31EccxVryN575QA1fw-57" edge="1">
          <mxGeometry width="50" height="50" relative="1" as="geometry">
            <mxPoint x="715.25" y="393.0999999999999" as="sourcePoint" />
            <mxPoint x="714.5" y="297.05999999999995" as="targetPoint" />
          </mxGeometry>
        </mxCell>
        <mxCell id="jz31EccxVryN575QA1fw-59" value="" style="endArrow=classic;html=1;rounded=0;fontSize=14;fontColor=#3333FF;entryX=0.5;entryY=1;entryDx=0;entryDy=0;exitX=0;exitY=0.5;exitDx=0;exitDy=0;dashed=1;" parent="1" source="jz31EccxVryN575QA1fw-22" target="jz31EccxVryN575QA1fw-54" edge="1">
          <mxGeometry width="50" height="50" relative="1" as="geometry">
            <mxPoint x="387" y="582" as="sourcePoint" />
            <mxPoint x="437" y="532" as="targetPoint" />
            <Array as="points">
              <mxPoint x="591" y="323" />
              <mxPoint x="243" y="323" />
            </Array>
          </mxGeometry>
        </mxCell>
        <mxCell id="8WZBJLw57oJNSU06zkzZ-1" value="" style="endArrow=classic;html=1;rounded=0;" edge="1" parent="1">
          <mxGeometry width="50" height="50" relative="1" as="geometry">
            <mxPoint x="176" y="586" as="sourcePoint" />
            <mxPoint x="176" y="443" as="targetPoint" />
          </mxGeometry>
        </mxCell>
        <mxCell id="8WZBJLw57oJNSU06zkzZ-2" value="" style="shape=image;verticalLabelPosition=bottom;labelBackgroundColor=default;verticalAlign=top;aspect=fixed;imageAspect=0;image=data:image/png,iVBORw0KGgoAAAANSUhEUgAAAGsAAABsCAYAAABtuky0AAAgAElEQVR4nMy9aZBl6ZnX9zv7uft+c8+srL2Xqi71IqklIWnAIHuAYWyGQWHGDDOBAsJhsDHhhQgwgwn7A14gAttsHxxAgMGDA3u2GGZGkkfySD3S9FJdXV1LZlbueTPvvpxz7j27P7z3VmZVZWZlVS/iiajo7Luc+57zvO/zPsv/+b/Sh7tWvNGxeXe/z8vVNKtth5Qh89srXeyRz0HL4f6Huwwbdejuw8jiRyqaAYEHZhpcB7IViEIYNKG0wMb/9ZfIJbVjv/qd+w3+2J/6G5/ygB8TMw1GiuUvfI50WufB/X3sO2+DPxLvx7H4r6JCYRaSWYpTOfb+0X+IutGxOVdI4QQhfhRTt3yaBz4frDRpHPTwRh7D3U1xAVn50dzg5LfjaPzfGLyhUJLVhtA/vMl/22VkgTfkYLeFulQhlU1h56eh3xCTMPDE5+IY9AQMLayeeO7qu/t9nCDk5akcrYHLZ2Yj3t61mJ5KU9tpoWoq5KqoukpgO+LBZMpilcHhxT9JkRWUC58hdGzS1TLW/gFyKkNUW4N0CVxbKO1HOZmeUeI4xjBUqlMZHGsey+k9+izjSFiLwMNtbwOgvlxN40cxrYFLKWMAoMxLhFHMyA0IgojtLZ2RM8LqtiEMHl7kU5MoJGzVIAzwczmIIzRDwzUz6MUy3jAtzIiqf3pjel7RE6AZTM+XKRUS7NctrE7/0FJMRNFAT0IiC4YBb4O62naoWz6fmY0AyCU1vCjildkUm00bSZIYjQI6HRWrl4W2BEZK7BeflsgK5KsQRZSmi1gJg2IlS1PXmJot0mlZtK0OyOqnN6bnFUkC1SCbNUgaKqoqo2ga4XGfjUKxdw2Fn6B+aaHEZt9GkSQMTSGMYs6XU2QMjdk3E7hhyM3FLCt1h9X5HJ3OIuv3doj6jU/vBqMQGlugGtiDAoEfoKoKuqlTqaSQZYlus0LkWHznQYOcriFJICGhyhISEl4U8u2N9qc35uNEkqC8RKJY4MVzRXRV5sF2l7DXEpbh6L4rK6AnUPNF0imVfUC9vpjjOrknrlvNmQ///gNXpx5572f+ydv86t99+5O6peNFkiGOkCQJ3dRJpTQ0LcdsKUmvNyJyLGhu8ad/7r8/8h1JfE9WhNnWE5/umB+XOIbeAW4iSdtycdyA2k4bnN6TDpI/gtY2QeDR6Qrv9rnshh9GH3nczyzjldy92QdFY2i9QBiEJBIqg4ErzPLE/Z1IHEMcHu4F3vBTHvRjohlQmmdueYbZQpL311v0a/vCOTpOVB0pX6FazbDFcypLlqSPMOLnlLFZMC9ew0gYXH1xBsfx+erL03ScgO+aGqs/1OFg7dHvxJGIV0YW8uxFov31kx/OJyGSJMZRWoB0nqvXl7m0lOfL53MYmkytdoG97r5YXUclVYDiLNOL06QNMdmeS1lT+YTwvD4tjzCZg2yFRKXK0oVp0mmdG8tFNhs2C3mdz8/nqKY1fsVQuP3/AY0NyE1BtgzA3MUF7IHD1Rdn2NqaYu/uGuyvPup9fRKiqDB3FVSNq9eXURSJz780zXxOJ6/rXK2aPLhaode6hr29DnZHeNuVc6SnpyiUc5xbytM6aAHPqawvLef4F1dexW02YNgX+0IUiBkbx2I2fVxBqp7AWH6B8nSJxcUcM8UkYSiuXe84fGe1y7/7gsKrsxmqv3+ZX8wY3Hx7ikIlTzptYFkuS0t59vcVlqcynKumWZ3Ncvd2FWtjDbq1j2+s6aKYwCMLclMYc8tUZkuEYcy5uSwHbYekJvP+7gBJgnN5k5/6zDSljMl796sc1HqEYcjlq9Pk0gaZhIamyGxviJhW+av/zS/8wrOOKfRiHvgQGmnMyjTTF89RWFyg03agMAPlBTFL4sf2NlUX//TEyatSUYWys1Vh47NV5i4tsbCQY76UIghjGv0RtbbDnQ922akN6EkypqFyuZhipmTSlTWq5RS6oYwVG3NQ62NmDKZyCaYLCUbI2KGO12kdP5aJ+TqrIlN5UpdewleSYu+sLJLOpdENnaE9QlIV1lfrWBG89/4uW10P2dS4Wk5xtZIikzMwMwmMlMkr50toikQUx2weDLh38wH+3V99vpWVNBR++rVpvlNIUErpXCqbNGyfX84alAtJUobK2x/MsrteI66tPQxYU1deIfADojDCX3lHrMjJg8pWII5ILl/FsRwWL87Ra1sgQaWSImmoDL2QBzs99mtd+q0+wdYd7DjiN+pX2Lq+zOjzC7w2m+WN80W2O0PW9/oMhz4HtQ69B2u8H4S4L85wcTZLOq1TnspjrRrH5zsVTSgrCkXWRtFON/uVJSrTBVKZFHVFgTCk3+nTa/egW6ezk4XGBu9ulKFfp/Nhmv29G1g/don/4MUqs1md/b7Bxl6f3ZbNykaHTtui/WCDeP8eANJP/MMfxJIkkUvqDL0AU1MYeiFxHOOHEbIkMZVP8KXlHFcKGZKGQspQkSQYDAMADE3GCyKsUYAiS/y1X7/LD393HXtzFXoHYnbKylghsVhxj8dpiiqUN3UBAo/pFy4jyxLJpM6b16e5XE0iA9MZnaSqYPkhLccnjmMSukwlYTCXTpA2VRw3JIhiuq5HEMUMfJ+65bE/8PmV72+Ryxm020Nsy6Xxe987Xlmq/qiyZEXsJydJtoIxfwG3vidScbJyeI2RJf52bWFVvCEkshRfeZ0/+vsv85MvVCmYwj3fsYZkdZWe6+NFEQ3bZ2j1+Ss/fgP1N/63f3w4uJNmjqrzL668yhe/dJmffm2ar56vMpUzmXoyPCOKYipZk3w5h90pCy9n4jJLMsjSky42iJtSNMxCHkVVWFjIkTDEws+aKiM/ouUEfO1ilQtT6ZMf2ilyc7PL3/tnP6BXzBL4AYqqnJyikhUxgRRVTC7NhPCUioOs4LneYdooCsX34lgoe/JsJ5kfp0f7ww/4fiVLIanyc68usFhO8gr5Jy7d7/f5K4B8prsMPNxmg9X1Nt950Hu4oo6TGNg4GFDfbUD34NDjikKxmQ+aMBw8+cUwgCgU2QlNJWGovDCf49XlAtemk5RTKqYqocjPHzaEUYzXqtPc3KPf7hNH8fETB4SSjJT4p5nClVZO2TUCj7hzIO5voizfFUo6ad9zuuxuNnhnvcPQe7pnevjrT3PDh31cN6CUOj1ZKgFffrGKLEtsbpboNruMtlbBHyHNXsJMmgxbLdi7d2gSJAnOXSdbyPLS9TkyCY0vXCwSRjGbbZffsftsN22cUcCfeHHmqTd1ksQAZopctYyZMikUkrSzVWhuPvlAzQyYaZHd79RJL57DGg2EpZDkR91+SUKZOU8qm6KfzEP9gZgEj3/ucQk87GYLezjHWULXszsYkkw6bXCpbGJoJy9ISYKvLhXRZInvaQp3w4iRPY+iKtz47AX6fZe6odNrbQsT5A1BVtANkdkfDDza7SFRDKvrbRq1Dol0AlmR8V0fy3vhzEN+XEZhCE4fMzXPyBmx3uxCa/v4md+tgSQTKSqEAZY/EhZhkhU5KnFM2G0SJk0y1RKD0IfOnjB/cGgOHxdZIVUusTiVIaE/vbxzdmVFAXEc07B9vOBs6aahGzDoDiAKSedyVAtJBgNP7BWKJmYeQBwLF9p12EwYOAOH+n6Wzvo6dPexUwUR4IYhYfT8MVEcA96QKIywuhZh++Dkmf94qspqn75K7A5Du0Qqm0LN5AisllDSaU4JoKgKksSZzPvZlWW1efC77/LLWYM/cK584sfiGO53LDKGQhTFhEEIrR16rsN7t5PU7q2JWXd034pCkSaSZAabYmPvBOMqsD8SgXccfeTcXhTH0G/Q+N3ffvbsy9OyHU6PaO0dHt7VWeKzMKC/epcfFjP0v3yB2cLpH1eP9YaOmxFxDEaSciGJIktEUUyM2KMm9jaOxb4wlzYZ+AEL1TStpSobIw8kSCY1crMz9OJYuLOT2EWShMsOTF25iGGo5HImu9tF2tt7oJuiUj3oE8YxwSmJ5EneMkZUY49KMFmViayYBLICdvf0JzSRSWhx4g8rh1l91xbOxVkk9FEUiTiOCaP4iTEDD+9XffeX/uYTb/7mWp3/8i/8T4++KElgiID3r/36XSpZk42DAV9+scpXl4qAWFFzaZMrlQy7vSGfX84z8kKKxQSJhMbXXq6y0hhy60GF975voiVM/J1VyFa49NoLOI7PX//6y3xluYIkSfhhRBDGj2y+P/dP3+aDdzePve9CtcDnPzPL0Av54G6DbrNH4B9OOteyQDNILV/BHbkEI1es8ONWzeRH9YR48MV5/p+/87MsFpLH/vZG2+FP/8/fJlfM0G31se6+J9z0p63IOMJ1Q/7mb62QMlRurTYJgoj93RaBJ8Ye+8KiqOcqqSe+f6VzTBwTx7DzIW9/MEun0SNfzlHfbSDLEtrY3mYMhYEfsNsbMp0xGXg+c6UU/aFPHMN+32e35bC10Yb2Lr6RGpu5AZblMXJGJFTlkVra49JsOrgfvnXse/v3dX5l7xWiKCJav3nifmGv3Dpc0aftWXAYF/kjlooplsrHKyuMYgbrqwzqBXC6wnKcxRTaXWormzgDhzAMsR7cF98/4vLHoTDZz5ZuCjyRQmrtiYC3e8DmZonvaQpDNyCKYhaqaT6/nGfg+VwoZjAUhfNFg7XWiHxCZXkqw3ohRbuySCqbYmRXyVfyvPJilfbApZI4WVFPldAn6DSEyTptRk/eO82sPS6J7NM/o+qoySRBFIyLpWfM6tcf0LNawjse9k80oc+mrDgWub5hX8QbUUi32eVuGDHoDgiDkNZSlZEXMldKYSgKi/kkThDy3s6A1sAlm9Tw/RBN10hlU6QyKZbPF3lpPktj4JPUPgJCKY6F85LInD6rJyV0zTisEJxUKTCSIMnk5mZRn+ax+SMCd1wIfTyJfZp4w8N48xR59kTu5EbHntloa5WRPS9ma2uHjZFHsZigP/Q5XzRwgpDLpQx/+MWI23WbSkpj+3yRfD5BMW9i6grphEbOVFir2/Q9/5mH9IhE4dO9xsmsD4NDBZ20EsZxYK/ePHRQThJFI1ct4mZSjHoHz+5xaqaIzU4w38+uLFU/vFgUgj9CURXSuRw91wEJEgmNOIa11oj3dgb84Rcjrk3lSaoqB86Iai5BFMUi2Wp5bOz0sYY+t+40+EMvlPjiMw/qiDwt4QqHM/jowzxt7woD2F871lN7XNLZFIVSho0V9ezKkiSB1M3PgNU6rAs+Js+mrHGZw95YFTOxW0OavcSNz16gWkjy3u0kyaTw+vb7PvmESmvgcrtuk1RVLpbSxMQslxLstm2iKObgwMLzRLBrGApp7SPAyYwkxsXruPYQNm4e/xlJQlp8idixREVgUk6fZNhPkqcASCVJIr14jksXikRRzMbsFdi9e7bYMFMmfeEq03MlmvUe3UYXaitPVAOe7cnIinCF41hkz1UdM2nS77sMBh61e2vkZmdwvIgIqKRVvnQxz/lcCk2R6Do+L41T9W4YkTNV7lXTSJLE585leKeYomjq1Hsiuep4IVH8aLxkWyckXgHMDEsXZjAMhfVCVgTkR2RoDeHgAelcGq1aYNDJ43dahyWQ+rr4oCTujTiG4hwM+6TOv3BqlkFTJC5dneHaQp7u0CdfydNtZw9LLKetypGFtbfHPuAOXbA6xyaYn01ZikoURmLzHO9dw1aLuqGLFFJnj56s8qduzDObN4/dL90g4ryXRkLCCQL2Bx773RG3akM2Gxb/47ctbn1QI/ACenfeexKpesrslyvz/MZf/jIZU+W4R/PdlSb//n/+T5hdKKHrCptegKJWMZMmiqrQmjgGk3058IQSfRd7YJ+a6tIUmUvzeb60lCOKYxq9Jb4XRvQ3x9iK4yoNR54rcYSqqWQLGTqayrBff8KcP5uyhgNR4T16kb17IimraGJA9QcEYYR8wiwceSFbXYcLpTT1wYjX52O+PQpo9kfUmzbd7ojWyiqMBmfPLowl6gvU0km/LUtA74C1uzskUgkGe8JzLFQKTE2l6LUWBZ6/sys8utAXDzrwoNc8/bfjmPX9Pvfn0lRTGo4b4AwcYcqetocOBzAc0HUdupny4e8/Js++QTwem+hjpNPkdVlBOsUFlSSxouqDEdWMiR9FfPl8joYTkDJVdlsO7ugC/XafYKX7bAiks3w2ConCCN3UMUplUtkU09NpijkTwzTQdI2hroPVBbuDsXgJtzcgP1s9FYInSxKphIbthnxo+dQOLIJB72GIcyZxbbGqXfvYt59dWY97OJMY4cj7p3lNXhDx/a0+n5lL40cRs9kEAy9go+PSsz3265ZQVG3jk4GK+S7R1oe0DpIQBrj5aVRVJY5j7IENdl+sJtcW7+/vQujjDNIiEXzKfd28ucvQDZAkibU72wIS9yz38JTet4+O5D+KAorCpwZ2ALXeiO7Q58vncwy8gKuVLBld5VI5wVvFJOVyktXVEgdvfeeTaYCQFUgVkFJZ0rk0yZSObftiNam6wBwqCngjZl64jKrKnD9XwDwlYJdliWQ6gW37tNsOUad+WM/6mOTZlZWtiJk3iWfOXUc3xpCugzWonkdTTk7jaIpEOWNQ741oOGJFZXSVuVwSTZZ5cxE0WUKWJA5WFoSHdtZ45Sz9WWNlaPkiuqHjez6NWocgCKC5Jd430wJYGo2BQ36IqSs8LYGRTutkswa27QmnQdXPnn2fjC2OxviNjxpngbiYJD8sHmYLWUbOSKyAM+TawhhWan0OGjYpU6Vne1wqJ9BkmUpa9Id9Zg78KObehXPUhwORQjrT2M5YmAx9dFOnWMkTBBGe6wln4GFwOkW2UkLVVK5cKmNoMl++VERTT74/WQJVlWm3hzT2O2dzLB6XoyCbY0T9O99Ze+LF7jDgj/zFn3/idUmC85UU/+rbD2gdtAn8gJeuzzEYeGwmDAabClMXl/jBTgujJgJcU1WwvIDGcERa15hJmnzjC4ts90fMZQz6ns9cKkk5raOrMhcqaeIYPr8IH1ws4VgXsEJfAFHgdIXICt9cPeBiPsOBPaI9cumOQoa+yNP9zmobjCRqaYpiJU+1mmJ/38LqWrjtJjNf/kO8dm0aVRHQPF2VuVQWIcjlQhr9FGUldYVv/DvLKJLETneBtcZVRv7Z9itJgl/5lfeId+8L03lSIvdv/OW//cSLF/7wH+P3fuEPnnjxWs/lV3+zh5EQEN92eyhmpqKiqgr/yzcfMBqFTFdSzBSTvHe/we13HpAr5fjaj13m7/3UtRPd63rfZSpr4oYRS5U0W8Us1nbicF88LZPd2ubP/a1v8sL1JVbu7DJa+0CY0KM3r6gEB9vUAFmepnXQxj3YBbvDX/zJn+DPf+H8ydc/RfIpnZ99/dxzfRfgM/cabDx499TPPJeDcama5MVr8yQMlS9cLBLFCMxEEJLLmei6Sr/vsXdg0Wg7bKwdQL/J0NRpDU7JQCCqolsdh4V8gj94RSCc3jYUHrxrCoXV7p9sKopznL8yzxtXqySTGvdTCayehb/63mGAmy6hVOaZOzfN1YslXDdgf2/r0227PUY0TTlM5H5sexZgavJDXF8YxayutwW4xWqzu5VjbTjC7faE3ZakMdInwGvv8G4uTcwbJ167OfD4l+/X+INXirw6U6BoGJi6gjVwiaKI5sg6PmCWFfCGNOt92laRSi5Bu5qlXM2y0m4IR0USANPwYJN9TaVSSdFpdD79HuljxPOeXi14LmXlTeF1JTSZzbZLo9YRkGF/RG9rUzgbE7DjUYljhvbpA2o4I7779i5hFFM0DBYLSX7sQp6VvRKaKnMH8F2f3sod8BwR/Suq8N7GrAKqLHNlKklCV8gmdYZDn51b8mGY4Q1RdRXDUFCUZ2g++BHLobImWeczuL+XCxmuLQ65WknwO3afRDoh4GLDvugwH1nPHdDW7BG7N2/xtqFg6go/diHPy9U8P//FGF2R+f58jtbA492pHM16j97GBqRypAtZcsUslUqSMI6Zywkg0OVKgt1WhcZei3Q+zcgZif0VaDQcnNruj3xVAei6clgAPQHKLpQ14Zlo1SBfPXHzn0haV8knVIZBxHbTRlZkgeuLI9D1j5R56AwD6Ozx4F0Ta+Cyslfi578Y87n5EvW+y+cX4YfbA+Zns7hugFOqoukaiqqgKBK27XPrfpMoimkORtT6WbZqA9ydNZAuiPKJ08fuHHC/VhMgz38LJJ83xywI9mG8dbTLhomy4ojQscd48+jU3B6IaL3lBNheiDMK8F0fwrHNtbrPVtI+TsZdJ1EUoakyuiJT77sU0zp+FHFjNsKPYoLxWFMpnXRaJ5XQiMaQrhdm0gzLSa5UE0gS1HavMb9YpNcb0W4I1JNhGvQGzSdbRH8EoqqygBn4I2HSR+OVdiQLoqIZICukq2X8XI7SdJHp6pOIp6MylTP4s6/No8gSf+LFGSzvhTMjZdO6emomIIwQK7N2n+bI4g7w/fkcn18EP4qoZgxkSUJZFKiqfFJHliWGXsjA8djft7CtEZmEhqkpJMZQb0mWME2Vej3AavfA6jCSpEeSpr/wD77H3/+1lTPdx3Eij/GUMN4eZQlNU/D9kGRSx3UDcjkT1w24sljgynSKpbzBwAv54ObOIXRtDCVA1SEJWCLGVCeQJ2v/AOIIK2Hg+sf08hyRQkqn8JQGhY8scQSjAb7r0xp4/HB7wI1Z0S9WTovfluZF+moURNT7Lt2Bi2O7+J7o28oldaYyGqWUys2lIkvVDI2GLR6EkQRVE9XicabB/fAtNj8c//5k734Wk/54tXnSieLaopPT7ohmdG/I5vlLvDudJ5836XZHDDbWDlfRxPQ95sarmGnwhsipDJqhUaxkmS2dvrI+FYljsLv0Vu7w7lSO+dksfhSjLIplWckYRHFMYkFhGIR8fws2an367T5uu8lqJYs9EzDyQ5ZLCRRFJjnu92JkQ78uHsRJzsXz7LuPfycKRewUeJCrgCSRnp0ljmMuXpkikzLww0jkEl37UDFRKEpPiiZM41iJ6mTpRbU1XDNDU9doLzzZ0PUjE8+hWe/hugFBFKHJEtK8KPZNZU2CXsStA5vb211W7tZwt1cg8DjYm0ZRZExNIZPQGA4DDnpDaluNRzs8PmlxumLltoSZs/ZM0Ex2d9PEcYwzcLC2Nh4lLvGGY5DnmAXOE96rSrYi0DTpEnqxzNRskYszZwA0floyHNDb2MApVZEksUdpikRiQSHoRZwrphh4Abf3BoLBbUxeYu9ssRdDvz/CD8Ts9YNIgPNPyb99rDJZJSDMYOhTvrBMJpvglasV2gOXtfUO1p7+JBRu7EuQmzqyZ00AHa6NN0zTaVn0nR993PFQFBVSOQEKTQlnYhREDIOQWwc2Ay/gUinDT98QEOZvjTyc7XWyS8tMzRaIY5grpdBUeZwau8Q7pkF/d1fsV2eFOZ9FjgJFNQOK8+SXFgmDkBdensOyPF65VCaOY86VEnRyJqoiM7TP0faGAoYGMHURM5/FSBiUqzl2VjZwAZVBU/zAuL2mbXVYv1j5eAb/UUVWICkCXkVVSKd1hl5Ive/y/S24vd3l9t6An74Bl0sZfupGxNALuHM/x+xsluliklrLppgSnuH5YoLp16bJJXVWtspsbzQYrK8eX4J5VgcjlUdbuIxf2xTZm7mrXLq2zPnFPH3H4/XzJVb2B8zkDFYOLFbrDromU8oYLF8oE4aX6bf7JNNJFs9X0XUF349Ip3W274ufUB/OhNB/aCubTZuufbi6JElCUyRURRZWJI6JophojDqeYBP8MEJCuKyifeVRGJkiS8iyRMo4OcuVNmThshbnxHhyVXLFLIoiMA4Dx6M7cNmo9Vm5W0PVVMIo5qduRLxUyfGzn5P4tayJLIv+4/22w057SNtyyZoKby7k+IlrFd7KmfyeoXDLHorGt6NmUVZEXWtSX/KGTy3N6ItXuPbqOXZ2ijT3mixcmGFmKk3KVOk7Ho2By/pOj5Ef8uGdOoapsbyU59JsjtcvlSnnE7T7IzRN4aWFPM2By0F3SK83wu10xsqaSBw/HPDGN3+D5R+88/AttTzLV37/C/zkjSnOZVOs92zWWiPu1gbMFpKoikTH8vjN316hMp1nfjbD++/vMegODnF5ikb18kUuXCzxK3/+zROzJIvZBOqFVzh/ZZ5mvY+qq1QqSWzbJ4pj9vctHNsVXt/2CrgO3xp5DL2An/2cxIuVLLIk8WHdZr01JAhCVra6NJsWlu2hqxLXptJcKptYowK12oD9xpiZdAJL0BOCeCUMhXvf2BSvTeggJixrE0nlOX9ljpeWiqSTOmuagqYptLsjmu0hezttHiQMDj68y2q+TLj1IRgp2vUrhK8v8cb5IqWMgSpLdB0PaxSwstVlb7dDu9aExoPHlHVUfBfauw//N+ju8z1DY+iFvHG+SHcYCLdZVyinVW5u9bj/oE3vwQqKenXM/9clsnrCG/KGEAbUt9NMTWdOnqHAdCrBC9eXeONqlbZVRJVlwjjm1v0mYRRjWyN8z8dtjzPl/ghne50793NiRUkSV8uZh21I1ijDbsNCVRUGA4+1hsPIj7laNfnalSIdy+XbjQXckSU8Mj2BsnCVq9eXiGMwTYW1lSLpbIrdt98W95KtCAhDHIOios9f5MULRWZzOvd2AwZdm34nxkyauCOX3rp42LS2Cds7wjt0HewP+/yeH2BZHnu7PRzLwXVcbufTdB+sicnhDSGKTlHW45ITXEi6KrPdGZJL6PhhRDahs90ecW+tzeb9HbDatDe3ae/pAjr8eF1m4ybrheyxAMyJHNgjVu7skkxqVHIJrkwlmcvpROMUUiahEccxq5UsB3vT2DtbZJeWmZ3NIstiRWmyxIVimqyucamc4IODND9ItskmNFRZ5l6tj+NHghmnO8RtHBwiiwKP0LHxvBBFkWk2HQadAXbfFonqSZbh4fYR4O0+4L07U9Taad7+/irBxs7/F+IAAB6/SURBVAeQzDGcXhR505ElzKo8rlnFw4e1tURa4P7bB23Cg03wR3SdxUM6pSOpv+OVdbTvVFYgWyadNnD9kPW9PumUTrc3QtNkUdK/sw7NbZHXOlgTHtwJ+IPHIc2PS3vkMlr7gPspUY+adLE3ByOG5SSmppBL6tgzAYoisxfD1GyB6aJon11viRJMVteopA3COOaNWcFQmtQU2sOAWsfBHvk0bIUwjB5F/YaityqKYoIgoN+1iboNojFrNPAkrm/Yp9uxMQyVoNsUzyFIoOmaWF3JHGq+TGC1BRlX70Dsy5oh2qRaDuGgK753lH5IbPoQuKcoS9HGsyd8mJS1LPGF4dBH1xXiGNJJnXZ7KLDZExf4aIf7c0h3JLIKVs+iXM2STepcriSo9bNcqSZIaDJTGY2RH2JqCv3+iDiGWstmv+0QBCHWKMOlcmJcKkmw0rRYPbBJmyoruz0erDbYLqRYmM9x7/buk9REjXVq23lUTRXkja79GDP046ybLu21B7QP8gIhNfaunfs3cYwUDJpCUZMshe+OlRLgez6joSsUOIFY1x8cWy0+XllH3dbCLHMXF1hayuM4Hge1DlEU02l02VBkrEb7kf3to8rQj8B38VffY6XdYDj02W1V2KoNHi74UkpluZQgk9Dwg4i5UopiSmOnPWRlq8tuw+KDgzRvzCqsNC0uldP88RtTJFWFX9MU2u0hpqliO56oMDxeJZBkHMsBzxMV5rPwxgceqqoSTLg99ATS3GUKlQLtnX2yU2X6W5uohQpBcw/MNGo6i2EauM7YE53EaYnsYV4wCuHUNtWj5eWRhT1w2N9X6LZteg/W6MG4nXL0yREsBuJB7dySaey1cHfWqO1eQ5Ilbi4VURSZ4TDAtj00VaSV2pZLsymciR8k2wJycGDzx29McWM6z35/xExWJ5nUyGQMwTM1U2Rzd/6wrpXMoc5fxkyZWF1LlCsGp+PcUVTIV8mWsrRrSTH2/DSXX15ibjrDWi5JoWCyochIkkTHLYHTJ6g9oLc/3tMmzRCTGSnJED6aZXlUWZMPauO+Xm+IPHuRqy/OsDyVYadl8/54z+nt7Bzy0jq9QxCLJDH15a+RHmMAH5cLS3lOq5Y93E/lcT1Hkkjn0yBdYH6xyGcuVfjcUpqUpjLwAoIo5kI+RVrTuD2f4n93PPp9j2xCI6kppE2VpKqw3xfY+vNFk0opieuHDAYuzf3OQ2WYL7/J3FIVTVNQVZkgqOD7i4AgEFv/zneOb5YIA7D7hEFOPDtJAkUT8akqk0xqTJVSDAYe2ayBbupE4fRYJxJ2zxYMck4PjCTK9LLY250+JNKw+d4xyjqaSBxLtL/O1tYU56ppLk5ncV+codVyGNpDvFYImSKTzD39Bqg6v/5f/RjHsQCcRVK6LGZquvSQq2LkjHBtESD+2dfmubZ4fAnnhbkMTTvg1t4AVZZpDwNWdnv8mqYwk9U5XzR5daZA5osq+7bLb690CMOY+91LsHePv/6NN0+EogVhxPzP1wVTwOOlkHSR+WtXeeP6DO+Vsxzstrj+6hK/72qZuZzO+8Uk1bRGz/bQVVmEHkOXRCpBPpckkzFpGRphEDI1W2RuJkO7O2S/1hesPrXkMco6Tqw2e3fXWJ3Ncn25yMXZLEEQ0itmaQ6sMWnVPFEYCeaWTPkjMZeVEpq4RmVeuLLeGJPo9Gk3egxP8SZVWeLFSoq2E3Cv1qfWcXiw2qDdHopQoJQk80WVy+UsumyjKT0URUJPJvDO0o0/kaNsAJIEmTILCzleX8wylTNZ3S9wZSZDSleoDwI6tkdr4LK52UVRJNob2+AN8SozpDMm5XJKcIUYKkvVNLNZg3e3unS7I/odCyY8GGca3P4qd29X8f2QdFp4gIEfIJsmZsocH31hPQxSP0petJIwUacWmDs3zb6moupiiHbn4BECkuMkjGJaI4+rVRPHj7BHPtuFFKapksmI0GPfdtFlm/OlFD/5cpVz5QTfTKjc1VSy5lNaUWVJMAFMXxRe36AFmTJL16/wtWtTvDKVpWG38PyQluWhyhINy+PeRofh0Kd2Z5zkGwfUfr/ORv8c3flZ3KGLpmtslrOkUjrrKzVxYI/TA/9ZeDCiEGtjjTWgPJXHtlwUVSFfzlMoJFlvdgVpFXzkIyayhvYQgFmppDAMhUbD4X6thmEa6PLJEOYgirm5Z/PmYnZMBauwMJ/DdjyiKGYwEKZPU3r85MtVXqhkieKYt5I6YRDi+KdjR8rTRfa9qxSnizQVmcgbgmaSzRpkDIXNvs13P6xz94NdPkgaFEsZHMdj74M7Yl9r74gLTWaz70J9ne74SKlhFNIfd7jQ3HrCeTv7k+3WsO70Baes7447JEaCr6+1fXhhu3NqH9PTxPEDDnabuG5Ap9FBURQBF2tt0xs0GYU/duJ3wyjm2+/ssdmwaXSHhGHEvdu7SJJEZaZIc1/sUYoica6cIIpjrpazfP0NwWG4nDuePWYipqlRmilx4+VpnMsVNrdmUBSZr16foZrU2eqNcByfaJweiqIIdzSGb7v28e5/4B2mriZyApTv7MqakGM93vB1HLHiR5D2yGNU2xGQ5kn5ZhKQOr1TfyqOYe3ONptrNZFCmjg9cSTc80GT+91L6Elh+t5K6nz9jRk+N1eiZBos5k93ioZDn1RK5/J0humMRv1cgZSucH0qzb4z4taeRRxDKptCURUG/RGdekcgiE9rlHv8pj42Hoyn/dBHlK7rHfbxPiP4Mp6QNNqdJ2fnJI7au4eXyHJXUx+mvkqmIXKJJ5xoNxGrZ+MaGvu9EWEUkzUVlgoGPc/nrfU+t9ZajEY+mq4R+IFIZh9snN78/QxyrLLMl9/kr3/jzee6YBTDL/zGfYbeyc6AriokDZWEruD6IV4YYY8CJOCd92unzsL/9J+/y/LC8a677QYCCHNat6Tvgt/AWRMkw/dKOX5wvogqS7yRK574NVmS+Dv/8Zv0XJ/5dIKcrmNqMrIkEUQx8cWYX/zX74gcnyQjJdPEVu/M8IF/7z/5Ob586XjCwZE94K/8+D86XllzS9Xnbn0Jwoj/9h/+8xOZywBRYshWSRRyDOsHwhVubol4ze6cev2VX/6/ORXZN6baI/AeNSfJnPCszDQoKubyCyiqwpuvzfPZuSxOENIfBmQTx68uWZb4yWtzJ/7sTN5k4cIM22sQDrooioJSquBKkkjHPaXp4C988RxvXiwd+96EffrTPx1s3MlBZ1d0xdsdAQoZdxyiJ8Rrqn7Ih35WMzImaFQWrgqEsSRDYx0kGXX+MsHemvit0Gf+3BTzsxl+/KUyYRzzWysd5tNJ5ovPd2yTpkjMzGTYeSBO7QniGKVUEUnxjwlJ9cko67SYeMLc4joCau3aotk6mSNbKSHJZYbWkEK1gO/5qJpKfXVDHPRyhAD5CW9pUoovL3D1+hKeFxJFMbXtPI7liFxfIoucSBL5PoWCyVeulElrKt9c6/Bbb23yxeUsnzmGV/2soqtjBh7XBm+IG/piNT9ru+oJ8oko61Ss/MS7mxCChAF4IiGsaiqqpqLpGqVSCkWRRMS/nyUY5wlPZQOIQghDUcBVZIJAcMTjeSJoHw0Em3Tg0WjYtJ2Au7HNrY02exs1eqPnZ7YOopj9ugWd2ph4Uhae6MeIT/xElKUeJcsyko8CTopzY27aMSHI/i4zL1wmjmOujGFarh+STxs0Og7d7oig135I0n9iq+oE3KJqmKZCs+nQ79qiHlVfF3vWcCASrWaaZFJHkSFrKsyVU2zMVh7i4p9HJEmiWkmxPrOENwFpKurJJP/PIZ+Ish5JC02O8ZuYgglTZeDh9gYQ+qiqjO+HGJqM7QakTA3XDwnDGGvgChzHWcQbQmOTtZUig86AqNsYk4/4hzFb7wD6De6+nxYEy2mdrd0+jb0Gtvf83S+uH3L7dg1ve+UT60o5ln1aOYXH4iySyqYYpfKQyJKaX8Te3x+X+zWMhUuCWLh7QKZawjZNFhdzmJrCFy4W8QIRvzRsn5tbPdFIMNmfnhbTxTHoCdLZFHbfFqX4446XUHVUTbDKdAcu/f4IouhMfIJxHD9k2Z58XpIE9M4wDcEZOInxju6rsnJqo+JprNqnsk+fhb3/NBlaw4e8GN7IO3xggYe7vy1seRQKoqs4xrY9rBg22y713pBqLsHqfp/NrS57q1vPdkR8vyFQSMP+8e5yGEBo4a28y81QnHc87PUFFv0p0hq4bDQdvrXR4pu3D1hdaVAspVmcy1Kr29Ru3nykK+WofPZnfpp/8PUbJ177z/6zd05k1T6VffqjShRFY/pQH0mSkHJl4jEuTy3PEiSyoGqcf+mcyK1dm2azNWQmq7PfHbLVtNja7rH1wcrzHffnDZ9OI6SJ4mi2mGVmoUy/N0NCP9mixHHMRtMhY6pcLid4y9TQDZ3pqTRzxRTt3kjcm2aKozEmOIuxVPOJU2t8p7FqPx/79BklnqByRhbe7oMxqb/wigLPQ8tkMJMmxWIS1w3oDUP2Ow6KJLG9P6Ddduh3BK3bQ3f9rDI5pysKj0+eTo5amr5IcbrIjZenuTydYb83Yj59cowVx/CtjRaXywlerOT4k69H/G41zbWZJDMpk5iYet2mqSoCgwhPR/I+o3wycdZkfHH8JHJo8318I4WfzPFhEDJyRtT2ejQ3djDyOdzatnjIrvN8jdnHZbGPymQvaW7RVGScyxWmMxphFJPTT24QjIFv3j7gLVPjT74e8dpMgYV0kn1nyEZvyJ2tLvXdBv7e+qMwh49RPv0MRhyPifclUQH2RnTqEjQ3ce3s4Ul2H/U3niaDFpE3ZHNrhvq5AllTwTzFdY/jmNWVBrqh87vVNAvpJNWMQc/zuN/os7PTwz/YEbHjJwQi+uSVNQG+TG4gVYDyAoWpEovnRC7MMFRup0xUTaW3YYrWlzHk+rnkFJAp8LAUj2aiKDIpXWTPn3b+crGUZnpKmL59Z0jP87hQzGAthby/nqN9sICXn3rIzInV+tiyF/BJZTAmGAxpXAZXNOGdKRq5F64zPVsgmzV4eanIfnfIbDGJpsmkTY2t+SK7Wy3coYu7evNUnvMnRFYglUefvyj2yqOnD0wUmC4+LMVnswZfvT7D9ak0Pc8/lbddkiQW57LMFVPMpEw2ekPuN/pYSyGfmc7zja8s8UuFBHtNm/19i26zy7CZE6WZj+nkcXXt4GxusSSJFhpZ4mFnfhTzyIk/cSzagDL5DCM9IbIXmikC45EFpQVm5ooszmboDFxsN2B9p4frh6iywP5dXMwThjHJpModaczG3BjjHTQD5l8kcYwjoKgKxUqOdNrg6nKB9+5M0e3YtNcejHF8VbD7zF+7ysJCjq9dmyJjKFSTOvvOiLfW+8QXY2byJpoiJlsQxUiSJAL0KKZWt2n3RsTE3NnqsrPT4/31HN/4yhKvThcomTrfetDhZlLDmU4zHE6zvzdH996H6GfJjphpMcE188m9HlBf/2N/9QyakiFdJHfxKpXpPHtbDTzXI2g3yC8LjNvIGeGv3YRUgdS5i+Nu+DGvg6JBIkuyVMQwFLIJnWZ3yH7HobbTptcbkUrp1DWZTMag1RxAOUPoh2Jn15Og9CCR5Zf+u5/gCxeOP79r5IX8D7+9RkKTqbXTGIZK+yCPqqpkS1nCIMcb12d4fTHLK1NZNvs2Wz1R4b211uIX//U7oq9qJoOuKuzXLaqVFLdvC/xH7eZN1PIs9botnImDHdoHC/xSIUHJ1FnMp7gx62G5IZoqM/JDtspJ7uoa50qnQwYKBZP98y+TLWaRFZmDuyuiyS/wYLyDqGc2MSOLXqONkTBw9sZLe9Cka6TIVEuYSRN/XN0tlHPYzWlxiIrrkquKlplLF4pcWxB02vcXMthuiOuH2LZPNiuOo3XdAKtrMXJGBJu3hRmbeFaDJqoknwh1k2WJrfaQvZYtujm6TWhuEai6QMpqJu+VBVysYbf47od1HEecQDQa+YSDLttrsPNgX6TMOjWR69teEZmJ3gGBZtJUFeH12R28/BR7TZtvPehwY9bjxnSBxUyK9xs9vn2vzf6BhTt0aVqnJ3QTCY3qXJn5+Sy9nksrVyTo1s7QRXKCsmhsigOTJ41ncQz1BwxCHzUzrt66Nt1WH5yuOO3GdXAz4siHKIrpDkVTXDWl8aElguZ228G2PRr7HWRZxt28iysrTwa2T/HyojhmZavL9kZTtN0cPTdlfATTwW6L1f0Cnh9y94NdoigilU2h6YKZNBx0RcvuuBnB84bCFZ8wc3Zrh71cUQjDAfv7FjeTGpYbsphJMZ0z2bUdQRc+Pkv5aUSRrhsQhhFJQ6UTjUSZ6bEC6tmVlZuC4qzoBjxaT/JH0Nkbn3Eouietu++N6etkiCNGvQM2VlQ2Zq+Qr+Rp9JZw3IDagcXanW1B/quohzm158QsSIBpipwfyRwECfHg9QTkp0HRuP7qEldmMrQsjw+SIouhjOtQUjKNoigEEwUf5U56eL9jh2XSzDAc0G12cabTaKrM+40eu7bDK1N5/sybEreWCzQtn88tnX62su9HjIYuhZQB0zAaTbNhXxHtPruCSeVsylJUjLllcZRFp098lHhXksddFkeSkK7zaCljAn7ZvUu3neV7YYQzcATveWNDfH9yII2snBxQnoGxTVVlcbzu9CKaruHcv4k0d5nLLy8hSRK/72qZlK6gyhLFUoYoihj0R3SbXWKrh1KqiHJ86ItNfnI28dHzlo9mJqwWw2aO4XCakR/y7XttHDfgz7wpca2aYzGdZHNgcy57urKCIKLf6rNZHyDLkqgJ6jqSYRCPTeHTlSVJMHeVymxJVBjavUMK1KM3cXTvOykoHDet9TfXxSo6SlA/mbGnBZSnHeqM8EXCMMIduciKUJpjpChUCsxNZ9BUmbmcTn0Q0LA8HMfDHXl06h2BQvJdgZlQtHGF1z++HnV0IoUBtLbZ35tjq5xk/8DCcXxuLRdYTCfJp3TcMCKbOH3skiQR+AGjUUAqNe50yWfQTZ3mhmgUebqyZAVUjTCMBct0tz6230c2zGdhQTtaIX7WSP9p6acY9vYGood3ZOGO23XaO/us5cQJRO8Xk3RsAWne++COmCSjwaHpbe8+W2wH4A3p3vuQu7qGO3SJ45im5bM5sHHDiKms+dSD0qIohtDHMFQURSKfN+mXsuRyJs2UgBocr6xzr/BHfuI1AIppg1cXUpQTBs2hyzvbV/il37pL9wffPvKQjsw0WeGzP/PTVPPHJ0X32w6/98/+5fOllFSd//V7G7x70MPUZGwvxFRlLhZSVJIGQRjz5/7IZdY+v4giSxSSKntdlxdnUpzPJ8joKnlDp2YPqV3K8/5LUwy9EGskPMJv/b/3cN7/nWcfF8BoQL/TFzQIrsMHG9MUUyqIzh4uVtPU+y5+ENEf+rQcDz8S5Cs9z6fTcZA0Hd8PyaV1cmMis7liiq3zF6l/5wRlXXx5mX/6H7167Jh+9nWo94b8+g9OGLSs8A++fuPEcsDagcXr/8e/er40TODxq3//n/Or47gPqw3FOV78wisszmToOR6/+POfJWWebjCucTzu8E8GIb/xvMpyHdzV9x86JQ9WGyQSGv1RyGcXIsI4ZiZrstlxWOva/J+/u8vWVof61r44K0sWB21vbxXo9ZLMzGRw3QBDk8kX09SZsKJNUvp6AiSxBE8T8yMWJ59LJpF9VsC70rOzWHsm5QvLvHKpzEzOYKczOh1Z9UnLhOE68OjW22xvp9AUmTCK+cp5GS+MWCok0RWZr70yzb2pDLcKSe7JMrgCNKQoCpmMwVwxRcJQ+NJyjl63yn1AxUgd5q40A1SD7FO4BEfeJ9SaeppMsvXeEBRxdDyaSSabII5jQbGz1X1IzvgjkTA4tBh799ly+tjWBZqzeeIYXp4RiprNJViyh3xYs2g1LahvPmz5bXhDOo1phsOAUinBQt4kYwrgqbr8hc9xsNsijmOm58tkswZ/9JXqqWNKPsXMfCJiJMFIkTp/BUVRuHhlit3dNK9crXCulGC17mCa6lMpYz81CTzoN2itybT2s4RhxIdbOl97ZZole8irMwVSmorjBny73cdr1IQH6tpjr9BHVVMM3BBNHbvu6bSOulTBMFRKhQRJQ32q5/LCdFoEyZPDjyfxz8dYDnhEEhnUxatki1lm5woMhz6ZlEEcx7QHLp2cia7JLM9mn3q4y6cmsnLYcW/3GQxcWi2be1MZPqxZpDSVy6UMX39tRvCLbFZp1No4lsPChTnm57NcmRV7a2tMa6E+uL9PKpuiOpVhv26hqjI/zJr8zGsnj+Ozszkuf+UL7G42sJstUuUSiqrQX70LsvLUutCZZHINRcO88DIv31gim9LJJDR2Ghb+OLBeW++gKoJd7FIl9VTm7E9UJnFgGIi/JxAC18HqO3TrbW4VkrSaFo4b8PXXZrhWzfGNL8h8dy7HO2tp1h+0WF7KY+oKbhCxWutz5wPB2qbad97Gzk/jWPNYnT6Kpj31hmeyCX78c/O8U01hD+dYnMogSfDDYgZdV051QFRFHtMVtI7/gCQJjyo3JVItRorZxQqLU2l0RaZtuXS7I4GI2trA2tMZ2udYvlDmXDnxo/MvJAkq50T2xukedu37LngO3b06NNaFM1Hf5NvtPq4f8o0vyLw8lcOPhEvfaNiYukKzO6TedniwUqd3S7je6q/94/8aRZZQJUnkxICb9R43/uq/eTgO01R55XKFr17KUzR0frDb53v3mty+uU0yk2R5OsvLc2ke7PYYDoNTTZEqj6u0JylrAuR3beGl2l0evBWyu7GAZmhYPUsE5q4tbLwk0/aGhOFlFqcyp4Zv92sD/otfus2VuRy3NjvU6xZhePiFzTvrJ39ZUfnbf/c/40rheKKwe50Bf+lv/SZqrkDQTx/S+kz4mkD87Y7AH+E1aqxvVvnunFDU9ak8RVM4dsulBBvtBD3bY2+vT08fZzCOazMZBSGb/+aXD18wkjQO3sQeLVLMGLy/1mLjwf/f3rk8p21GUfwngSRAIDBgnnbiJE7cmc504XTZmXTXZf/R/hldJanTmTRpEzc2NonBYB4SAiH06uIDYzc2cTzptIuenVgA+h7S/e4995wu4z/2GFcf8n67SMnQaLWEWvSqiCwmSxS2NumNh8sJAZEbDIN5jlD0Tp1nOAYnuBMTV9GWxpkXqdR2D6tv0R+5K1tkh47Hi71j4A6vX37Aer1386SxJPP91vq158dKJ0HKSFMorxEE60wdF6tniVJLQkdSVKKFzFIYwMSk2+qz9y6N5XjkEyo1I8mTBzlkScLxQsyF5uM8FrhZWBf4BEHA6cChcWLx9lVT1HM8F04P+PV5inZ7xOkvT0FJ4Po/rPw6PZ2glylezrtF4SXK2uV0VrQ0r7yGnZtKpz55/lNlmXItz91SmqOiIZqtvxAkSXAQNzYMUlqcNV3jqDNiOvXRtDieF9A8XiMWi9GdOeCOmdgTDg96gnUMPHmQ49tanr49Q5aE9VWtZnCqimzQzSZrfYtHX1X45l6BD70xllWi6c7bWdQUWkIjHo9dHuxrEEYR/a45t3e9oC622ClXJXTj6lyQPrusTS2y3wDlbe7cL/F13VgZ3KhxmXo1Q83Q0HVVkHdu4yB3BWRJqJSapivqURVRDNV1lVhMIptWMc0UmYzGoFvB93w2H9TPg4l7hSSyJNG3Z6zpCtMgwU45xcjxeLVenWvkXoGYfKG1Rl8jXSmTTWuMpx77jQHdVg9O59wGq4N5qDKx5xzvmLLSPWHmh9hvX34sq/P3x9fF64Vs9vQCX1xNis8VjUTOQFVj9MbeSi3DIIzoDx1eHA853G9dKV9wW/hhxMmbQzp6GiRRj5IkiVRKIZdLkNVVqtUM9byO44hz1MaGcR5MNPpJHC9ElmAaJKgaCXaJ0FWZo+Ymz366ZrIUee7pGFchX2OtmCWTVJgFIYO+veSvLwZ1MsQ7k861+lYhCKPbOaRK8tJG/VyPT+iea0kNzws5s6Yr31l+GNFuWQyHUyEI8gX5fVEUiSLsmXjfNsY7oKpkchmsglCvcV2fpBajUEgSj+vs1LK4fkinP8EczzDHM1qmy045xS4RNSOJH0bsbhd5xqrJypaRcutU7lTYuptDickcti36Bw1B5LhIr3JGn1fdvY2xzKIBL8XciWCpe14sZUmnVSzHY+XWQgyqNbD/mbacxX8MfPBdJE2IamWzCep5HU2R+e5els1cgpErFsqfLYuD/Q4nJxYAtZrByPHQVRk/jNjMpnhcF4XLuGVZH/2mY1tEcYVSKUNaC+id9mg22jTftYnab5YKk1dBirBHFpZ29aq1RzZR4Ap6wG1gz/usAk84CdhnvN9v0HwrWpUGPz4kuEYioTMY0H3+s9BC8j6Tmn2T+5rZy/v68JpIkjhriHrU8f1tcvk05rBEJqGgxCV6tsvvv51gvnwqwvPA51RN8mq9ylFzk93tIo/raR4ZYk9JfHIt/o//CuKm+e97R/2P1YiiiNFoxF9hctyO3P65aAAAAABJRU5ErkJggg==;" vertex="1" parent="1">
          <mxGeometry x="58.74000000000001" y="391.14000000000004" width="96" height="96.9" as="geometry" />
        </mxCell>
        <mxCell id="8WZBJLw57oJNSU06zkzZ-3" value="" style="endArrow=none;html=1;rounded=0;entryX=1;entryY=0.25;entryDx=0;entryDy=0;strokeWidth=3;strokeColor=#B9E0A5;fillColor=#d5e8d4;" edge="1" parent="1" target="8WZBJLw57oJNSU06zkzZ-2">
          <mxGeometry width="50" height="50" relative="1" as="geometry">
            <mxPoint x="59.74000000000001" y="414.55" as="sourcePoint" />
            <mxPoint x="253.74" y="390.55" as="targetPoint" />
          </mxGeometry>
        </mxCell>
        <mxCell id="8WZBJLw57oJNSU06zkzZ-4" value="" style="endArrow=none;html=1;rounded=0;entryX=1;entryY=0.25;entryDx=0;entryDy=0;strokeWidth=3;strokeColor=#B9E0A5;fillColor=#d5e8d4;" edge="1" parent="1">
          <mxGeometry width="50" height="50" relative="1" as="geometry">
            <mxPoint x="59.74000000000001" y="439.09000000000003" as="sourcePoint" />
            <mxPoint x="154.74" y="439.9050000000001" as="targetPoint" />
          </mxGeometry>
        </mxCell>
        <mxCell id="8WZBJLw57oJNSU06zkzZ-5" value="" style="endArrow=none;html=1;rounded=0;entryX=1;entryY=0.25;entryDx=0;entryDy=0;strokeWidth=3;strokeColor=#B9E0A5;fillColor=#d5e8d4;" edge="1" parent="1">
          <mxGeometry width="50" height="50" relative="1" as="geometry">
            <mxPoint x="59.74000000000001" y="464.55" as="sourcePoint" />
            <mxPoint x="154.74" y="465.36500000000007" as="targetPoint" />
          </mxGeometry>
        </mxCell>
        <mxCell id="8WZBJLw57oJNSU06zkzZ-6" value="" style="endArrow=none;html=1;rounded=0;entryX=0.25;entryY=1;entryDx=0;entryDy=0;strokeWidth=3;strokeColor=#B9E0A5;fillColor=#d5e8d4;exitX=0.25;exitY=0;exitDx=0;exitDy=0;" edge="1" parent="1" source="8WZBJLw57oJNSU06zkzZ-2" target="8WZBJLw57oJNSU06zkzZ-2">
          <mxGeometry width="50" height="50" relative="1" as="geometry">
            <mxPoint x="89.74000000000001" y="444.55" as="sourcePoint" />
            <mxPoint x="184.74" y="445.36500000000007" as="targetPoint" />
          </mxGeometry>
        </mxCell>
        <mxCell id="8WZBJLw57oJNSU06zkzZ-7" value="" style="endArrow=none;html=1;rounded=0;entryX=0.25;entryY=1;entryDx=0;entryDy=0;strokeWidth=3;strokeColor=#B9E0A5;fillColor=#d5e8d4;exitX=0.25;exitY=0;exitDx=0;exitDy=0;" edge="1" parent="1">
          <mxGeometry width="50" height="50" relative="1" as="geometry">
            <mxPoint x="106.24000000000001" y="391.14000000000004" as="sourcePoint" />
            <mxPoint x="106.24000000000001" y="488.04" as="targetPoint" />
          </mxGeometry>
        </mxCell>
        <mxCell id="8WZBJLw57oJNSU06zkzZ-8" value="" style="endArrow=none;html=1;rounded=0;entryX=0.25;entryY=1;entryDx=0;entryDy=0;strokeWidth=3;strokeColor=#B9E0A5;fillColor=#d5e8d4;exitX=0.25;exitY=0;exitDx=0;exitDy=0;" edge="1" parent="1">
          <mxGeometry width="50" height="50" relative="1" as="geometry">
            <mxPoint x="131.74" y="391.14000000000004" as="sourcePoint" />
            <mxPoint x="131.74" y="488.04" as="targetPoint" />
          </mxGeometry>
        </mxCell>
        <mxCell id="8WZBJLw57oJNSU06zkzZ-9" value="" style="rounded=1;whiteSpace=wrap;html=1;fillColor=#b0e3e6;strokeColor=#0e8088;" vertex="1" parent="1">
          <mxGeometry x="209" y="374.59" width="316" height="130" as="geometry" />
        </mxCell>
        <object label="k" id="8WZBJLw57oJNSU06zkzZ-10">
          <mxCell style="ellipse;whiteSpace=wrap;html=1;aspect=fixed;fillColor=#dae8fc;strokeColor=#6c8ebf;fontFamily=Times New Roman;" vertex="1" parent="1">
            <mxGeometry x="265.75" y="397.09000000000003" width="20" height="20" as="geometry" />
          </mxCell>
        </object>
        <mxCell id="8WZBJLw57oJNSU06zkzZ-11" value="jk" style="edgeStyle=none;rounded=0;orthogonalLoop=1;jettySize=auto;html=1;exitX=0;exitY=0;exitDx=0;exitDy=0;entryX=1;entryY=1;entryDx=0;entryDy=0;dashed=1;startArrow=none;startFill=0;endArrow=classic;endFill=1;strokeColor=#000000;strokeWidth=0.5;" edge="1" parent="1" source="8WZBJLw57oJNSU06zkzZ-12" target="8WZBJLw57oJNSU06zkzZ-10">
          <mxGeometry relative="1" as="geometry" />
        </mxCell>
        <mxCell id="8WZBJLw57oJNSU06zkzZ-12" value="j" style="ellipse;whiteSpace=wrap;html=1;aspect=fixed;fillColor=#dae8fc;strokeColor=#6c8ebf;" vertex="1" parent="1">
          <mxGeometry x="307" y="434.09000000000003" width="20" height="20" as="geometry" />
        </mxCell>
        <mxCell id="8WZBJLw57oJNSU06zkzZ-13" value="ij" style="edgeStyle=none;rounded=0;orthogonalLoop=1;jettySize=auto;html=1;exitX=1;exitY=0.5;exitDx=0;exitDy=0;entryX=0;entryY=1;entryDx=0;entryDy=0;dashed=1;startArrow=none;startFill=0;endArrow=classic;endFill=1;strokeColor=#000000;strokeWidth=0.5;" edge="1" parent="1" source="8WZBJLw57oJNSU06zkzZ-15" target="8WZBJLw57oJNSU06zkzZ-12">
          <mxGeometry relative="1" as="geometry" />
        </mxCell>
        <mxCell id="8WZBJLw57oJNSU06zkzZ-14" value="ik" style="edgeStyle=none;rounded=0;orthogonalLoop=1;jettySize=auto;html=1;exitX=1;exitY=0;exitDx=0;exitDy=0;entryX=0;entryY=1;entryDx=0;entryDy=0;dashed=1;startArrow=none;startFill=0;endArrow=classic;endFill=1;strokeColor=#000000;strokeWidth=0.5;" edge="1" parent="1" source="8WZBJLw57oJNSU06zkzZ-15" target="8WZBJLw57oJNSU06zkzZ-10">
          <mxGeometry relative="1" as="geometry" />
        </mxCell>
        <mxCell id="8WZBJLw57oJNSU06zkzZ-15" value="i" style="ellipse;whiteSpace=wrap;html=1;aspect=fixed;fillColor=#dae8fc;strokeColor=#6c8ebf;" vertex="1" parent="1">
          <mxGeometry x="217" y="462.09000000000003" width="20" height="20" as="geometry" />
        </mxCell>
        <mxCell id="8WZBJLw57oJNSU06zkzZ-24" value="LN" style="rounded=1;whiteSpace=wrap;html=1;fillColor=#dae8fc;strokeColor=#6c8ebf;" vertex="1" parent="1">
          <mxGeometry x="343" y="414.09" width="21" height="60" as="geometry" />
        </mxCell>
        <mxCell id="8WZBJLw57oJNSU06zkzZ-26" value="MLP" style="rounded=1;whiteSpace=wrap;html=1;fillColor=#fff2cc;strokeColor=#d6b656;" vertex="1" parent="1">
          <mxGeometry x="479" y="415" width="29" height="59" as="geometry" />
        </mxCell>
        <mxCell id="8WZBJLw57oJNSU06zkzZ-28" value="LN" style="rounded=1;whiteSpace=wrap;html=1;fillColor=#dae8fc;strokeColor=#6c8ebf;" vertex="1" parent="1">
          <mxGeometry x="443" y="414.09" width="21" height="60" as="geometry" />
        </mxCell>
        <mxCell id="8WZBJLw57oJNSU06zkzZ-31" value="Windows&lt;br&gt;Attention" style="rounded=0;whiteSpace=wrap;html=1;fillColor=#ffe6cc;strokeColor=#d79b00;" vertex="1" parent="1">
          <mxGeometry x="376" y="414.09" width="56" height="60" as="geometry" />
        </mxCell>
      </root>
    </mxGraphModel>
  </diagram>
</mxfile>
